<svg width="1024" height="1024" viewBox="0 0 1024 1024" fill="none" xmlns="http://www.w3.org/2000/svg">
<g filter="url(#filter0_dii_1112_1854)">
<path fill-rule="evenodd" clip-rule="evenodd" d="M992 330.983C992 319.587 992.005 308.189 991.935 296.791C991.878 287.19 991.767 277.591 991.506 267.995C990.942 247.079 989.708 225.983 985.988 205.3C982.216 184.319 976.055 164.792 966.347 145.728C956.803 126.991 944.336 109.845 929.461 94.98C914.589 80.1152 897.438 67.6562 878.694 58.118C859.611 48.4073 840.062 42.2489 819.058 38.4776C798.373 34.7635 777.271 33.532 756.355 32.967C746.752 32.7072 737.149 32.5977 727.543 32.5383C716.139 32.4683 704.736 32.4742 693.333 32.4742L560.928 32H461.9L331.838 32.4742C320.413 32.4742 308.987 32.4683 297.562 32.5383C287.936 32.5977 278.315 32.7072 268.693 32.967C247.728 33.532 226.579 34.7646 205.845 38.4835C184.812 42.2536 165.235 48.4096 146.126 58.1133C127.342 67.6527 110.154 80.1128 95.2512 94.98C80.3503 109.844 67.8599 126.986 58.2984 145.72C48.5634 164.793 42.391 184.332 38.6093 205.325C34.8858 226 33.652 247.088 33.0847 267.995C32.826 277.593 32.7142 287.191 32.6559 296.791C32.586 308.19 32 322.349 32 333.746L32.0035 462.006L32 562.095L32.5918 693.08C32.5918 704.493 32.5872 715.905 32.6559 727.318C32.7142 736.932 32.826 746.544 33.0858 756.154C33.652 777.097 34.8881 798.223 38.6151 818.934C42.3957 839.943 48.5669 859.498 58.2938 878.587C67.8564 897.351 80.3492 914.519 95.2512 929.405C110.153 944.29 127.336 956.766 146.117 966.318C165.237 976.041 184.824 982.208 205.869 985.984C226.594 989.704 247.736 990.938 268.693 991.503C278.315 991.762 287.937 991.873 297.563 991.931C308.988 992.001 320.413 991.997 331.838 991.997L463.075 992H562.35L693.333 991.995C704.736 991.995 716.139 992.001 727.543 991.931C737.149 991.873 746.752 991.762 756.355 991.503C777.28 990.936 798.388 989.701 819.082 985.979C840.074 982.203 859.613 976.039 878.686 966.321C897.434 956.77 914.588 944.293 929.461 929.405C944.334 914.521 956.799 897.355 966.343 878.595C976.058 859.497 982.218 839.933 985.993 818.909C989.709 798.207 990.942 777.089 991.507 756.154C991.767 746.543 991.878 736.931 991.935 727.318C992.006 715.905 992 704.493 992 693.08C992 693.08 991.993 564.408 991.993 562.095V461.901C991.993 460.193 992 330.983 992 330.983" fill="url(#paint0_linear_1112_1854)"/>
</g>
<g clip-path="url(#clip0_1112_1854)">
<mask id="mask0_1112_1854" style="mask-type:luminance" maskUnits="userSpaceOnUse" x="174" y="174" width="676" height="676">
<path d="M849.864 174.136H174.136V849.864H849.864V174.136Z" fill="white"/>
</mask>
<g mask="url(#mask0_1112_1854)">
<g filter="url(#filter1_d_1112_1854)">
<mask id="mask1_1112_1854" style="mask-type:alpha" maskUnits="userSpaceOnUse" x="174" y="174" width="676" height="676">
<path fill-rule="evenodd" clip-rule="evenodd" d="M653.307 846.975C663.95 851.142 676.086 850.878 686.828 845.68L825.946 778.394C840.566 771.326 849.864 756.453 849.864 740.137V283.869C849.864 267.553 840.566 252.681 825.946 245.61L686.828 178.319C672.73 171.5 656.231 173.17 643.858 182.213C642.091 183.504 640.407 184.946 638.827 186.536L372.496 430.774L256.488 342.257C245.689 334.018 230.584 334.693 220.554 343.864L183.346 377.885C171.077 389.103 171.064 408.504 183.316 419.74L283.922 512.001L183.316 604.262C171.064 615.498 171.077 634.899 183.346 646.117L220.554 680.138C230.584 689.308 245.689 689.987 256.488 681.744L372.496 593.228L638.827 837.466C643.04 841.704 647.987 844.895 653.307 846.975ZM681.035 357.808L478.951 512.001L681.035 666.194V357.808Z" fill="white"/>
</mask>
<g mask="url(#mask1_1112_1854)">
<path d="M825.952 245.716L686.721 178.331C670.604 170.531 651.345 173.821 638.697 186.535L182.909 604.26C170.649 615.497 170.663 634.898 182.939 646.116L220.17 680.137C230.205 689.308 245.32 689.98 256.125 681.743L804.998 263.197C823.412 249.155 849.864 262.357 849.864 285.59V283.965C849.864 267.657 840.565 252.791 825.952 245.716Z" fill="#D9D9D9"/>
<g filter="url(#filter2_d_1112_1854)">
<path d="M825.952 778.287L686.721 845.672C670.604 853.472 651.345 850.181 638.697 837.465L182.909 419.739C170.649 408.503 170.663 389.102 182.939 377.884L220.17 343.863C230.205 334.692 245.32 334.017 256.125 342.257L804.998 760.804C823.412 774.848 849.864 761.646 849.864 738.41V740.038C849.864 756.346 840.565 771.211 825.952 778.287Z" fill="#E6E6E6"/>
</g>
<g filter="url(#filter3_d_1112_1854)">
<path d="M686.728 845.679C670.607 853.479 651.348 850.181 638.699 837.465C654.284 853.127 680.932 842.035 680.932 819.882V204.118C680.932 181.964 654.284 170.868 638.699 186.535C651.348 173.82 670.607 170.525 686.728 178.318L825.931 245.609C840.558 252.68 849.864 267.552 849.864 283.868V740.136C849.864 756.452 840.558 771.318 825.931 778.393L686.728 845.679Z" fill="white"/>
</g>
<g style="mix-blend-mode:overlay" opacity="0.25">
<path style="mix-blend-mode:overlay" opacity="0.25" fill-rule="evenodd" clip-rule="evenodd" d="M652.894 846.974C663.537 851.141 675.673 850.877 686.415 845.679L825.537 778.393C840.157 771.325 849.449 756.453 849.449 740.136V283.868C849.449 267.553 840.157 252.682 825.537 245.61L686.415 178.318C672.317 171.5 655.818 173.17 643.446 182.212C641.678 183.504 639.995 184.946 638.414 186.535L372.084 430.774L256.075 342.257C245.276 334.017 230.171 334.692 220.141 343.863L182.933 377.884C170.665 389.102 170.651 408.503 182.903 419.739L283.509 512L182.903 604.261C170.651 615.497 170.665 634.898 182.933 646.116L220.141 680.137C230.171 689.307 245.276 689.98 256.075 681.743L372.084 593.227L638.414 837.465C642.628 841.703 647.574 844.894 652.894 846.974ZM680.622 357.807L478.538 512L680.622 666.193V357.807Z" fill="url(#paint1_linear_1112_1854)"/>
</g>
</g>
</g>
</g>
</g>
<defs>
<filter id="filter0_dii_1112_1854" x="32" y="28" width="985" height="989" filterUnits="userSpaceOnUse" color-interpolation-filters="sRGB">
<feFlood flood-opacity="0" result="BackgroundImageFix"/>
<feColorMatrix in="SourceAlpha" type="matrix" values="0 0 0 0 0 0 0 0 0 0 0 0 0 0 0 0 0 0 127 0" result="hardAlpha"/>
<feOffset dx="15" dy="15"/>
<feGaussianBlur stdDeviation="5"/>
<feColorMatrix type="matrix" values="0 0 0 0 0 0 0 0 0 0 0 0 0 0 0 0 0 0 0.39 0"/>
<feBlend mode="normal" in2="BackgroundImageFix" result="effect1_dropShadow_1112_1854"/>
<feBlend mode="normal" in="SourceGraphic" in2="effect1_dropShadow_1112_1854" result="shape"/>
<feColorMatrix in="SourceAlpha" type="matrix" values="0 0 0 0 0 0 0 0 0 0 0 0 0 0 0 0 0 0 127 0" result="hardAlpha"/>
<feOffset dy="15"/>
<feGaussianBlur stdDeviation="1"/>
<feComposite in2="hardAlpha" operator="arithmetic" k2="-1" k3="1"/>
<feColorMatrix type="matrix" values="0 0 0 0 0.360784 0 0 0 0 0.364706 0 0 0 0 0.341176 0 0 0 1 0"/>
<feBlend mode="normal" in2="shape" result="effect2_innerShadow_1112_1854"/>
<feColorMatrix in="SourceAlpha" type="matrix" values="0 0 0 0 0 0 0 0 0 0 0 0 0 0 0 0 0 0 127 0" result="hardAlpha"/>
<feOffset dy="-15"/>
<feGaussianBlur stdDeviation="2"/>
<feComposite in2="hardAlpha" operator="arithmetic" k2="-1" k3="1"/>
<feColorMatrix type="matrix" values="0 0 0 0 0.0735022 0 0 0 0 0.0769231 0 0 0 0 0.0632396 0 0 0 1 0"/>
<feBlend mode="normal" in2="effect2_innerShadow_1112_1854" result="effect3_innerShadow_1112_1854"/>
</filter>
<filter id="filter1_d_1112_1854" x="167.886" y="169.969" width="688.228" height="688.228" filterUnits="userSpaceOnUse" color-interpolation-filters="sRGB">
<feFlood flood-opacity="0" result="BackgroundImageFix"/>
<feColorMatrix in="SourceAlpha" type="matrix" values="0 0 0 0 0 0 0 0 0 0 0 0 0 0 0 0 0 0 127 0" result="hardAlpha"/>
<feOffset dy="2.08333"/>
<feGaussianBlur stdDeviation="3.125"/>
<feColorMatrix type="matrix" values="0 0 0 0 0 0 0 0 0 0 0 0 0 0 0 0 0 0 0.15 0"/>
<feBlend mode="normal" in2="BackgroundImageFix" result="effect1_dropShadow_1112_1854"/>
<feBlend mode="normal" in="SourceGraphic" in2="effect1_dropShadow_1112_1854" result="shape"/>
</filter>
<filter id="filter2_d_1112_1854" x="165.39" y="328.17" width="692.807" height="530.026" filterUnits="userSpaceOnUse" color-interpolation-filters="sRGB">
<feFlood flood-opacity="0" result="BackgroundImageFix"/>
<feColorMatrix in="SourceAlpha" type="matrix" values="0 0 0 0 0 0 0 0 0 0 0 0 0 0 0 0 0 0 127 0" result="hardAlpha"/>
<feOffset/>
<feGaussianBlur stdDeviation="4.16667"/>
<feColorMatrix type="matrix" values="0 0 0 0 0 0 0 0 0 0 0 0 0 0 0 0 0 0 0.25 0"/>
<feBlend mode="overlay" in2="BackgroundImageFix" result="effect1_dropShadow_1112_1854"/>
<feBlend mode="normal" in="SourceGraphic" in2="effect1_dropShadow_1112_1854" result="shape"/>
</filter>
<filter id="filter3_d_1112_1854" x="630.365" y="165.801" width="227.832" height="692.399" filterUnits="userSpaceOnUse" color-interpolation-filters="sRGB">
<feFlood flood-opacity="0" result="BackgroundImageFix"/>
<feColorMatrix in="SourceAlpha" type="matrix" values="0 0 0 0 0 0 0 0 0 0 0 0 0 0 0 0 0 0 127 0" result="hardAlpha"/>
<feOffset/>
<feGaussianBlur stdDeviation="4.16667"/>
<feColorMatrix type="matrix" values="0 0 0 0 0 0 0 0 0 0 0 0 0 0 0 0 0 0 0.25 0"/>
<feBlend mode="overlay" in2="BackgroundImageFix" result="effect1_dropShadow_1112_1854"/>
<feBlend mode="normal" in="SourceGraphic" in2="effect1_dropShadow_1112_1854" result="shape"/>
</filter>
<linearGradient id="paint0_linear_1112_1854" x1="512" y1="32" x2="512" y2="992" gradientUnits="userSpaceOnUse">
<stop stop-color="#32342C"/>
</linearGradient>
<linearGradient id="paint1_linear_1112_1854" x1="511.587" y1="174.135" x2="511.587" y2="849.871" gradientUnits="userSpaceOnUse">
<stop stop-color="white"/>
<stop offset="1" stop-color="white" stop-opacity="0"/>
</linearGradient>
<clipPath id="clip0_1112_1854">
<rect width="675.728" height="675.728" fill="white" transform="translate(174.136 174.136)"/>
</clipPath>
</defs>
</svg>
