<svg width="1024" height="1024" viewBox="0 0 1024 1024" fill="none" xmlns="http://www.w3.org/2000/svg">
<g filter="url(#filter0_dii_1112_1697)">
<path fill-rule="evenodd" clip-rule="evenodd" d="M992 330.983C992 319.587 992.005 308.189 991.935 296.791C991.878 287.19 991.767 277.591 991.506 267.995C990.942 247.079 989.708 225.983 985.988 205.3C982.216 184.319 976.055 164.792 966.347 145.728C956.803 126.991 944.336 109.845 929.461 94.98C914.589 80.1152 897.438 67.6562 878.694 58.118C859.611 48.4073 840.062 42.2489 819.058 38.4776C798.373 34.7635 777.271 33.532 756.355 32.967C746.752 32.7072 737.149 32.5977 727.543 32.5383C716.139 32.4683 704.736 32.4742 693.333 32.4742L560.928 32H461.9L331.838 32.4742C320.413 32.4742 308.987 32.4683 297.562 32.5383C287.936 32.5977 278.315 32.7072 268.693 32.967C247.728 33.532 226.579 34.7646 205.845 38.4835C184.812 42.2536 165.235 48.4096 146.126 58.1133C127.342 67.6527 110.154 80.1128 95.2512 94.98C80.3503 109.844 67.8599 126.986 58.2984 145.72C48.5634 164.793 42.391 184.332 38.6093 205.325C34.8858 226 33.652 247.088 33.0847 267.995C32.826 277.593 32.7142 287.191 32.6559 296.791C32.586 308.19 32 322.349 32 333.746L32.0035 462.006L32 562.095L32.5918 693.08C32.5918 704.493 32.5872 715.905 32.6559 727.318C32.7142 736.932 32.826 746.544 33.0858 756.154C33.652 777.097 34.8881 798.223 38.6151 818.934C42.3957 839.943 48.5669 859.498 58.2938 878.587C67.8564 897.351 80.3492 914.519 95.2512 929.405C110.153 944.29 127.336 956.766 146.117 966.318C165.237 976.041 184.824 982.208 205.869 985.984C226.594 989.704 247.736 990.938 268.693 991.503C278.315 991.762 287.937 991.873 297.563 991.931C308.988 992.001 320.413 991.997 331.838 991.997L463.075 992H562.35L693.333 991.995C704.736 991.995 716.139 992.001 727.543 991.931C737.149 991.873 746.752 991.762 756.355 991.503C777.28 990.936 798.388 989.701 819.082 985.979C840.074 982.203 859.613 976.039 878.686 966.321C897.434 956.77 914.588 944.293 929.461 929.405C944.334 914.521 956.799 897.355 966.343 878.595C976.058 859.497 982.218 839.933 985.993 818.909C989.709 798.207 990.942 777.089 991.507 756.154C991.767 746.543 991.878 736.931 991.935 727.318C992.006 715.905 992 704.493 992 693.08C992 693.08 991.993 564.408 991.993 562.095V461.901C991.993 460.193 992 330.983 992 330.983" fill="url(#paint0_linear_1112_1697)"/>
</g>
<g clip-path="url(#clip0_1112_1697)">
<path d="M351.218 560.653L373.475 622.359L406.92 667.482L485.441 682.458L523.006 685.654L587.134 669.633L614.761 643.152L351.218 560.653V560.653Z" fill="#32342C"/>
<path d="M683.524 469.633L675.663 443.55L653.184 401.132L627.47 374.031L600.173 354.542L576.471 345.238L548.032 335.122L501.206 332.143L471.679 337.471L447.586 344.877L404.837 369.896L378.119 399.702L353.482 439.714L343.79 473.765L341.979 525.428L351.218 560.653L371.596 600.756L385.97 620.126L405.844 638.346L430.665 655.138L461.273 668.45L512.495 674.462L539.241 675.207L578.826 664.057L614.208 644.639L636.972 625.219L654.623 604.161L679.579 555.311L685.088 521.894L683.524 469.633V469.633Z" fill="#32342C"/>
<path d="M502.063 355.618L481.092 376.424L515.3 390.29L540.746 358.734L502.063 355.618V355.618Z" fill="#BCC6D8"/>
<path d="M515.3 390.29L581.526 388.281L540.746 358.734L515.3 390.29Z" fill="#C2C9D7"/>
<path d="M576.606 358.512L540.747 358.734L581.526 388.28L619.237 385.818L576.606 358.512V358.512Z" fill="#B2B8C2"/>
<path d="M619.237 385.818L597.799 356.257L627.47 374.031L619.237 385.818V385.818Z" fill="#9DA2AA"/>
<path d="M647.626 403.921L619.237 385.818L627.47 374.031L647.626 403.921Z" fill="#9399A3"/>
<path d="M619.237 385.818L614.487 406.07L640.453 416.448L619.237 385.818Z" fill="#99A0AC"/>
<path d="M619.237 385.818L647.626 403.921L640.453 416.448L619.237 385.818Z" fill="#969DA8"/>
<path d="M581.526 388.281L619.237 385.818L614.487 406.07L581.526 388.281V388.281Z" fill="#A9B2C0"/>
<path d="M581.526 388.281L551.731 415.25L590.078 434.029L581.526 388.281V388.281Z" fill="#ACB4C8"/>
<path d="M515.3 390.29L581.526 388.281L551.731 415.25L515.3 390.29V390.29Z" fill="#BFC5D2"/>
<path d="M614.487 406.07L632.521 441.042L640.453 416.448L614.487 406.07V406.07Z" fill="#9FA5B1"/>
<path d="M632.521 441.042L640.453 416.448L659.346 461.384L632.521 441.042Z" fill="#9096A4"/>
<path d="M640.453 416.448L669.248 437.536L659.346 461.384L640.453 416.448V416.448Z" fill="#848B98"/>
<path d="M647.626 403.921L653.184 401.132L669.248 437.536L647.626 403.921V403.921Z" fill="#B3B5CD"/>
<path d="M669.248 437.536L675.663 443.55L653.184 401.132L669.248 437.536V437.536Z" fill="#32342C"/>
<path d="M669.248 437.535L647.626 403.921L640.453 416.452L669.248 437.535ZM627.47 374.032L647.626 403.922L653.184 401.13L627.47 374.032Z" fill="#70757D"/>
<path d="M682.079 490.012L675.663 443.55L683.524 469.633L681.975 490.012H682.079V490.012Z" fill="#32342C"/>
<path d="M669.248 437.536L682.079 490.012L675.663 443.55L669.248 437.536V437.536Z" fill="#767B86"/>
<path d="M659.346 461.383L682.079 490.012L669.248 437.536L659.346 461.383V461.383Z" fill="#6E7279"/>
<path d="M681.975 490.012L683.524 469.633L685.088 521.894L682.079 490.012H681.975V490.012Z" fill="#32342C"/>
<path d="M678.269 531.314L685.088 521.895L682.079 490.013L678.269 531.314Z" fill="#676C76"/>
<path d="M679.579 555.311L674.126 557.938L685.088 521.895L679.579 555.311Z" fill="#575B65"/>
<path d="M674.126 557.938L685.088 521.895L678.269 531.314L674.126 557.938V557.938Z" fill="#5D6065"/>
<path d="M678.269 531.314L682.079 490.013L670.4 503.789L678.269 531.314Z" fill="#6B6F7C"/>
<path d="M674.127 557.938L678.269 531.314L655.743 569.17L674.127 557.938V557.938Z" fill="#5F6470"/>
<path d="M659.346 461.383L682.079 490.012L670.4 503.789L659.346 461.383V461.383Z" fill="#757B87"/>
<path d="M678.269 531.314L670.4 503.789L658.524 537.692L678.269 531.314Z" fill="#656974"/>
<path d="M654.623 604.161L674.127 557.938L655.88 591.634L654.623 604.161Z" fill="#5C606C"/>
<path d="M655.88 591.634L674.127 557.938L655.743 569.17L655.88 591.634V591.634Z" fill="#5E6270"/>
<path d="M674.126 557.938L654.623 604.167L679.575 555.311L674.126 557.938ZM636.971 625.22L654.623 604.167L655.88 591.64L636.971 625.22ZM614.208 644.639L636.971 625.22L612.914 636.284L614.208 644.639Z" fill="#5B5E67"/>
<path d="M481.35 658.166L458.351 663.791L459.052 647.741L481.35 658.166Z" fill="#595B6C"/>
<path d="M353.482 439.715L359.822 437.366L343.791 473.765L353.482 439.715V439.715Z" fill="#646879"/>
<path d="M343.791 473.765L355.928 471.507L359.822 437.366L343.791 473.765Z" fill="#696E8B"/>
<path d="M344.515 517.48L343.791 473.765L355.928 471.507L344.515 517.48Z" fill="#696D88"/>
<path d="M614.487 406.07L590.078 434.029L632.521 441.042L614.487 406.07ZM401.489 377.393L432.652 356.078L404.847 369.896L401.489 377.393Z" fill="#959EB2"/>
<path d="M404.836 369.896L447.586 344.877L432.642 356.077L404.836 369.896Z" fill="#9399A7"/>
<path d="M432.643 356.077L471.679 337.471L447.586 344.877L432.643 356.077Z" fill="#9FA6B3"/>
<path d="M581.529 388.28L590.081 434.029L614.49 406.07L581.529 388.28ZM456.42 353.91L492.784 339.367L471.682 337.471L456.42 353.91Z" fill="#9FA7B5"/>
<path d="M501.206 332.143L471.679 337.471L492.781 339.367L501.206 332.143Z" fill="#AAACAF"/>
<path d="M529.133 339.006L492.782 339.367L501.206 332.143" fill="#B9C1CE"/>
<path d="M597.799 356.258L576.606 358.513L619.235 385.819L597.799 356.258ZM529.132 339.006L576.465 345.239L548.026 335.123L529.132 339.006Z" fill="#A5A9B1"/>
<path d="M597.799 356.258L576.471 345.239L600.173 354.542L597.799 356.258Z" fill="#7D828B"/>
<path d="M351.218 560.656L365.212 572.172L344.517 517.489L351.218 560.656ZM544.363 669.411L556.665 640.453L511.831 652.498L544.363 669.411ZM556.665 640.453L594.149 650.853L596.423 621.871L556.665 640.453Z" fill="#5F607C"/>
<path d="M612.914 636.284L596.418 621.864L636.275 595.378L612.914 636.284Z" fill="#555A79"/>
<path d="M636.276 595.378L612.914 636.284L636.971 625.22L655.88 591.634L636.276 595.378V595.378Z" fill="#54596B"/>
<path d="M600.173 354.542L597.799 356.258L627.47 374.031L600.173 354.542ZM576.606 358.511L597.799 356.256L576.471 345.231L576.606 358.511Z" fill="#818791"/>
<path d="M501.206 332.143L529.135 339.006L548.035 335.122L501.206 332.143ZM576.468 345.238L529.135 339.006L576.615 358.512L576.468 345.238Z" fill="#ADB0B5"/>
<path d="M529.132 339.006L540.747 358.734L576.606 358.512L529.132 339.006V339.006Z" fill="#C0C5CD"/>
<path d="M529.132 339.006L540.747 358.734L502.063 355.619L529.132 339.006Z" fill="#B8BEC8"/>
<path d="M492.782 339.367L502.063 355.619L529.133 339.006L492.782 339.367V339.367Z" fill="#D7D7D7"/>
<path d="M456.417 353.91L492.781 339.368L502.063 355.62L456.417 353.91Z" fill="#BCC1C8"/>
<path d="M432.643 356.077L456.418 353.91L471.679 337.471L432.643 356.077ZM456.418 353.91L481.093 376.424L502.063 355.618L456.418 353.91Z" fill="#AFB5C0"/>
<path d="M456.418 353.91L416.25 391.574L432.643 356.077L456.418 353.91Z" fill="#9199AC"/>
<path d="M416.25 391.574L441.881 395.836L456.418 353.91L416.25 391.574V391.574Z" fill="#A1ABC2"/>
<path d="M441.881 395.836L456.418 353.91L481.094 376.424L441.881 395.836V395.836Z" fill="#9CA5BA"/>
<path d="M378.119 399.702L379.68 414.853L401.485 377.393L378.119 399.702V399.702Z" fill="#828899"/>
<path d="M359.822 437.366L378.118 399.702L379.68 414.853L359.822 437.366V437.366Z" fill="#767B8E"/>
<path d="M379.68 414.853L401.485 377.393L416.249 391.573L379.68 414.853V414.853Z" fill="#81889D"/>
<path d="M378.359 447.33L379.68 414.853L359.822 437.365L378.359 447.33Z" fill="#676E8E"/>
<path d="M378.359 447.33L379.679 414.853L405.448 435.772L378.359 447.33Z" fill="#7881A3"/>
<path d="M405.448 435.772L416.249 391.573L379.68 414.853L405.448 435.772V435.772Z" fill="#9CA3B8"/>
<path d="M405.448 435.772L416.25 391.573L441.881 395.836L405.448 435.772V435.772Z" fill="#9DA6C5"/>
<path d="M355.928 471.507L359.822 437.366L378.359 447.331L355.928 471.507Z" fill="#727687"/>
<path d="M544.363 669.408L578.826 664.057L594.143 650.844L544.363 669.408ZM341.979 525.428L344.517 517.48L343.79 473.765L341.979 525.428ZM355.928 471.507L344.517 517.48L365.212 572.163L355.112 508.807L355.928 471.507Z" fill="#4D5061"/>
<path d="M365.211 572.17L382.285 574.563L370.329 546.654L365.211 572.17Z" fill="#575A72"/>
<path d="M612.914 636.284L594.143 650.844L578.826 664.058L614.208 644.64L612.914 636.284ZM512.495 674.462L539.241 675.207L578.826 664.058L544.362 669.408L512.495 674.462ZM381.142 603.904L399.086 607.355L382.284 574.575L381.142 603.904Z" fill="#5D606D"/>
<path d="M459.052 647.741L428.671 624.357L416.044 636.497L458.346 663.792L459.052 647.741ZM351.218 560.656L371.596 600.76L365.212 572.172L351.218 560.656ZM341.979 525.431L351.218 560.656L344.517 517.483L341.979 525.431ZM511.829 652.492L459.058 647.744L481.356 658.171L458.346 663.792L430.661 655.138L461.269 668.45L512.491 674.462L544.358 669.408L511.829 652.492ZM382.284 574.566L365.212 572.172L381.142 603.901L382.284 574.566ZM355.112 508.811L365.212 572.166L370.329 546.65L355.112 508.811ZM399.086 607.35L381.142 603.898L371.596 600.757L385.97 620.126L405.844 638.347L430.665 655.138L416.044 636.497L399.086 607.35Z" fill="#575A70"/>
<path d="M355.928 471.507L380.02 508.774L378.359 447.331L355.928 471.507V471.507Z" fill="#646787"/>
<path d="M355.112 508.809L370.329 546.654L380.021 508.773L355.112 508.809V508.809Z" fill="#6B6D83"/>
<path d="M370.329 546.654L380.021 508.773L392.065 538.705L370.329 546.654V546.654Z" fill="#626388"/>
<path d="M382.284 574.563L428.476 603.186L392.065 538.705L382.284 574.563Z" fill="#5F5E79"/>
<path d="M371.596 600.756L381.142 603.898L365.212 572.168L371.596 600.756ZM473.631 617.22L459.052 647.735L511.824 652.483L473.631 617.22ZM382.285 574.557L399.086 607.337L416.044 636.485L428.671 624.345L428.477 603.177L382.285 574.557Z" fill="#585A74"/>
<path d="M596.417 621.862L594.143 650.844L612.915 636.284L596.417 621.862ZM515.665 617.703L511.83 652.489L556.663 640.444L555.067 601.343L515.665 617.703Z" fill="#5D5E7B"/>
<path d="M355.112 508.81L380.019 508.773L355.928 471.507L355.112 508.81ZM555.07 601.34L556.666 640.441L596.419 621.859L555.07 601.34Z" fill="#575879"/>
<path d="M555.068 601.34L580.653 578.173L596.418 621.864L555.068 601.34Z" fill="#5E6280"/>
<path d="M596.418 621.864L615.757 563.294L580.653 578.173L596.418 621.864Z" fill="#63668B"/>
<path d="M636.275 595.378L596.418 621.864L615.757 563.294L636.275 595.378V595.378Z" fill="#595C6C"/>
<path d="M655.743 569.17L615.757 563.293L636.277 595.378L655.88 591.634L655.743 569.17Z" fill="#5B5F70"/>
<path d="M658.524 537.692L615.757 563.293L655.743 569.17L678.269 531.314L658.524 537.692Z" fill="#606472"/>
<path d="M359.822 437.366L378.119 399.702L353.482 439.715L359.822 437.366ZM642.572 483.983L658.524 537.692L670.4 503.789L642.572 483.983Z" fill="#7C808D"/>
<path d="M670.4 503.789L659.346 461.383L642.572 483.981L670.4 503.789V503.789Z" fill="#6F7586"/>
<path d="M615.757 563.295L658.524 537.692L617.074 519.241L615.757 563.295V563.295Z" fill="#717894"/>
<path d="M615.757 563.295L576.999 524.132L580.653 578.174L615.757 563.295V563.295Z" fill="#606491"/>
<path d="M555.069 601.34L525.312 574.994L580.653 578.174L555.069 601.34Z" fill="#727292"/>
<path d="M382.284 574.563L392.065 538.707L370.329 546.653L382.284 574.563ZM525.312 574.994L515.664 617.704L555.07 601.34L525.312 574.994Z" fill="#666588"/>
<path d="M463.712 583.73L435.066 569.17L428.477 603.186L473.631 617.226L515.665 617.704L463.712 583.73V583.73Z" fill="#666288"/>
<path d="M515.663 617.704L525.312 574.994L463.711 583.73L515.663 617.704Z" fill="#6E6A8B"/>
<path d="M380.02 508.774L392.377 469.33L378.359 447.331L380.02 508.774Z" fill="#74799E"/>
<path d="M405.448 435.772L459.68 419.964L431.034 478.482L405.448 435.772Z" fill="#9197BF"/>
<path d="M615.757 563.295L576.999 524.132L617.074 519.241L615.757 563.295V563.295Z" fill="#72779D"/>
<path d="M658.524 537.692L642.572 483.981L617.074 519.241L658.524 537.692V537.692Z" fill="#757C94"/>
<path d="M580.653 578.174L536.329 535.318L576.999 524.132L580.653 578.174V578.174Z" fill="#787A9F"/>
<path d="M525.312 574.994L580.653 578.174L536.329 535.318L525.312 574.994Z" fill="#7C7B94"/>
<path d="M525.312 574.994L494.998 550.312L536.329 535.318L525.312 574.994Z" fill="#8F8DB9"/>
<path d="M401.485 377.393L404.837 369.896L378.119 399.702L401.485 377.393ZM632.521 441.042L642.573 483.983L659.346 461.384L632.521 441.042Z" fill="#7D859C"/>
<path d="M405.448 435.772L431.034 478.482L392.377 469.33L405.448 435.772Z" fill="#9093B4"/>
<path d="M392.377 469.33L431.034 478.482L404.892 519.657L392.377 469.33Z" fill="#8887A6"/>
<path d="M459.68 419.964L481.094 376.424L441.881 395.836L459.68 419.964V419.964Z" fill="#ABB5CE"/>
<path d="M380.021 508.773L404.892 519.657L392.065 538.705L380.021 508.773V508.773Z" fill="#6C6D91"/>
<path d="M404.892 519.657L392.065 538.706L428.476 603.186L435.066 569.17L404.892 519.657V519.657Z" fill="#6F6C91"/>
<path d="M435.067 569.17L439.1 509.266L404.893 519.657L435.067 569.17Z" fill="#868497"/>
<path d="M435.066 569.17L494.998 550.312L439.1 509.266L435.066 569.17V569.17Z" fill="#9896AD"/>
<path d="M494.998 550.312L489.158 503.996L439.1 509.266L494.998 550.312V550.312Z" fill="#8480A7"/>
<path d="M489.158 503.996L531.43 488.188L536.329 535.318L489.158 503.996V503.996Z" fill="#A8A9C8"/>
<path d="M463.711 583.73L525.312 574.994L494.998 550.312L463.711 583.73V583.73Z" fill="#767291"/>
<path d="M463.712 583.73L435.066 569.17L494.998 550.312L463.712 583.73V583.73Z" fill="#8A85A6"/>
<path d="M459.68 419.964L496.389 423.848L481.094 376.424L459.68 419.964V419.964Z" fill="#D7D7D7"/>
<path d="M515.3 390.29L481.094 376.424L496.389 423.848L515.3 390.29Z" fill="#D1D5DD"/>
<path d="M515.3 390.29L551.731 415.25L496.389 423.848L515.3 390.29V390.29Z" fill="#BFC7D8"/>
<path d="M496.389 423.848L550.674 452.634L531.43 488.188L496.389 423.848V423.848Z" fill="#A6AEDD"/>
<path d="M550.674 452.634L551.731 415.25L496.389 423.848L550.674 452.634Z" fill="#B6BFE2"/>
<path d="M550.675 452.634L551.732 415.25L590.079 434.029L550.675 452.634V452.634Z" fill="#A4AED7"/>
<path d="M496.389 423.848L531.43 488.188L469.969 457.404L496.389 423.848Z" fill="#B3B5CD"/>
<path d="M489.158 503.996L531.43 488.188L469.969 457.404L489.158 503.996Z" fill="#9493B5"/>
<path d="M531.43 488.188L585.636 478.288L550.674 452.634L531.43 488.188Z" fill="#9FA6CC"/>
<path d="M590.079 434.029L585.636 478.288L550.675 452.634L590.079 434.029Z" fill="#9EAACF"/>
<path d="M590.078 434.029L615.665 468.776L585.636 478.288L590.078 434.029Z" fill="#9EA6BD"/>
<path d="M632.521 441.042L590.079 434.029L615.665 468.776L632.521 441.042V441.042Z" fill="#929BB2"/>
<path d="M416.249 391.573L432.642 356.077L401.479 377.391L416.249 391.573ZM632.521 441.042L615.664 468.783L642.572 483.99L632.521 441.042Z" fill="#9096A4"/>
<path d="M617.074 519.241L642.572 483.981L615.665 468.776L617.074 519.241Z" fill="#828CAD"/>
<path d="M617.074 519.241L615.665 468.776L585.636 478.288L617.074 519.241Z" fill="#848DB1"/>
<path d="M405.45 435.772L459.68 419.964L441.883 395.836L405.45 435.772ZM531.426 488.188L576.994 524.132L585.632 478.288L531.426 488.188Z" fill="#9CA4C9"/>
<path d="M536.329 535.318L576.999 524.132L531.43 488.188L536.329 535.318Z" fill="#8C8FB8"/>
<path d="M459.68 419.964L469.969 457.404L496.389 423.848L459.68 419.964V419.964Z" fill="#9FA5CC"/>
<path d="M459.679 419.964L431.034 478.482L469.969 457.404L459.679 419.964Z" fill="#A4A4C3"/>
<path d="M469.969 457.404L439.1 509.266L489.158 503.996L469.969 457.404Z" fill="#7975AC"/>
<path d="M489.158 503.996L494.998 550.312L536.329 535.318L489.158 503.996ZM439.1 509.266L469.969 457.406L431.034 478.485L439.1 509.266Z" fill="#AAAAC4"/>
<path d="M404.893 519.657L431.034 478.482L439.1 509.266L404.893 519.657V519.657Z" fill="#7C7897"/>
<path d="M430.665 655.138L458.35 663.792L416.043 636.497L430.665 655.138ZM428.67 624.357L459.052 647.741L473.631 617.226L428.476 603.187L428.67 624.357ZM511.829 652.489L515.664 617.704L473.631 617.226L511.829 652.489ZM556.663 640.444L544.361 669.403L594.141 650.838L556.663 640.444Z" fill="#5F5F7E"/>
<path d="M380.021 508.774L392.377 469.33L404.892 519.657L380.021 508.774Z" fill="#77799F"/>
<path d="M392.377 469.33L405.449 435.772L378.359 447.331L392.377 469.33ZM585.636 478.288L576.998 524.132L617.074 519.241L585.636 478.288Z" fill="#8389AF"/>
<path d="M685.858 521.943V521.862L684.294 469.609V469.551C684.294 469.531 684.294 469.514 684.286 469.496C684.277 469.479 684.277 469.449 684.271 469.427V469.411L676.414 443.337V443.32L676.398 443.278C676.398 443.259 676.383 443.24 676.374 443.222L676.364 443.198L653.884 400.781L653.871 400.761L653.843 400.717L653.818 400.68L653.802 400.658L653.778 400.631L653.762 400.611L628.033 373.5L628.021 373.49L628.004 373.472C627.989 373.458 627.971 373.446 627.955 373.433L627.921 373.403L600.632 353.922H600.618L600.593 353.904C600.575 353.893 600.556 353.883 600.536 353.875C600.517 353.863 600.497 353.854 600.477 353.845H600.465L576.78 344.549H576.743L548.31 334.436H548.283L548.229 334.421L548.179 334.411H548.099L501.274 331.431H501.193C501.167 331.43 501.142 331.43 501.116 331.431H501.087L471.56 336.76H471.497L471.444 336.775L447.378 344.173L447.325 344.194C447.304 344.202 447.282 344.211 447.263 344.221L447.232 344.236H447.222L404.472 369.256H404.463L404.428 369.28L404.394 369.302L404.366 369.327L404.34 369.348L404.311 369.38L404.287 369.4L404.277 369.412L377.569 399.205L377.559 399.22L377.54 399.242L377.522 399.267L377.498 399.301L377.487 399.316L377.478 399.33L352.824 439.31L352.812 439.334L352.788 439.375L352.768 439.424C352.768 439.443 352.753 439.46 352.747 439.479L352.738 439.503L343.047 473.555V473.666C343.043 473.685 343.041 473.704 343.04 473.724V473.738L341.229 525.402V525.53C341.231 525.551 341.235 525.572 341.24 525.593V525.646L350.473 560.848V560.863L350.482 560.89C350.49 560.915 350.5 560.939 350.511 560.963C350.511 560.975 350.52 560.988 350.526 561L370.9 601.092L370.913 601.111C370.925 601.134 370.939 601.156 370.954 601.177L370.964 601.196L385.329 620.554L385.347 620.576C385.36 620.592 385.376 620.605 385.389 620.62C385.399 620.633 385.41 620.644 385.421 620.655L405.295 638.883C405.312 638.898 405.328 638.908 405.345 638.921L405.385 638.954L430.205 655.743L430.223 655.752L430.282 655.788L430.314 655.802H430.324L460.932 669.114L460.963 669.125C460.985 669.133 461.008 669.141 461.031 669.147L461.066 669.157L461.12 669.167H461.151L512.373 675.181H512.442L539.188 675.925H539.216C539.266 675.924 539.315 675.919 539.363 675.91L539.396 675.9H539.418L579.002 664.75L579.026 664.741L579.06 664.732L579.091 664.718L579.113 664.707L579.16 664.687L579.176 664.678L614.537 645.274H614.548L614.562 645.266C614.582 645.253 614.602 645.239 614.62 645.224L614.667 645.192L637.431 625.774L637.454 625.749L637.483 625.722L637.513 625.69H637.522L655.17 604.636L655.177 604.625C655.2 604.596 655.221 604.565 655.239 604.533L655.261 604.501V604.492L680.268 555.658C680.268 555.648 680.277 555.635 680.283 555.623L680.308 555.565V555.538C680.315 555.517 680.32 555.496 680.324 555.474C680.324 555.461 680.333 555.448 680.336 555.433L685.844 522.025V521.968L685.858 521.943ZM406.326 637.741L401.181 633.019L412.76 642.09L406.326 637.741ZM481.453 657.362L463.362 648.904L506.182 652.755L481.453 657.362ZM488.05 503.338L440.552 508.336L469.843 459.127L488.05 503.338ZM471.472 459.021L529.501 488.085L489.589 503.011L471.472 459.021ZM488.481 504.843L494.002 548.624L441.161 509.817L488.481 504.843ZM493.309 550.032L435.915 568.094L439.776 510.721L493.309 550.032ZM490.133 505.573L534.621 535.12L495.641 549.261L490.133 505.573ZM490.841 504.19L530.76 489.263L535.386 533.766L490.841 504.19ZM552.173 452.778L589.173 435.311L585.001 476.868L552.173 452.778ZM583.734 477.85L532.874 487.14L550.933 453.79L583.734 477.85ZM531.429 486.57L498.297 425.735L549.631 452.952L531.429 486.57ZM529.572 486.396L471.163 457.144L496.271 425.247L529.572 486.396ZM439.384 507.283L431.941 478.872L467.875 459.42L439.384 507.283ZM434.459 566.683L406.072 520.103L438.252 510.327L434.459 566.683ZM492.423 551.927L463.544 582.774L437.104 569.336L492.423 551.927ZM535.183 536.551L524.883 573.645L496.543 550.566L535.183 536.551ZM532.39 489.927L575.322 523.791L537.004 534.329L532.39 489.927ZM533.251 488.638L584.668 479.246L576.476 522.731L533.251 488.638ZM586.524 477.194L590.643 436.106L614.396 468.366L586.524 477.194ZM614.92 469.818L616.234 516.875L586.921 478.691L614.92 469.818ZM551.485 451.396L552.471 416.47L588.291 434.017L551.485 451.396ZM549.937 451.366L498.803 424.251L550.932 416.153L549.937 451.366ZM470.309 455.72L460.726 420.849L494.916 424.465L470.309 455.72ZM469.061 457.016L432.791 476.65L459.475 422.138L469.061 457.016ZM438.162 508.741L406.662 518.309L430.736 480.396L438.162 508.741ZM432.457 566.371L393.129 538.509L404.86 521.087L432.457 566.371ZM435.633 570.321L462.062 583.755L429.551 601.712L435.633 570.321ZM495.07 551.358L523.454 574.474L465.774 582.652L495.07 551.358ZM536.728 536.771L578.622 577.277L526.315 574.271L536.728 536.771ZM537.839 535.696L576.29 525.12L579.745 576.214L537.839 535.696ZM586.077 480.124L615.637 518.637L577.956 523.237L586.077 480.124ZM616.476 470.114L641.441 484.225L617.783 516.936L616.476 470.114ZM616.739 468.488L632.199 443.057L641.419 482.439L616.739 468.488ZM615.603 467.381L591.828 435.093L631.267 441.609L615.603 467.381ZM553.096 415.05L581.025 389.774L589.042 432.65L553.096 415.05ZM497.844 422.841L515.56 391.404L549.688 414.787L497.844 422.841ZM460.861 419.313L480.944 378.479L495.288 422.954L460.861 419.313ZM430.965 476.868L406.626 436.238L458.221 421.2L430.965 476.868ZM405.209 517.718L393.436 470.374L429.801 478.983L405.209 517.718ZM392.239 537.064L381.444 510.236L403.734 519.989L392.239 537.064ZM434.213 569.511L428.117 600.968L394.438 541.326L434.213 569.511ZM463.243 584.871L472.479 616.059L430.438 602.988L463.243 584.871ZM524.311 575.916L515.155 616.447L465.852 584.206L524.311 575.916ZM578.767 578.838L555.064 600.299L527.492 575.888L578.767 578.838ZM577.912 526.153L614.406 563.028L581.351 577.039L577.912 526.153ZM578.657 524.708L616.273 520.116L615.037 561.467L578.657 524.708ZM642.279 485.708L657.304 536.305L618.258 518.924L642.279 485.708ZM633.763 442.953L658.27 461.536L642.946 482.182L633.763 442.953ZM591.575 433.494L614.323 407.436L631.13 440.029L591.575 433.494ZM590.546 432.318L582.585 389.73L613.269 406.291L590.546 432.318ZM551.666 414.268L517.689 390.99L579.452 389.116L551.666 414.268ZM496.583 421.928L482.338 377.762L514.196 390.675L496.583 421.928ZM459.54 418.483L443.044 396.12L479.387 378.128L459.54 418.483ZM458.395 419.534L407.868 434.263L441.817 397.049L458.395 419.534ZM429.425 477.303L393.411 468.777L405.586 437.519L429.425 477.303ZM403.756 518.315L380.96 508.34L392.279 472.188L403.756 518.315ZM391.046 538.251L371.436 545.421L380.178 511.249L391.046 538.251ZM426.314 600.937L383.177 574.206L392.311 540.72L426.314 600.937ZM470.238 616.976L429.431 623.444L429.254 604.23L470.238 616.976ZM465.045 585.519L513.029 616.901L474.222 616.46L465.045 585.519ZM525.772 576.429L553.626 601.09L516.748 616.416L525.772 576.429ZM580.308 579.516L595.028 620.31L556.428 601.153L580.308 579.516ZM581.62 578.592L614.48 564.665L596.376 619.494L581.62 578.592ZM617.804 520.41L656.843 537.788L616.566 561.895L617.804 520.41ZM643.945 485.907L669.47 504.074L658.576 535.173L643.945 485.907ZM643.651 483.805L658.993 463.136L669.104 501.919L643.651 483.805ZM633.415 440.752L640.538 418.666L657.504 459.02L633.415 440.752ZM632.344 439.028L616.112 407.549L639.484 416.891L632.344 439.028ZM584.256 388.876L618.245 386.656L613.966 404.91L584.256 388.876ZM516.957 389.464L540.888 359.787L579.239 387.569L516.957 389.464ZM515.543 388.753L503.221 356.482L539.236 359.383L515.543 388.753ZM513.945 388.9L482.468 376.14L501.763 356.997L513.945 388.9ZM443.231 394.3L456.765 355.264L479.737 376.225L443.231 394.3ZM406.923 433.006L416.833 392.445L440.353 396.358L406.923 433.006ZM392.214 467.62L379.505 447.676L404.064 437.198L392.214 467.62ZM391.535 469.434L380.672 504.109L379.212 450.096L391.535 469.434ZM379.027 509.539L370.168 544.166L356.259 509.573L379.027 509.539ZM355.905 508.031L356.64 474.037L378.595 507.993L355.905 508.031ZM390.926 539.938L382.121 572.213L371.361 547.093L390.926 539.938ZM426.259 602.716L399.524 606.503L384.241 576.679L426.259 602.716ZM427.711 604.07L427.884 623.007L401.425 607.793L427.711 604.07ZM472.299 618.212L458.765 646.54L430.564 624.837L472.299 618.212ZM473.877 618.499L509.638 651.51L460.229 647.066L473.877 618.499ZM475.63 618.014L514.802 618.455L511.228 650.872L475.63 618.014ZM554.335 602.479L555.83 639.102L517.439 617.804L554.335 602.479ZM555.89 602.613L594.633 621.842L557.384 639.253L555.89 602.613ZM615.976 565.081L635.209 595.155L597.849 619.981L615.976 565.081ZM617.316 564.304L654.347 569.743L636.324 594.024L617.316 564.304ZM618.005 562.845L657.615 539.134L655.038 568.287L618.005 562.845ZM670.32 506.342L677.314 530.81L659.762 536.479L670.32 506.342ZM661.013 464.733L681.074 489.996L670.768 502.153L661.013 464.733ZM642.242 418.724L668.295 437.804L659.342 459.375L642.242 418.724ZM615.387 405.604L619.587 387.694L638.351 414.783L615.387 405.604ZM582.166 387.469L577.644 360.104L616.83 385.205L582.166 387.469ZM580.446 386.556L543.109 359.491L575.951 359.289L580.446 386.556ZM504.472 355.043L528.855 340.081L539.315 357.851L504.472 355.043ZM481.06 375.361L458.493 354.76L500.255 356.331L481.06 375.361ZM441.352 394.973L417.922 391.068L454.664 356.618L441.352 394.973ZM404.987 434.402L381 414.93L415.041 393.258L404.987 434.402ZM403.968 435.565L379.183 446.146L380.391 416.432L403.968 435.565ZM379.173 506.038L356.904 471.592L377.631 449.249L379.173 506.038ZM369.525 546.728L365.298 567.8L356.957 515.469L369.525 546.728ZM370.598 549.248L381.035 573.608L366.133 571.519L370.598 549.248ZM397.675 606.292L381.946 603.266L382.948 577.541L397.675 606.292ZM427.393 624.513L416.222 635.258L401.209 609.459L427.393 624.513ZM428.727 625.374L455.565 646.031L417.573 636.099L428.727 625.374ZM516.306 618.943L554.629 640.194L512.735 651.45L516.306 618.943ZM595.537 623.125L593.439 649.849L558.892 640.259L595.537 623.125ZM633.981 597.827L612.712 635.08L597.687 621.953L633.981 597.827ZM654.983 571.49L655.101 590.997L638.079 594.248L654.983 571.49ZM659.246 538.268L676.554 532.683L656.808 565.866L659.246 538.268ZM671.253 503.973L681.08 492.382L677.874 527.13L671.253 503.973ZM660.228 461.26L669.048 440.013L680.48 486.765L660.228 461.26ZM641.467 416.232L647.664 405.41L666.346 434.452L641.467 416.232ZM640.391 415L622.058 388.541L646.59 404.183L640.391 415ZM578.875 359.047L597.434 357.066L616.21 382.956L578.875 359.047ZM541.188 357.96L530.963 340.594L572.754 357.764L541.188 357.96ZM502.339 354.544L494.108 340.126L526.354 339.806L502.339 354.544ZM500.702 354.796L460.085 353.275L492.444 340.339L500.702 354.796ZM418.615 388.295L433.159 356.806L454.251 354.882L418.615 388.295ZM416.001 390.264L402.707 377.494L430.765 358.298L416.001 390.264ZM415.005 391.45L381.949 412.494L401.66 378.632L415.005 391.45ZM377.637 446.066L361.047 437.147L378.818 416.999L377.637 446.066ZM377.113 447.536L356.964 469.254L360.463 438.587L377.113 447.536ZM354.346 508.437L345.828 515.408L355.002 478.448L354.346 508.437ZM354.56 510.258L363.256 564.813L345.436 517.733L354.56 510.258ZM381.485 575.231L380.487 600.867L366.563 573.139L381.485 575.231ZM398.594 608.04L412.736 632.35L383.631 605.156L398.594 608.04ZM458.252 648.33L457.636 662.413L420.518 638.464L458.252 648.33ZM459.775 648.932L479.032 657.938L459.164 662.798L459.775 648.932ZM511.077 653.412L511.675 673.164L483.68 658.516L511.077 653.412ZM555.323 641.601L543.967 668.338L513.936 652.72L555.323 641.601ZM557.101 641.37L591.634 650.951L545.771 668.057L557.101 641.37ZM597.058 623.459L611.69 636.247L595.053 649.161L597.058 623.459ZM636.762 596.069L653.638 592.848L616.672 631.266L636.762 596.069ZM656.625 588.615L656.509 569.601L672.069 560.093L656.625 588.615ZM657.992 566.884L676.88 535.145L673.417 557.466L657.992 566.884ZM682.078 498.341L684.283 521.678L679.292 528.572L682.078 498.341ZM670.612 439.879L674.928 443.926L679.245 475.185L670.612 439.879ZM648.736 404.225L652.798 402.188L664.538 428.794L648.736 404.225ZM620.336 385.601L627.464 375.396L644.911 401.268L620.336 385.601ZM619.229 384.485L600.639 358.861L626.363 374.265L619.229 384.485ZM577.372 357.654L577.258 346.513L595.157 355.761L577.372 357.654ZM575.821 357.353L534.909 340.544L575.704 345.915L575.821 357.353ZM494.894 338.574L501.407 332.988L523.006 338.297L494.894 338.574ZM459.321 351.915L471.986 338.272L489.499 339.847L459.321 351.915ZM456.049 353.166L436.87 354.915L468.36 339.906L456.049 353.166ZM403.307 375.207L405.428 370.462L423.029 361.714L403.307 375.207ZM380.203 412.41L378.924 399.998L398.078 381.72L380.203 412.41ZM378.873 414.596L362.997 432.594L377.625 402.482L378.873 414.596ZM355.221 470.851L345.078 472.737L358.465 442.341L355.221 470.851ZM354.884 472.485L345.183 511.544L344.567 474.403L354.884 472.485ZM363.457 569.726L351.934 560.243L346.416 524.695L363.457 569.726ZM379.614 602.582L372.254 600.158L367.331 578.118L379.614 602.582ZM411.071 632.911L386.621 619.602L382.696 606.409L411.071 632.911ZM415.531 637.097L426.114 650.593L393.753 625.243L415.531 637.097ZM419.491 639.64L453.153 661.357L431.126 654.472L419.491 639.64ZM481.248 658.985L507.414 672.672L461.936 663.705L481.248 658.985ZM512.641 653.781L541.927 669.011L513.241 673.561L512.641 653.781ZM590.376 653.071L578.487 663.327L551.733 667.481L590.376 653.071ZM612.35 637.698L613.339 644.097L597.972 648.854L612.35 637.698ZM652.226 596.539L636.418 624.616L616.306 633.866L652.226 596.539ZM656.636 591.859L667.219 572.308L655.901 599.125L656.636 591.859ZM679.007 531.609L683.004 526.09L676.579 547.213L679.007 531.609ZM682.851 489.951V489.904L682.794 489.494L683.192 484.26L683.598 497.812L682.851 489.951ZM681.788 482.245L677.79 453.287L682.741 469.72L681.788 482.245ZM669.893 437.079L662.595 420.54L672.808 439.81L669.893 437.079ZM647.888 402.929L633.313 381.32L651.907 400.918L647.888 402.929ZM599.201 356.2L600.176 355.496L611.38 363.496L599.201 356.2ZM597.731 355.356L590.155 351.442L598.574 354.746L597.731 355.356ZM533.779 338.838L547.976 335.921L569.339 343.52L533.779 338.838ZM529.147 338.214L509.816 333.463L542.23 335.521L529.147 338.214ZM492.526 338.568L477.447 337.213L498.544 333.405L492.526 338.568ZM439.313 352.039L447.941 345.571L461.848 341.296L439.313 352.039ZM432.232 355.42L424.749 359.139L436.254 352.406L432.232 355.42ZM400.84 376.94L391.963 385.416L402.113 374.097L400.84 376.94ZM359.262 436.75L355.315 438.22L370.648 413.316L359.262 436.75ZM354.117 440.301L358.38 438.724L347.61 463.178L354.117 440.301ZM343.511 503.755L343.738 517.367L342.954 519.841L343.511 503.755ZM344.246 520.845L348.13 545.862L342.776 525.45L344.246 520.845ZM364.505 572.596L369.493 594.925L353.584 563.596L364.505 572.596ZM380.507 604.505L383.969 616.146L373.676 602.256L380.507 604.505ZM457.838 664.443L459.283 666.746L444.16 660.172L457.838 664.443ZM461.723 667.727L459.947 664.895L492.863 671.381L461.723 667.727ZM542.352 670.508L538.9 674.431L520.832 673.928L542.352 670.508ZM544.749 670.129L566.289 666.784L541.548 673.752L544.749 670.129ZM594.518 651.534L607.149 647.626L584.875 659.852L594.518 651.534ZM614.752 643.155L613.76 636.744L632.218 628.255L614.752 643.155ZM654.735 595.234L653.871 603.848L641.732 618.33L654.735 595.234ZM674.726 558.505L677.846 557.003L663.569 584.95L674.726 558.505ZM678.881 554.791L675.379 556.477L682.417 533.335L678.881 554.791Z" fill="url(#paint1_radial_1112_1697)"/>
<path d="M685.858 521.943V521.862L684.294 469.609V469.551C684.294 469.531 684.294 469.514 684.286 469.496C684.277 469.479 684.277 469.449 684.271 469.427V469.411L676.414 443.337V443.32L676.398 443.278C676.398 443.259 676.383 443.24 676.374 443.222L676.364 443.198L653.884 400.781L653.871 400.761L653.843 400.717L653.818 400.68L653.802 400.658L653.778 400.631L653.762 400.611L628.033 373.5L628.021 373.49L628.004 373.472C627.989 373.458 627.971 373.446 627.955 373.433L627.921 373.403L600.632 353.922H600.618L600.593 353.904C600.575 353.893 600.556 353.883 600.536 353.875C600.517 353.863 600.497 353.854 600.477 353.845H600.465L576.78 344.549H576.743L548.31 334.436H548.283L548.229 334.421L548.179 334.411H548.099L501.274 331.431H501.193C501.167 331.43 501.142 331.43 501.116 331.431H501.087L471.56 336.76H471.497L471.444 336.775L447.378 344.173L447.325 344.194C447.304 344.202 447.282 344.211 447.263 344.221L447.232 344.236H447.222L404.472 369.256H404.463L404.428 369.28L404.394 369.302L404.366 369.327L404.34 369.348L404.311 369.38L404.287 369.4L404.277 369.412L377.569 399.205L377.559 399.22L377.54 399.242L377.522 399.267L377.498 399.301L377.487 399.316L377.478 399.33L352.824 439.31L352.812 439.334L352.788 439.375L352.768 439.424C352.768 439.443 352.753 439.46 352.747 439.479L352.738 439.503L343.047 473.555V473.666C343.043 473.685 343.041 473.704 343.04 473.724V473.738L341.229 525.402V525.53C341.231 525.551 341.235 525.572 341.24 525.593V525.646L350.473 560.848V560.863L350.482 560.89C350.49 560.915 350.5 560.939 350.511 560.963C350.511 560.975 350.52 560.988 350.526 561L370.9 601.092L370.913 601.111C370.925 601.134 370.939 601.156 370.954 601.177L370.964 601.196L385.329 620.554L385.347 620.576C385.36 620.592 385.376 620.605 385.389 620.62C385.399 620.633 385.41 620.644 385.421 620.655L405.295 638.883C405.312 638.898 405.328 638.908 405.345 638.921L405.385 638.954L430.205 655.743L430.223 655.752L430.282 655.788L430.314 655.802H430.324L460.932 669.114L460.963 669.125C460.985 669.133 461.008 669.141 461.031 669.147L461.066 669.157L461.12 669.167H461.151L512.373 675.181H512.442L539.188 675.925H539.216C539.266 675.924 539.315 675.919 539.363 675.91L539.396 675.9H539.418L579.002 664.75L579.026 664.741L579.06 664.732L579.091 664.718L579.113 664.707L579.16 664.687L579.176 664.678L614.537 645.274H614.548L614.562 645.266C614.582 645.253 614.602 645.239 614.62 645.224L614.667 645.192L637.431 625.774L637.454 625.749L637.483 625.722L637.513 625.69H637.522L655.17 604.636L655.177 604.625C655.2 604.596 655.221 604.565 655.239 604.533L655.261 604.501V604.492L680.268 555.658C680.268 555.648 680.277 555.635 680.283 555.623L680.308 555.565V555.538C680.315 555.517 680.32 555.496 680.324 555.474C680.324 555.461 680.333 555.448 680.336 555.433L685.844 522.025V521.968L685.858 521.943ZM406.326 637.741L401.181 633.019L412.76 642.09L406.326 637.741ZM481.453 657.362L463.362 648.904L506.182 652.755L481.453 657.362ZM488.05 503.338L440.552 508.336L469.843 459.127L488.05 503.338ZM471.472 459.021L529.501 488.085L489.589 503.011L471.472 459.021ZM488.481 504.843L494.002 548.624L441.161 509.817L488.481 504.843ZM493.309 550.032L435.915 568.094L439.776 510.721L493.309 550.032ZM490.133 505.573L534.621 535.12L495.641 549.261L490.133 505.573ZM490.841 504.19L530.76 489.263L535.386 533.766L490.841 504.19ZM552.173 452.778L589.173 435.311L585.001 476.868L552.173 452.778ZM583.734 477.85L532.874 487.14L550.933 453.79L583.734 477.85ZM531.429 486.57L498.297 425.735L549.631 452.952L531.429 486.57ZM529.572 486.396L471.163 457.144L496.271 425.247L529.572 486.396ZM439.384 507.283L431.941 478.872L467.875 459.42L439.384 507.283ZM434.459 566.683L406.072 520.103L438.252 510.327L434.459 566.683ZM492.423 551.927L463.544 582.774L437.104 569.336L492.423 551.927ZM535.183 536.551L524.883 573.645L496.543 550.566L535.183 536.551ZM532.39 489.927L575.322 523.791L537.004 534.329L532.39 489.927ZM533.251 488.638L584.668 479.246L576.476 522.731L533.251 488.638ZM586.524 477.194L590.643 436.106L614.396 468.366L586.524 477.194ZM614.92 469.818L616.234 516.875L586.921 478.691L614.92 469.818ZM551.485 451.396L552.471 416.47L588.291 434.017L551.485 451.396ZM549.937 451.366L498.803 424.251L550.932 416.153L549.937 451.366ZM470.309 455.72L460.726 420.849L494.916 424.465L470.309 455.72ZM469.061 457.016L432.791 476.65L459.475 422.138L469.061 457.016ZM438.162 508.741L406.662 518.309L430.736 480.396L438.162 508.741ZM432.457 566.371L393.129 538.509L404.86 521.087L432.457 566.371ZM435.633 570.321L462.062 583.755L429.551 601.712L435.633 570.321ZM495.07 551.358L523.454 574.474L465.774 582.652L495.07 551.358ZM536.728 536.771L578.622 577.277L526.315 574.271L536.728 536.771ZM537.839 535.696L576.29 525.12L579.745 576.214L537.839 535.696ZM586.077 480.124L615.637 518.637L577.956 523.237L586.077 480.124ZM616.476 470.114L641.441 484.225L617.783 516.936L616.476 470.114ZM616.739 468.488L632.199 443.057L641.419 482.439L616.739 468.488ZM615.603 467.381L591.828 435.093L631.267 441.609L615.603 467.381ZM553.096 415.05L581.025 389.774L589.042 432.65L553.096 415.05ZM497.844 422.841L515.56 391.404L549.688 414.787L497.844 422.841ZM460.861 419.313L480.944 378.479L495.288 422.954L460.861 419.313ZM430.965 476.868L406.626 436.238L458.221 421.2L430.965 476.868ZM405.209 517.718L393.436 470.374L429.801 478.983L405.209 517.718ZM392.239 537.064L381.444 510.236L403.734 519.989L392.239 537.064ZM434.213 569.511L428.117 600.968L394.438 541.326L434.213 569.511ZM463.243 584.871L472.479 616.059L430.438 602.988L463.243 584.871ZM524.311 575.916L515.155 616.447L465.852 584.206L524.311 575.916ZM578.767 578.838L555.064 600.299L527.492 575.888L578.767 578.838ZM577.912 526.153L614.406 563.028L581.351 577.039L577.912 526.153ZM578.657 524.708L616.273 520.116L615.037 561.467L578.657 524.708ZM642.279 485.708L657.304 536.305L618.258 518.924L642.279 485.708ZM633.763 442.953L658.27 461.536L642.946 482.182L633.763 442.953ZM591.575 433.494L614.323 407.436L631.13 440.029L591.575 433.494ZM590.546 432.318L582.585 389.73L613.269 406.291L590.546 432.318ZM551.666 414.268L517.689 390.99L579.452 389.116L551.666 414.268ZM496.583 421.928L482.338 377.762L514.196 390.675L496.583 421.928ZM459.54 418.483L443.044 396.12L479.387 378.128L459.54 418.483ZM458.395 419.534L407.868 434.263L441.817 397.049L458.395 419.534ZM429.425 477.303L393.411 468.777L405.586 437.519L429.425 477.303ZM403.756 518.315L380.96 508.34L392.279 472.188L403.756 518.315ZM391.046 538.251L371.436 545.421L380.178 511.249L391.046 538.251ZM426.314 600.937L383.177 574.206L392.311 540.72L426.314 600.937ZM470.238 616.976L429.431 623.444L429.254 604.23L470.238 616.976ZM465.045 585.519L513.029 616.901L474.222 616.46L465.045 585.519ZM525.772 576.429L553.626 601.09L516.748 616.416L525.772 576.429ZM580.308 579.516L595.028 620.31L556.428 601.153L580.308 579.516ZM581.62 578.592L614.48 564.665L596.376 619.494L581.62 578.592ZM617.804 520.41L656.843 537.788L616.566 561.895L617.804 520.41ZM643.945 485.907L669.47 504.074L658.576 535.173L643.945 485.907ZM643.651 483.805L658.993 463.136L669.104 501.919L643.651 483.805ZM633.415 440.752L640.538 418.666L657.504 459.02L633.415 440.752ZM632.344 439.028L616.112 407.549L639.484 416.891L632.344 439.028ZM584.256 388.876L618.245 386.656L613.966 404.91L584.256 388.876ZM516.957 389.464L540.888 359.787L579.239 387.569L516.957 389.464ZM515.543 388.753L503.221 356.482L539.236 359.383L515.543 388.753ZM513.945 388.9L482.468 376.14L501.763 356.997L513.945 388.9ZM443.231 394.3L456.765 355.264L479.737 376.225L443.231 394.3ZM406.923 433.006L416.833 392.445L440.353 396.358L406.923 433.006ZM392.214 467.62L379.505 447.676L404.064 437.198L392.214 467.62ZM391.535 469.434L380.672 504.109L379.212 450.096L391.535 469.434ZM379.027 509.539L370.168 544.166L356.259 509.573L379.027 509.539ZM355.905 508.031L356.64 474.037L378.595 507.993L355.905 508.031ZM390.926 539.938L382.121 572.213L371.361 547.093L390.926 539.938ZM426.259 602.716L399.524 606.503L384.241 576.679L426.259 602.716ZM427.711 604.07L427.884 623.007L401.425 607.793L427.711 604.07ZM472.299 618.212L458.765 646.54L430.564 624.837L472.299 618.212ZM473.877 618.499L509.638 651.51L460.229 647.066L473.877 618.499ZM475.63 618.014L514.802 618.455L511.228 650.872L475.63 618.014ZM554.335 602.479L555.83 639.102L517.439 617.804L554.335 602.479ZM555.89 602.613L594.633 621.842L557.384 639.253L555.89 602.613ZM615.976 565.081L635.209 595.155L597.849 619.981L615.976 565.081ZM617.316 564.304L654.347 569.743L636.324 594.024L617.316 564.304ZM618.005 562.845L657.615 539.134L655.038 568.287L618.005 562.845ZM670.32 506.342L677.314 530.81L659.762 536.479L670.32 506.342ZM661.013 464.733L681.074 489.996L670.768 502.153L661.013 464.733ZM642.242 418.724L668.295 437.804L659.342 459.375L642.242 418.724ZM615.387 405.604L619.587 387.694L638.351 414.783L615.387 405.604ZM582.166 387.469L577.644 360.104L616.83 385.205L582.166 387.469ZM580.446 386.556L543.109 359.491L575.951 359.289L580.446 386.556ZM504.472 355.043L528.855 340.081L539.315 357.851L504.472 355.043ZM481.06 375.361L458.493 354.76L500.255 356.331L481.06 375.361ZM441.352 394.973L417.922 391.068L454.664 356.618L441.352 394.973ZM404.987 434.402L381 414.93L415.041 393.258L404.987 434.402ZM403.968 435.565L379.183 446.146L380.391 416.432L403.968 435.565ZM379.173 506.038L356.904 471.592L377.631 449.249L379.173 506.038ZM369.525 546.728L365.298 567.8L356.957 515.469L369.525 546.728ZM370.598 549.248L381.035 573.608L366.133 571.519L370.598 549.248ZM397.675 606.292L381.946 603.266L382.948 577.541L397.675 606.292ZM427.393 624.513L416.222 635.258L401.209 609.459L427.393 624.513ZM428.727 625.374L455.565 646.031L417.573 636.099L428.727 625.374ZM516.306 618.943L554.629 640.194L512.735 651.45L516.306 618.943ZM595.537 623.125L593.439 649.849L558.892 640.259L595.537 623.125ZM633.981 597.827L612.712 635.08L597.687 621.953L633.981 597.827ZM654.983 571.49L655.101 590.997L638.079 594.248L654.983 571.49ZM659.246 538.268L676.554 532.683L656.808 565.866L659.246 538.268ZM671.253 503.973L681.08 492.382L677.874 527.13L671.253 503.973ZM660.228 461.26L669.048 440.013L680.48 486.765L660.228 461.26ZM641.467 416.232L647.664 405.41L666.346 434.452L641.467 416.232ZM640.391 415L622.058 388.541L646.59 404.183L640.391 415ZM578.875 359.047L597.434 357.066L616.21 382.956L578.875 359.047ZM541.188 357.96L530.963 340.594L572.754 357.764L541.188 357.96ZM502.339 354.544L494.108 340.126L526.354 339.806L502.339 354.544ZM500.702 354.796L460.085 353.275L492.444 340.339L500.702 354.796ZM418.615 388.295L433.159 356.806L454.251 354.882L418.615 388.295ZM416.001 390.264L402.707 377.494L430.765 358.298L416.001 390.264ZM415.005 391.45L381.949 412.494L401.66 378.632L415.005 391.45ZM377.637 446.066L361.047 437.147L378.818 416.999L377.637 446.066ZM377.113 447.536L356.964 469.254L360.463 438.587L377.113 447.536ZM354.346 508.437L345.828 515.408L355.002 478.448L354.346 508.437ZM354.56 510.258L363.256 564.813L345.436 517.733L354.56 510.258ZM381.485 575.231L380.487 600.867L366.563 573.139L381.485 575.231ZM398.594 608.04L412.736 632.35L383.631 605.156L398.594 608.04ZM458.252 648.33L457.636 662.413L420.518 638.464L458.252 648.33ZM459.775 648.932L479.032 657.938L459.164 662.798L459.775 648.932ZM511.077 653.412L511.675 673.164L483.68 658.516L511.077 653.412ZM555.323 641.601L543.967 668.338L513.936 652.72L555.323 641.601ZM557.101 641.37L591.634 650.951L545.771 668.057L557.101 641.37ZM597.058 623.459L611.69 636.247L595.053 649.161L597.058 623.459ZM636.762 596.069L653.638 592.848L616.672 631.266L636.762 596.069ZM656.625 588.615L656.509 569.601L672.069 560.093L656.625 588.615ZM657.992 566.884L676.88 535.145L673.417 557.466L657.992 566.884ZM682.078 498.341L684.283 521.678L679.292 528.572L682.078 498.341ZM670.612 439.879L674.928 443.926L679.245 475.185L670.612 439.879ZM648.736 404.225L652.798 402.188L664.538 428.794L648.736 404.225ZM620.336 385.601L627.464 375.396L644.911 401.268L620.336 385.601ZM619.229 384.485L600.639 358.861L626.363 374.265L619.229 384.485ZM577.372 357.654L577.258 346.513L595.157 355.761L577.372 357.654ZM575.821 357.353L534.909 340.544L575.704 345.915L575.821 357.353ZM494.894 338.574L501.407 332.988L523.006 338.297L494.894 338.574ZM459.321 351.915L471.986 338.272L489.499 339.847L459.321 351.915ZM456.049 353.166L436.87 354.915L468.36 339.906L456.049 353.166ZM403.307 375.207L405.428 370.462L423.029 361.714L403.307 375.207ZM380.203 412.41L378.924 399.998L398.078 381.72L380.203 412.41ZM378.873 414.596L362.997 432.594L377.625 402.482L378.873 414.596ZM355.221 470.851L345.078 472.737L358.465 442.341L355.221 470.851ZM354.884 472.485L345.183 511.544L344.567 474.403L354.884 472.485ZM363.457 569.726L351.934 560.243L346.416 524.695L363.457 569.726ZM379.614 602.582L372.254 600.158L367.331 578.118L379.614 602.582ZM411.071 632.911L386.621 619.602L382.696 606.409L411.071 632.911ZM415.531 637.097L426.114 650.593L393.753 625.243L415.531 637.097ZM419.491 639.64L453.153 661.357L431.126 654.472L419.491 639.64ZM481.248 658.985L507.414 672.672L461.936 663.705L481.248 658.985ZM512.641 653.781L541.927 669.011L513.241 673.561L512.641 653.781ZM590.376 653.071L578.487 663.327L551.733 667.481L590.376 653.071ZM612.35 637.698L613.339 644.097L597.972 648.854L612.35 637.698ZM652.226 596.539L636.418 624.616L616.306 633.866L652.226 596.539ZM656.636 591.859L667.219 572.308L655.901 599.125L656.636 591.859ZM679.007 531.609L683.004 526.09L676.579 547.213L679.007 531.609ZM682.851 489.951V489.904L682.794 489.494L683.192 484.26L683.598 497.812L682.851 489.951ZM681.788 482.245L677.79 453.287L682.741 469.72L681.788 482.245ZM669.893 437.079L662.595 420.54L672.808 439.81L669.893 437.079ZM647.888 402.929L633.313 381.32L651.907 400.918L647.888 402.929ZM599.201 356.2L600.176 355.496L611.38 363.496L599.201 356.2ZM597.731 355.356L590.155 351.442L598.574 354.746L597.731 355.356ZM533.779 338.838L547.976 335.921L569.339 343.52L533.779 338.838ZM529.147 338.214L509.816 333.463L542.23 335.521L529.147 338.214ZM492.526 338.568L477.447 337.213L498.544 333.405L492.526 338.568ZM439.313 352.039L447.941 345.571L461.848 341.296L439.313 352.039ZM432.232 355.42L424.749 359.139L436.254 352.406L432.232 355.42ZM400.84 376.94L391.963 385.416L402.113 374.097L400.84 376.94ZM359.262 436.75L355.315 438.22L370.648 413.316L359.262 436.75ZM354.117 440.301L358.38 438.724L347.61 463.178L354.117 440.301ZM343.511 503.755L343.738 517.367L342.954 519.841L343.511 503.755ZM344.246 520.845L348.13 545.862L342.776 525.45L344.246 520.845ZM364.505 572.596L369.493 594.925L353.584 563.596L364.505 572.596ZM380.507 604.505L383.969 616.146L373.676 602.256L380.507 604.505ZM457.838 664.443L459.283 666.746L444.16 660.172L457.838 664.443ZM461.723 667.727L459.947 664.895L492.863 671.381L461.723 667.727ZM542.352 670.508L538.9 674.431L520.832 673.928L542.352 670.508ZM544.749 670.129L566.289 666.784L541.548 673.752L544.749 670.129ZM594.518 651.534L607.149 647.626L584.875 659.852L594.518 651.534ZM614.752 643.155L613.76 636.744L632.218 628.255L614.752 643.155ZM654.735 595.234L653.871 603.848L641.732 618.33L654.735 595.234ZM674.726 558.505L677.846 557.003L663.569 584.95L674.726 558.505ZM678.881 554.791L675.379 556.477L682.417 533.335L678.881 554.791Z" fill="url(#paint2_radial_1112_1697)"/>
<path d="M839.771 380.233C824.4 343.301 793.267 303.43 768.82 290.83C788.718 329.784 800.232 368.873 804.633 398.04C804.633 397.956 804.649 398.112 804.686 398.372C804.703 398.499 804.726 398.628 804.745 398.754C838.113 489.11 819.935 580.993 793.739 637.14C753.209 724.015 655.085 813.047 501.498 808.704C335.554 804.012 189.374 681.033 162.084 519.959C157.112 494.559 162.084 481.662 164.583 461.038C161.534 476.937 160.374 481.529 158.85 509.778C158.85 510.38 158.813 510.977 158.813 511.581C158.815 706.654 317.161 864.792 512.492 864.792C595.869 864.826 676.577 835.399 740.364 781.706C804.151 728.014 846.914 653.509 861.103 571.349C861.703 566.827 862.182 562.282 862.711 557.722C869.742 497.145 861.931 433.475 839.771 380.233V380.233Z" fill="url(#paint3_radial_1112_1697)"/>
<path d="M839.771 380.233C824.4 343.301 793.267 303.43 768.82 290.83C788.718 329.784 800.232 368.873 804.633 398.04C804.633 397.956 804.649 398.112 804.686 398.372C804.703 398.499 804.726 398.628 804.745 398.754C838.113 489.11 819.935 580.993 793.739 637.14C753.209 724.015 655.085 813.047 501.498 808.704C335.554 804.012 189.374 681.033 162.084 519.959C157.112 494.559 162.084 481.662 164.583 461.038C161.534 476.937 160.374 481.529 158.85 509.778C158.85 510.38 158.813 510.977 158.813 511.581C158.815 706.654 317.161 864.792 512.492 864.792C595.869 864.826 676.577 835.399 740.364 781.706C804.151 728.014 846.914 653.509 861.103 571.349C861.703 566.827 862.182 562.282 862.711 557.722C869.742 497.145 861.931 433.475 839.771 380.233V380.233Z" fill="url(#paint4_radial_1112_1697)"/>
<path d="M162.085 519.959C189.374 681.033 335.554 804.011 501.5 808.704C655.086 813.047 753.211 724.007 793.74 637.14C819.937 580.987 838.116 489.114 804.746 398.754L804.734 398.716L804.687 398.372C804.65 398.112 804.627 397.956 804.634 398.04C804.634 398.099 804.656 398.24 804.703 398.628C817.247 480.446 775.579 559.708 710.44 613.301C710.324 613.579 710.245 613.761 710.245 613.761C583.321 716.985 461.865 676.041 437.273 659.28C435.546 658.451 433.831 657.597 432.128 656.718C358.13 621.396 327.559 554.06 334.114 496.313C271.631 496.313 250.326 443.676 250.326 443.676C250.326 443.676 306.424 403.724 380.36 438.471C448.835 470.653 513.145 443.679 513.152 443.676C513.02 440.807 451.465 416.351 427.467 392.735C414.644 380.115 408.556 374.032 403.164 369.468C400.238 367 397.18 364.694 394.003 362.559C391.577 360.917 389.133 359.3 386.672 357.709C360.877 340.963 309.576 341.886 307.882 341.928H307.717C293.697 324.192 294.686 265.68 295.486 253.463C295.317 252.705 285.026 258.799 283.678 259.716C271.304 268.539 259.734 278.439 249.106 289.301C237.015 301.545 225.967 314.778 216.077 328.86C216.077 328.878 216.067 328.897 216.061 328.915C216.061 328.897 216.071 328.878 216.077 328.859C193.338 361.041 177.208 397.414 168.621 435.872C168.45 436.647 155.889 491.506 162.085 519.959V519.959Z" fill="url(#paint5_radial_1112_1697)"/>
<path d="M637.261 380.575C650.163 393.225 661.216 407.631 670.094 423.369C672.042 424.83 673.859 426.287 675.404 427.708C755.583 501.5 713.575 605.868 710.439 613.301C775.578 559.708 817.245 480.446 804.702 398.628C764.709 299.066 696.896 258.918 641.514 171.505C638.714 167.085 635.915 162.653 633.184 157.981C631.792 155.597 630.493 153.159 629.29 150.674C626.993 146.237 625.222 141.548 624.011 136.701C624.02 136.471 623.942 136.247 623.794 136.071C623.645 135.896 623.436 135.782 623.209 135.753C622.991 135.691 622.761 135.691 622.544 135.753C622.494 135.77 622.421 135.828 622.368 135.848C622.29 135.879 622.191 135.95 622.109 135.995C608.43 142.504 527.32 270.779 637.261 380.575V380.575Z" fill="url(#paint6_linear_1112_1697)"/>
<path d="M501.206 332.143L548.032 335.123L576.471 345.239L600.173 354.542L627.47 374.031L653.184 401.133L662.117 417.989C663.317 418.724 665.792 420.32 667.897 421.749C668.669 422.29 669.367 422.829 670.102 423.366C661.224 407.629 650.171 393.222 637.269 380.572C527.32 270.779 608.43 142.504 622.112 135.984C622.152 135.931 622.234 135.812 622.259 135.784C533.414 187.756 503.274 283.896 500.505 331.997L500.492 332.266L501.206 332.143Z" fill="url(#paint7_linear_1112_1697)"/>
<path d="M386.671 357.717C389.134 359.304 391.578 360.921 394.001 362.568C385.94 334.4 385.597 304.582 393.009 276.236C356.678 292.76 328.417 318.879 307.875 341.943C309.574 341.895 360.876 340.972 386.671 357.717Z" fill="url(#paint8_radial_1112_1697)"/>
<path d="M353.714 543.531C353.714 543.531 370.046 482.762 470.62 482.762C481.498 482.762 512.573 452.466 513.147 443.676C513.147 443.676 448.836 470.65 380.365 438.472C306.426 403.722 250.346 443.676 250.346 443.676C250.346 443.676 271.661 496.315 334.134 496.315C327.593 554.056 358.154 621.395 432.152 656.718C433.813 657.512 435.371 658.364 437.061 659.129C393.844 636.829 358.183 594.7 353.714 543.531Z" fill="url(#paint9_radial_1112_1697)"/>
<path d="M675.404 427.708C673.859 426.286 672.042 424.83 670.094 423.368C669.374 422.829 668.669 422.289 667.889 421.751C649.005 408.501 615.19 395.414 582.611 401.073C709.823 464.595 675.671 683.34 499.395 675.075C483.698 674.436 468.186 671.448 453.375 666.211C449.872 664.896 446.408 663.482 442.987 661.969C440.99 661.059 438.997 660.141 437.026 659.123C437.096 659.173 437.193 659.227 437.265 659.27C461.856 676.027 583.312 716.975 710.238 613.751C710.238 613.751 710.317 613.569 710.433 613.291C713.574 605.87 755.583 501.5 675.404 427.708V427.708Z" fill="url(#paint10_radial_1112_1697)"/>
<path d="M839.741 380.218C824.37 343.287 793.236 303.415 768.789 290.815C788.687 329.769 800.202 368.858 804.603 398.025C804.603 398.084 804.625 398.225 804.672 398.613C764.686 299.051 696.865 258.903 641.484 171.49C638.691 167.069 635.885 162.638 633.153 157.967C631.762 155.582 630.463 153.144 629.26 150.66C626.966 146.225 625.195 141.539 623.984 136.695C623.993 136.465 623.915 136.241 623.766 136.065C623.617 135.89 623.408 135.777 623.18 135.748C622.964 135.686 622.734 135.686 622.517 135.748C622.467 135.766 622.394 135.823 622.341 135.844C622.263 135.875 622.165 135.945 622.082 135.991C622.121 135.938 622.204 135.819 622.229 135.791C533.385 187.763 503.261 284.187 500.491 332.288L501.209 332.159L548.034 335.139L574.388 344.512L600.175 354.558L627.473 374.047L653.156 401.134C653.156 401.134 661.996 417.725 662.123 418.005C641.626 405.814 611.838 395.992 582.598 401.072C709.81 464.594 675.658 683.339 499.382 675.073C483.68 674.433 468.163 671.442 453.348 666.199C449.845 664.886 446.381 663.472 442.96 661.958C440.964 661.049 438.97 660.13 436.999 659.113C437.07 659.163 437.167 659.217 437.239 659.267C435.512 658.437 433.797 657.583 432.094 656.705C433.748 657.494 435.303 658.356 437.001 659.113C393.807 636.818 358.143 594.681 353.688 543.513C353.688 543.513 370.013 482.754 470.585 482.754C481.463 482.754 512.541 452.452 513.118 443.663C512.986 440.794 451.43 416.338 427.433 392.721C414.61 380.102 408.522 374.019 403.13 369.455C400.204 366.987 397.146 364.68 393.969 362.546C385.907 334.377 385.565 304.56 392.977 276.214C356.645 292.737 328.385 318.857 307.841 341.921H307.678C293.657 324.184 294.647 265.672 295.445 253.456C295.277 252.697 284.986 258.792 283.637 259.709C271.266 268.529 259.7 278.426 249.073 289.284C236.983 301.529 225.936 314.761 216.046 328.843C216.042 328.861 216.037 328.879 216.03 328.897C216.037 328.879 216.042 328.86 216.046 328.841C193.308 361.024 177.178 397.397 168.59 435.855C168.421 436.62 168.278 437.414 168.112 438.186C167.448 441.296 164.455 457.078 164.037 460.465C164.005 460.723 164.068 460.204 164.037 460.465C161.307 476.773 159.566 493.232 158.822 509.751C158.822 510.354 158.784 510.951 158.784 511.555C158.784 706.626 317.131 864.765 512.457 864.765C595.833 864.801 676.54 835.375 740.328 781.685C804.115 727.995 846.881 653.493 861.073 571.334C861.673 566.812 862.152 562.267 862.682 557.707C869.711 497.13 861.901 433.46 839.741 380.218V380.218ZM804.656 398.357C804.674 398.484 804.696 398.613 804.715 398.739L804.702 398.701C804.686 398.579 804.669 398.47 804.656 398.357V398.357Z" fill="url(#paint11_linear_1112_1697)"/>
<path d="M513.146 443.679C513.146 443.679 511.647 444.307 508.883 445.254C501.975 456.929 477.413 479.21 468.018 479.173C367.446 478.732 350.862 538.834 350.862 538.834C352.697 559.376 359.454 579.172 370.56 596.55C361.169 580.306 355.423 562.215 353.72 543.529C353.72 543.529 370.045 482.77 470.619 482.77C481.496 482.77 512.573 452.468 513.152 443.679H513.146Z" fill="url(#paint12_linear_1112_1697)"/>
<path d="M804.746 398.751L804.733 398.716C804.715 398.595 804.702 398.485 804.684 398.373C804.674 398.261 804.658 398.15 804.636 398.04C804.651 398.236 804.673 398.432 804.702 398.627C802.328 392.729 799.795 386.896 797.105 381.135C796.205 379.203 795.24 377.397 794.312 375.511C792.548 371.887 790.784 368.257 788.936 364.79C787.797 362.65 786.599 360.62 785.433 358.537C783.724 355.486 782.029 352.415 780.267 349.473C778.974 347.323 777.64 345.263 776.327 343.167C774.609 340.43 772.896 337.684 771.134 335.032C769.74 332.932 768.311 330.897 766.891 328.847C765.138 326.314 763.384 323.778 761.599 321.309C760.118 319.27 758.612 317.277 757.113 315.282C755.334 312.902 753.534 310.538 751.714 308.189C750.157 306.196 748.589 304.22 747.01 302.261C745.186 299.987 743.348 297.723 741.496 295.471C739.885 293.522 738.265 291.58 736.635 289.646C735.753 288.596 734.871 287.519 733.989 286.472C734.371 286.926 734.74 287.398 735.12 287.857C704.477 251.709 671.22 218.395 641.521 171.509C638.716 167.091 635.918 162.659 633.189 157.986C631.797 155.602 630.498 153.164 629.295 150.678C627.295 146.705 625.666 142.554 624.43 138.281C624.368 138.053 624.256 137.706 624.217 137.533C624.096 137.065 624.021 136.709 624.021 136.709C624.029 136.48 623.95 136.255 623.801 136.08C623.652 135.905 623.444 135.791 623.216 135.761C622.999 135.701 622.77 135.701 622.553 135.761C622.503 135.779 622.428 135.838 622.373 135.86C622.319 135.882 622.2 135.958 622.116 135.998C621.339 136.433 620.618 136.963 619.97 137.574C619.797 137.724 619.627 137.876 619.458 138.031C618.472 138.962 617.538 139.947 616.661 140.981C616.626 141.021 616.598 141.043 616.563 141.083C616.571 141.074 616.58 141.074 616.589 141.065C595.4 165.972 541.289 274.22 628.496 371.313C546.85 275.258 598.3 171.45 620.661 144.256C621.85 147.919 623.307 151.49 625.018 154.94C626.223 157.424 627.522 159.861 628.912 162.247C631.64 166.924 634.44 171.361 637.243 175.771C692.624 263.184 760.435 303.333 800.429 402.895C800.402 402.699 800.38 402.503 800.362 402.307C800.386 402.417 800.402 402.528 800.411 402.641C800.429 402.752 800.442 402.864 800.459 402.983L800.474 403.02C833.842 493.378 815.663 585.258 789.467 641.405C775.406 671.225 756.413 698.459 733.289 721.959C758.332 697.514 778.804 668.79 793.74 637.142C819.936 580.991 838.113 489.111 804.746 398.751V398.751Z" fill="url(#paint13_linear_1112_1697)"/>
<path d="M622.112 135.984C622.152 135.931 622.234 135.812 622.259 135.784C542.227 182.601 509.836 265.251 502.173 316.348C510.975 269.139 541.236 197.027 609.054 151.501C614.636 142.687 619.554 137.208 622.112 135.984V135.984Z" fill="url(#paint14_linear_1112_1697)"/>
<path d="M710.244 613.761C710.244 613.761 710.323 613.579 710.439 613.301C713.575 605.87 755.583 501.5 675.404 427.708C673.859 426.286 672.042 424.83 670.094 423.368C669.374 422.829 668.669 422.289 667.89 421.751C649.64 408.947 617.446 396.298 585.901 400.569L585.824 400.578C584.753 400.725 583.682 400.89 582.611 401.073C708.389 463.879 676.414 678.416 505.298 675.264C505.763 675.286 506.229 675.323 506.692 675.342C680.161 682.131 714.337 469.416 593.818 402.727C619.936 402.471 645.199 412.009 660.8 422.069C661.592 422.579 662.32 423.089 663.059 423.601C665.063 424.984 666.936 426.369 668.535 427.73C751.548 498.329 713.657 604.258 710.815 611.81C710.757 611.966 710.698 612.122 710.639 612.278" fill="url(#paint15_linear_1112_1697)"/>
<path d="M381.305 442C439.192 467.078 492.92 451.144 509.192 445.146C494.199 450.32 438.796 465.931 380.365 438.473C313.893 407.236 261.856 436.356 252.007 442.559L251.537 442.853L251.155 443.103L250.861 443.294L250.67 443.412L250.537 443.5L250.714 443.882L250.92 444.338V444.426L251.228 445.087C251.728 446.146 252.492 447.66 253.551 449.497C261.4 463.388 285.052 495.992 334.237 495.992C327.887 552.013 356.463 617.044 425.728 653.131C359.579 614.912 331.65 545.824 339.441 490.715C288.345 489.363 265.487 458.729 258.96 445.749C277.541 435.9 324.712 417.481 381.305 442Z" fill="url(#paint16_linear_1112_1697)"/>
<path d="M393.947 362.365C393.39 362.039 392.814 361.703 392.218 361.36C392.834 361.771 393.428 362.172 394.001 362.562C393.982 362.496 393.962 362.431 393.947 362.365V362.365ZM393.584 361.068C385.939 333.331 385.741 304.068 393.009 276.229C358.568 291.893 331.393 316.177 311.156 338.31C330.427 319.539 355.391 299.396 385.798 285.595C383.916 300.031 382.295 329.585 393.584 361.068Z" fill="url(#paint17_linear_1112_1697)"/>
<path d="M170.613 556.981C170.514 556.644 170.427 556.306 170.332 555.968C166.901 544.13 164.148 532.106 162.085 519.954C159.387 507.562 160.248 490.164 162.085 474.404C160.72 482.585 159.864 490.899 158.851 509.773C158.851 510.376 158.815 510.973 158.815 511.577C158.815 665.951 257.99 797.173 396.167 845.216C276.388 799.346 187.652 689.572 170.613 556.981Z" fill="url(#paint18_linear_1112_1697)"/>
<path d="M167.781 521.383C161.587 492.93 174.148 438.071 174.317 437.301C182.904 398.843 199.034 362.47 221.773 330.288L221.757 330.344C221.757 330.326 221.767 330.307 221.773 330.289C231.664 316.207 242.712 302.975 254.803 290.73C265.43 279.871 276.996 269.974 289.366 261.154C289.857 260.833 290.355 260.522 290.858 260.222C290.736 287.093 292.261 332.433 304.71 347.298H304.873C306.578 347.21 358.052 344.939 384.386 361.001C386.898 362.524 389.394 364.075 391.871 365.652C395.115 367.701 398.245 369.925 401.247 372.314C406.78 376.736 413.051 382.657 426.254 394.935C445.363 412.709 487.046 430.392 505.044 438.817C487.509 429.984 446.132 411.111 427.468 392.744C414.646 380.124 408.557 374.041 403.165 369.477C400.24 367.009 397.182 364.703 394.004 362.568C391.578 360.925 389.134 359.308 386.674 357.717C360.879 340.972 309.577 341.893 307.884 341.937H307.719C294.904 325.727 294.629 275.474 295.286 257.617C295.312 256.929 295.339 256.294 295.365 255.706L295.396 255.076C295.405 254.901 295.414 254.727 295.423 254.552C295.445 254.167 295.465 253.795 295.487 253.473C295.477 253.428 295.426 253.41 295.348 253.412C295.321 253.412 295.277 253.425 295.243 253.429C295.168 253.44 295.094 253.457 295.021 253.479C294.964 253.495 294.894 253.523 294.827 253.547C294.633 253.614 294.441 253.691 294.254 253.778L293.91 253.934C293.666 254.047 293.423 254.165 293.182 254.286L292.742 254.508L292.381 254.696L291.854 254.973L291.56 255.133C288.442 256.81 284.485 259.181 283.684 259.727C271.308 268.545 259.737 278.442 249.106 289.301C237.015 301.546 225.967 314.778 216.077 328.861C216.077 328.878 216.067 328.897 216.061 328.915C216.061 328.897 216.071 328.878 216.077 328.859C193.338 361.041 177.208 397.414 168.621 435.872C168.45 436.638 155.889 491.497 162.085 519.954C185.311 657.03 294.641 766.497 428.976 798.971C297.256 764.818 190.676 656.515 167.781 521.383V521.383Z" fill="url(#paint19_linear_1112_1697)"/>
<path d="M839.771 380.233C826.209 347.648 800.376 312.786 777.693 296.374L777.068 295.933C776.365 295.435 775.666 294.954 774.969 294.49C774.704 294.313 774.44 294.139 774.175 293.966C773.514 293.54 772.856 293.132 772.204 292.741C771.951 292.594 771.697 292.429 771.444 292.282C770.58 291.778 769.705 291.295 768.818 290.833C769.774 292.702 770.693 294.572 771.611 296.442C772.178 297.603 772.74 298.766 773.299 299.93C790.45 335.819 800.577 371.147 804.634 398.043C804.634 398.102 804.656 398.243 804.703 398.631C817.246 480.449 775.579 559.711 710.44 613.304C710.324 613.582 710.245 613.764 710.245 613.764C629.279 679.619 550.545 686.789 497.754 679.006C550.358 688.831 633.333 684.689 718.791 615.189L718.987 614.729C784.124 561.135 825.793 481.872 813.25 400.055C813.223 399.86 813.2 399.664 813.181 399.467C809.578 375.592 801.187 345.071 787.353 313.416C802.84 329.82 815.869 348.38 826.037 368.519C851.095 419.615 862.402 481.765 858.721 541.704C858.445 546.217 858.217 550.712 857.869 555.189C838.659 720.56 700.631 853.361 525.976 863.147C502.665 864.461 479.281 863.51 456.153 860.31C474.784 863.292 493.623 864.79 512.492 864.792C687.418 864.792 832.668 737.953 861.103 571.349C861.703 566.827 862.182 562.282 862.711 557.722C869.742 497.145 861.93 433.475 839.771 380.233V380.233ZM804.744 398.754L804.733 398.716L804.686 398.372C804.703 398.499 804.725 398.628 804.744 398.754V398.754Z" fill="url(#paint20_linear_1112_1697)"/>
</g>
<defs>
<filter id="filter0_dii_1112_1697" x="32" y="28" width="985" height="989" filterUnits="userSpaceOnUse" color-interpolation-filters="sRGB">
<feFlood flood-opacity="0" result="BackgroundImageFix"/>
<feColorMatrix in="SourceAlpha" type="matrix" values="0 0 0 0 0 0 0 0 0 0 0 0 0 0 0 0 0 0 127 0" result="hardAlpha"/>
<feOffset dx="15" dy="15"/>
<feGaussianBlur stdDeviation="5"/>
<feColorMatrix type="matrix" values="0 0 0 0 0 0 0 0 0 0 0 0 0 0 0 0 0 0 0.39 0"/>
<feBlend mode="normal" in2="BackgroundImageFix" result="effect1_dropShadow_1112_1697"/>
<feBlend mode="normal" in="SourceGraphic" in2="effect1_dropShadow_1112_1697" result="shape"/>
<feColorMatrix in="SourceAlpha" type="matrix" values="0 0 0 0 0 0 0 0 0 0 0 0 0 0 0 0 0 0 127 0" result="hardAlpha"/>
<feOffset dy="15"/>
<feGaussianBlur stdDeviation="1"/>
<feComposite in2="hardAlpha" operator="arithmetic" k2="-1" k3="1"/>
<feColorMatrix type="matrix" values="0 0 0 0 0.360784 0 0 0 0 0.364706 0 0 0 0 0.341176 0 0 0 1 0"/>
<feBlend mode="normal" in2="shape" result="effect2_innerShadow_1112_1697"/>
<feColorMatrix in="SourceAlpha" type="matrix" values="0 0 0 0 0 0 0 0 0 0 0 0 0 0 0 0 0 0 127 0" result="hardAlpha"/>
<feOffset dy="-15"/>
<feGaussianBlur stdDeviation="2"/>
<feComposite in2="hardAlpha" operator="arithmetic" k2="-1" k3="1"/>
<feColorMatrix type="matrix" values="0 0 0 0 0.0735022 0 0 0 0 0.0769231 0 0 0 0 0.0632396 0 0 0 1 0"/>
<feBlend mode="normal" in2="effect2_innerShadow_1112_1697" result="effect3_innerShadow_1112_1697"/>
</filter>
<linearGradient id="paint0_linear_1112_1697" x1="512" y1="32" x2="512" y2="992" gradientUnits="userSpaceOnUse">
<stop stop-color="#32342C"/>
</linearGradient>
<radialGradient id="paint1_radial_1112_1697" cx="0" cy="0" r="1" gradientUnits="userSpaceOnUse" gradientTransform="translate(530.775 417.554) scale(206.778 206.697)">
<stop stop-color="#F3F3F3" stop-opacity="0.41"/>
<stop offset="0.504808" stop-opacity="0.4"/>
</radialGradient>
<radialGradient id="paint2_radial_1112_1697" cx="0" cy="0" r="1" gradientUnits="userSpaceOnUse" gradientTransform="translate(510.917 512.979) scale(175.761 175.692)">
<stop stop-opacity="0"/>
<stop offset="1" stop-opacity="0.35"/>
</radialGradient>
<radialGradient id="paint3_radial_1112_1697" cx="0" cy="0" r="1" gradientUnits="userSpaceOnUse" gradientTransform="translate(648.393 216.215) scale(734.776 734.671)">
<stop stop-color="white"/>
<stop offset="0.26" stop-color="#DADADA" stop-opacity="0.8"/>
<stop offset="0.53" stop-color="#A9A9A9"/>
<stop offset="0.86" stop-color="#626262"/>
</radialGradient>
<radialGradient id="paint4_radial_1112_1697" cx="0" cy="0" r="1" gradientUnits="userSpaceOnUse" gradientTransform="translate(428.598 520.414) scale(734.776 734.671)">
<stop offset="0.3" stop-color="#32342C" stop-opacity="0.75"/>
<stop offset="0.37" stop-color="#32342C" stop-opacity="0.42"/>
<stop offset="0.48" stop-color="#5C5D57" stop-opacity="0.49"/>
<stop offset="0.53" stop-color="#5C5D57" stop-opacity="0.08"/>
</radialGradient>
<radialGradient id="paint5_radial_1112_1697" cx="0" cy="0" r="1" gradientUnits="userSpaceOnUse" gradientTransform="translate(656.556 -24.3313) scale(1166.63 1166.46)">
<stop stop-color="white"/>
<stop offset="0.47" stop-color="#BABABA"/>
<stop offset="0.84" stop-color="#767676"/>
<stop offset="1" stop-color="#515151"/>
</radialGradient>
<linearGradient id="paint6_linear_1112_1697" x1="675.585" y1="87.9465" x2="852.935" y2="636.757" gradientUnits="userSpaceOnUse">
<stop stop-color="white"/>
<stop offset="0.29" stop-color="white"/>
<stop offset="0.61" stop-color="#C5C5C5"/>
<stop offset="0.89" stop-color="#595959"/>
</linearGradient>
<linearGradient id="paint7_linear_1112_1697" x1="564.944" y1="135.784" x2="678.528" y2="468.053" gradientUnits="userSpaceOnUse">
<stop stop-color="white"/>
<stop offset="0.29" stop-color="#DFDFDF"/>
<stop offset="0.74" stop-color="#898989"/>
<stop offset="1" stop-color="#474747"/>
</linearGradient>
<radialGradient id="paint8_radial_1112_1697" cx="0" cy="0" r="1" gradientUnits="userSpaceOnUse" gradientTransform="translate(487.018 186.317) scale(258.38 258.339)">
<stop stop-color="#989898"/>
<stop offset="0.82" stop-color="#747474"/>
</radialGradient>
<radialGradient id="paint9_radial_1112_1697" cx="0" cy="0" r="1" gradientUnits="userSpaceOnUse" gradientTransform="translate(602.441 318.584) scale(735.126 735.106)">
<stop offset="0.29" stop-color="#939393"/>
<stop offset="1" stop-color="#4C4C4C"/>
</radialGradient>
<radialGradient id="paint10_radial_1112_1697" cx="0" cy="0" r="1" gradientUnits="userSpaceOnUse" gradientTransform="translate(473.703 278.546) scale(648.254 648.14)">
<stop offset="0.18" stop-color="white"/>
<stop offset="0.43" stop-color="#B7B7B7"/>
<stop offset="0.69" stop-color="#606060"/>
</radialGradient>
<linearGradient id="paint11_linear_1112_1697" x1="766.289" y1="245.061" x2="284.672" y2="732.92" gradientUnits="userSpaceOnUse">
<stop offset="0.24" stop-color="#C5C5C5" stop-opacity="0.49"/>
<stop offset="0.7" stop-color="white" stop-opacity="0.04"/>
</linearGradient>
<linearGradient id="paint12_linear_1112_1697" x1="449.859" y1="428.392" x2="390.402" y2="673.176" gradientUnits="userSpaceOnUse">
<stop stop-color="white" stop-opacity="0.9"/>
<stop offset="1" stop-color="#B3B3B3" stop-opacity="0.54"/>
</linearGradient>
<linearGradient id="paint13_linear_1112_1697" x1="704.09" y1="123.991" x2="661.642" y2="948.784" gradientUnits="userSpaceOnUse">
<stop stop-color="#FDFDFD"/>
<stop offset="1" stop-color="#686868"/>
</linearGradient>
<linearGradient id="paint14_linear_1112_1697" x1="564.618" y1="128.561" x2="551.063" y2="393.605" gradientUnits="userSpaceOnUse">
<stop stop-color="#F0F0F0"/>
<stop offset="1" stop-color="#8F8F8F"/>
</linearGradient>
<linearGradient id="paint15_linear_1112_1697" x1="621.326" y1="394.208" x2="600.503" y2="790.924" gradientUnits="userSpaceOnUse">
<stop stop-color="#FEFEFE"/>
<stop offset="1" stop-color="#32342C"/>
</linearGradient>
<linearGradient id="paint16_linear_1112_1697" x1="377.278" y1="419.692" x2="393.493" y2="706.023" gradientUnits="userSpaceOnUse">
<stop stop-color="white" stop-opacity="0.8"/>
<stop offset="1" stop-color="#3A3C31" stop-opacity="0.2"/>
</linearGradient>
<linearGradient id="paint17_linear_1112_1697" x1="408.085" y1="256.373" x2="326.349" y2="383.725" gradientUnits="userSpaceOnUse">
<stop stop-color="white" stop-opacity="0.8"/>
<stop offset="1" stop-color="#5C5D57" stop-opacity="0.25"/>
</linearGradient>
<linearGradient id="paint18_linear_1112_1697" x1="282.238" y1="470.696" x2="253.327" y2="981.451" gradientUnits="userSpaceOnUse">
<stop stop-color="white"/>
<stop offset="1" stop-color="#C4C4C4" stop-opacity="0"/>
</linearGradient>
<linearGradient id="paint19_linear_1112_1697" x1="332.707" y1="187.944" x2="332.707" y2="793.515" gradientUnits="userSpaceOnUse">
<stop stop-color="#F5F5F5"/>
<stop offset="1" stop-color="#656565" stop-opacity="0"/>
</linearGradient>
<linearGradient id="paint20_linear_1112_1697" x1="672.956" y1="273.614" x2="624.716" y2="1104.48" gradientUnits="userSpaceOnUse">
<stop stop-color="white" stop-opacity="0.8"/>
<stop offset="1" stop-color="#8F8F8F" stop-opacity="0"/>
</linearGradient>
<clipPath id="clip0_1112_1697">
<rect width="752.621" height="752.621" fill="white" transform="translate(135.689 135.689)"/>
</clipPath>
</defs>
</svg>
