<svg width="1024" height="1024" viewBox="0 0 1024 1024" fill="none" xmlns="http://www.w3.org/2000/svg">
<g filter="url(#filter0_dii_1119_2273)">
<path fill-rule="evenodd" clip-rule="evenodd" d="M992 330.983C992 319.587 992.005 308.189 991.935 296.791C991.878 287.19 991.767 277.591 991.506 267.995C990.942 247.079 989.708 225.983 985.988 205.3C982.216 184.319 976.055 164.792 966.347 145.728C956.803 126.991 944.336 109.845 929.461 94.98C914.589 80.1152 897.438 67.6562 878.694 58.118C859.611 48.4073 840.062 42.2489 819.058 38.4776C798.373 34.7635 777.271 33.532 756.355 32.967C746.752 32.7072 737.149 32.5977 727.543 32.5383C716.139 32.4683 704.736 32.4742 693.333 32.4742L560.928 32H461.9L331.838 32.4742C320.413 32.4742 308.987 32.4683 297.562 32.5383C287.936 32.5977 278.315 32.7072 268.693 32.967C247.728 33.532 226.579 34.7646 205.845 38.4835C184.812 42.2536 165.235 48.4096 146.126 58.1133C127.342 67.6527 110.154 80.1128 95.2512 94.98C80.3503 109.844 67.8599 126.986 58.2984 145.72C48.5634 164.793 42.391 184.332 38.6093 205.325C34.8858 226 33.652 247.088 33.0847 267.995C32.826 277.593 32.7142 287.191 32.6559 296.791C32.586 308.19 32 322.349 32 333.746L32.0035 462.006L32 562.095L32.5918 693.08C32.5918 704.493 32.5872 715.905 32.6559 727.318C32.7142 736.932 32.826 746.544 33.0858 756.154C33.652 777.097 34.8881 798.223 38.6151 818.934C42.3957 839.943 48.5669 859.498 58.2938 878.587C67.8564 897.351 80.3492 914.519 95.2512 929.405C110.153 944.29 127.336 956.766 146.117 966.318C165.237 976.041 184.824 982.208 205.869 985.984C226.594 989.704 247.736 990.938 268.693 991.503C278.315 991.762 287.937 991.873 297.563 991.931C308.988 992.001 320.413 991.997 331.838 991.997L463.075 992H562.35L693.333 991.995C704.736 991.995 716.139 992.001 727.543 991.931C737.149 991.873 746.752 991.762 756.355 991.503C777.28 990.936 798.388 989.701 819.082 985.979C840.074 982.203 859.613 976.039 878.686 966.321C897.434 956.77 914.588 944.293 929.461 929.405C944.334 914.521 956.799 897.355 966.343 878.595C976.058 859.497 982.218 839.933 985.993 818.909C989.709 798.207 990.942 777.089 991.507 756.154C991.767 746.543 991.878 736.931 991.935 727.318C992.006 715.905 992 704.493 992 693.08C992 693.08 991.993 564.408 991.993 562.095V461.901C991.993 460.193 992 330.983 992 330.983" fill="url(#paint0_linear_1119_2273)"/>
</g>
<g filter="url(#filter1_f_1119_2273)">
<path d="M686.143 818.375C681.753 850.451 650.184 875.605 618.614 866.826C573.877 854.671 522.049 835.426 475.454 831.88L403.874 826.478C392.375 825.669 381.568 820.686 373.487 812.466L250.247 686.188C243.702 679.461 239.333 670.921 237.707 661.678C236.081 652.435 237.274 642.916 241.131 634.36C241.131 634.36 317.1 467.902 320.139 459.293C322.84 450.683 333.307 375.051 339.385 334.534C341.089 323.776 346.456 313.936 354.579 306.679L500.102 176.349C504.897 172.048 510.52 168.772 516.626 166.723C522.732 164.673 529.193 163.893 535.611 164.431C542.03 164.969 548.271 166.812 553.951 169.849C559.631 172.885 564.631 177.05 568.643 182.089L691.207 336.729C698.066 345.56 701.752 356.442 701.674 367.623C701.674 396.829 704.207 457.098 720.582 495.927C736.831 530.848 756.994 563.81 780.682 594.181C783.551 597.905 785.244 602.4 785.545 607.091C785.845 611.782 784.74 616.457 782.371 620.517C771.735 638.58 750.464 673.357 720.582 717.757C701.665 748.285 689.839 782.669 685.974 818.375H686.143Z" fill="black" fill-opacity="0.3"/>
</g>
<path d="M687.325 812.971C682.935 845.216 651.366 870.37 619.796 861.76C575.228 849.437 523.568 830.191 476.805 826.646L405.394 821.243C393.868 820.404 383.053 815.357 375.006 807.062L251.767 680.447C245.158 673.653 240.753 665.024 239.127 655.687C237.5 646.351 238.728 636.74 242.651 628.112C242.651 628.112 318.789 460.98 321.659 452.201C324.529 443.591 334.827 367.791 340.904 326.936C342.571 316.117 347.941 306.212 356.098 298.912L501.622 168.076C506.427 163.784 512.059 160.52 518.172 158.485C524.284 156.449 530.749 155.684 537.168 156.238C543.586 156.791 549.824 158.651 555.499 161.702C561.173 164.754 566.163 168.934 570.163 173.984L692.558 329.299C699.393 338.143 703.077 349.017 703.025 360.194C703.025 389.569 705.557 450.006 721.764 489.004C738.001 524.089 758.163 557.221 781.864 587.764C784.795 591.487 786.539 596.005 786.87 600.731C787.201 605.457 786.104 610.174 783.721 614.269C772.917 632.502 751.814 667.279 721.764 712.016C702.916 742.686 691.15 777.176 687.325 812.971Z" fill="white"/>
<path d="M388.174 816.517C445.404 700.537 443.885 617.308 419.406 558.221C397.121 503.523 355.423 469.083 322.671 447.643C321.996 450.851 320.983 453.889 319.633 456.759L242.65 628.113C238.749 636.757 237.549 646.377 239.205 655.715C240.862 665.052 245.299 673.672 251.935 680.447L375.006 807.063C378.889 810.946 383.447 814.153 388.174 816.517Z" fill="url(#paint1_radial_1119_2273)"/>
<path d="M543.827 581.18C559.19 582.699 574.215 586.076 589.071 591.478C636.003 609.035 678.715 648.539 713.998 724.678C716.531 720.288 719.063 716.068 721.764 712.016C743.327 680.019 763.987 647.424 783.721 614.269C786.128 610.19 787.253 605.483 786.952 600.757C786.651 596.031 784.938 591.504 782.033 587.764C758.273 557.229 738.054 524.097 721.764 489.004C705.557 450.175 703.194 389.568 703.025 360.193C703.025 349.051 699.48 338.078 692.558 329.299L570.163 173.984L568.137 171.452C577.085 200.995 576.578 224.63 571.007 246.07C565.943 265.991 556.489 284.055 546.528 303.132C543.152 309.547 539.775 316.131 536.568 322.884C520.691 353.206 511.59 386.615 509.894 420.8C508.206 461.655 516.478 512.807 543.658 581.18H543.827Z" fill="url(#paint2_radial_1119_2273)"/>
<path d="M543.658 581.181C516.478 512.808 508.206 461.656 509.894 420.801C511.582 380.284 523.4 349.896 536.568 322.885L546.697 303.133C556.489 284.056 565.774 265.992 571.007 246.071C577.223 221.438 576.226 195.536 568.137 171.453C559.74 162.226 548.035 156.693 535.575 156.061C523.115 155.428 510.91 159.747 501.622 168.076L356.098 298.912C347.941 306.213 342.571 316.118 340.904 326.937L323.178 444.436C323.178 445.618 322.84 446.631 322.672 447.812C355.423 469.084 396.953 503.523 419.406 558.052C423.795 568.857 427.509 580.168 430.211 592.492C467.102 582.261 505.465 578.379 543.658 581.012V581.181Z" fill="url(#paint3_radial_1119_2273)"/>
<path d="M619.965 861.761C651.366 870.371 682.935 845.217 687.324 812.803C690.919 782.057 700.011 752.208 714.167 724.679C678.715 648.541 636.003 609.036 589.24 591.479C539.437 572.909 485.246 579.155 430.21 592.492C442.534 648.372 435.275 721.471 388.343 816.517C393.576 819.218 399.485 820.738 405.394 821.244L479.506 826.815C519.685 829.685 579.617 850.45 619.965 861.761Z" fill="url(#paint4_radial_1119_2273)"/>
<path fill-rule="evenodd" clip-rule="evenodd" d="M510.232 418.269C508.375 458.786 513.439 505.043 540.619 573.246L532.178 572.402C507.699 501.329 502.297 464.863 504.154 423.84C505.842 382.816 519.179 351.247 532.347 324.236C535.724 317.483 543.489 304.821 546.866 298.406C556.657 279.329 563.241 269.369 568.813 251.98C576.916 227.67 575.228 216.19 574.215 204.71C580.461 246.072 556.657 282.03 538.762 318.665C522.195 349.437 512.409 383.399 510.063 418.269H510.232Z" fill="url(#paint5_radial_1119_2273)"/>
<path fill-rule="evenodd" clip-rule="evenodd" d="M427.509 561.091C430.886 568.519 433.755 574.597 435.781 583.882L428.522 585.57C425.652 574.765 423.457 567 419.237 557.715C394.589 499.809 355.085 469.928 323.009 447.981C361.838 468.915 401.848 501.835 427.509 561.091Z" fill="url(#paint6_radial_1119_2273)"/>
<path fill-rule="evenodd" clip-rule="evenodd" d="M436.119 591.31C449.625 654.618 434.431 735.146 389.693 813.479C427.172 735.821 445.404 661.371 430.21 592.323L436.119 591.142V591.31Z" fill="url(#paint7_radial_1119_2273)"/>
<path fill-rule="evenodd" clip-rule="evenodd" d="M590.759 585.402C664.196 612.92 692.558 673.189 713.661 723.667C687.493 670.994 651.197 612.751 588.058 591.142C540.113 574.598 499.596 576.624 430.21 592.324L428.691 585.571C502.297 568.689 540.788 566.663 590.759 585.571V585.402Z" fill="url(#paint8_radial_1119_2273)"/>
<defs>
<filter id="filter0_dii_1119_2273" x="32" y="28" width="985" height="989" filterUnits="userSpaceOnUse" color-interpolation-filters="sRGB">
<feFlood flood-opacity="0" result="BackgroundImageFix"/>
<feColorMatrix in="SourceAlpha" type="matrix" values="0 0 0 0 0 0 0 0 0 0 0 0 0 0 0 0 0 0 127 0" result="hardAlpha"/>
<feOffset dx="15" dy="15"/>
<feGaussianBlur stdDeviation="5"/>
<feColorMatrix type="matrix" values="0 0 0 0 0 0 0 0 0 0 0 0 0 0 0 0 0 0 0.39 0"/>
<feBlend mode="normal" in2="BackgroundImageFix" result="effect1_dropShadow_1119_2273"/>
<feBlend mode="normal" in="SourceGraphic" in2="effect1_dropShadow_1119_2273" result="shape"/>
<feColorMatrix in="SourceAlpha" type="matrix" values="0 0 0 0 0 0 0 0 0 0 0 0 0 0 0 0 0 0 127 0" result="hardAlpha"/>
<feOffset dy="15"/>
<feGaussianBlur stdDeviation="1"/>
<feComposite in2="hardAlpha" operator="arithmetic" k2="-1" k3="1"/>
<feColorMatrix type="matrix" values="0 0 0 0 0.360784 0 0 0 0 0.364706 0 0 0 0 0.341176 0 0 0 1 0"/>
<feBlend mode="normal" in2="shape" result="effect2_innerShadow_1119_2273"/>
<feColorMatrix in="SourceAlpha" type="matrix" values="0 0 0 0 0 0 0 0 0 0 0 0 0 0 0 0 0 0 127 0" result="hardAlpha"/>
<feOffset dy="-15"/>
<feGaussianBlur stdDeviation="2"/>
<feComposite in2="hardAlpha" operator="arithmetic" k2="-1" k3="1"/>
<feColorMatrix type="matrix" values="0 0 0 0 0.0735022 0 0 0 0 0.0769231 0 0 0 0 0.0632396 0 0 0 1 0"/>
<feBlend mode="normal" in2="effect2_innerShadow_1119_2273" result="effect3_innerShadow_1119_2273"/>
</filter>
<filter id="filter1_f_1119_2273" x="224" y="151.266" width="574.593" height="730.327" filterUnits="userSpaceOnUse" color-interpolation-filters="sRGB">
<feFlood flood-opacity="0" result="BackgroundImageFix"/>
<feBlend mode="normal" in="SourceGraphic" in2="BackgroundImageFix" result="shape"/>
<feGaussianBlur stdDeviation="6.5" result="effect1_foregroundBlur_1119_2273"/>
</filter>
<linearGradient id="paint0_linear_1119_2273" x1="512" y1="32" x2="512" y2="992" gradientUnits="userSpaceOnUse">
<stop stop-color="#32342C"/>
</linearGradient>
<radialGradient id="paint1_radial_1119_2273" cx="0" cy="0" r="1" gradientTransform="matrix(-81.034 -312.319 207.65 -54.0227 381.927 805.206)" gradientUnits="userSpaceOnUse">
<stop stop-color="#636363" stop-opacity="0.4"/>
<stop offset="1" stop-opacity="0.1"/>
</radialGradient>
<radialGradient id="paint2_radial_1119_2273" cx="0" cy="0" r="1" gradientTransform="matrix(69.2166 -523.345 386.6 50.6463 656.431 672.85)" gradientUnits="userSpaceOnUse">
<stop stop-color="white" stop-opacity="0.6"/>
<stop offset="1" stop-color="#777777" stop-opacity="0.1"/>
</radialGradient>
<radialGradient id="paint3_radial_1119_2273" cx="0" cy="0" r="1" gradientTransform="matrix(96.2279 -440.622 300.501 65.8401 401.342 579.999)" gradientUnits="userSpaceOnUse">
<stop stop-color="white" stop-opacity="0.8"/>
<stop offset="1" stop-color="white" stop-opacity="0.4"/>
</radialGradient>
<radialGradient id="paint4_radial_1119_2273" cx="0" cy="0" r="1" gradientTransform="matrix(-133.368 -224.532 258.296 -151.939 622.328 863.45)" gradientUnits="userSpaceOnUse">
<stop stop-color="#919191" stop-opacity="0.3"/>
<stop offset="1" stop-opacity="0.3"/>
</radialGradient>
<radialGradient id="paint5_radial_1119_2273" cx="0" cy="0" r="1" gradientTransform="matrix(-48.958 229.596 -155.315 -33.7642 587.383 332.845)" gradientUnits="userSpaceOnUse">
<stop stop-color="white" stop-opacity="0"/>
<stop offset="1" stop-color="white" stop-opacity="0.2"/>
</radialGradient>
<radialGradient id="paint6_radial_1119_2273" cx="0" cy="0" r="1" gradientTransform="matrix(121.551 123.239 -261.672 258.296 312.373 459.967)" gradientUnits="userSpaceOnUse">
<stop stop-color="white" stop-opacity="0.2"/>
<stop offset="1" stop-color="white" stop-opacity="0.4"/>
</radialGradient>
<radialGradient id="paint7_radial_1119_2273" cx="0" cy="0" r="1" gradientTransform="matrix(33.7642 199.209 -423.74 72.593 442.872 541.846)" gradientUnits="userSpaceOnUse">
<stop stop-color="white" stop-opacity="0.1"/>
<stop offset="1" stop-color="white" stop-opacity="0.3"/>
</radialGradient>
<radialGradient id="paint8_radial_1119_2273" cx="0" cy="0" r="1" gradientTransform="matrix(-273.49 -143.498 452.44 -860.986 711.803 707.291)" gradientUnits="userSpaceOnUse">
<stop stop-color="white" stop-opacity="0.2"/>
<stop offset="0.5" stop-color="white" stop-opacity="0.2"/>
<stop offset="1" stop-color="white" stop-opacity="0.3"/>
</radialGradient>
</defs>
</svg>
