<svg width="1024" height="1024" viewBox="0 0 1024 1024" fill="none" xmlns="http://www.w3.org/2000/svg">
<path d="M304.78 574.705L333.465 654.234L376.569 712.39L477.77 731.692L526.184 735.81L608.835 715.162L644.441 681.032L304.78 574.705V574.705Z" fill="#32342C"/>
<path d="M733.065 457.395L722.933 423.779L693.962 369.11L660.821 334.181L625.64 309.063L595.092 297.073L558.439 284.035L498.088 280.194L460.033 287.062L428.982 296.607L373.885 328.852L339.45 367.267L307.698 418.836L295.207 462.721L292.873 529.306L304.78 574.705L331.044 626.391L349.569 651.356L375.183 674.838L407.174 696.48L446.622 713.637L512.638 721.385L547.11 722.346L598.127 707.976L643.729 682.949L673.067 657.92L695.817 630.779L727.98 567.82L735.081 524.752L733.065 457.395V457.395Z" fill="#32342C"/>
<path d="M499.193 310.45L472.166 337.265L516.253 355.136L549.049 314.467L499.193 310.45V310.45Z" fill="#BCC6D8"/>
<path d="M516.253 355.137L601.608 352.547L549.049 314.467L516.253 355.137Z" fill="#C2C9D7"/>
<path d="M595.267 314.181L549.049 314.467L601.608 352.547L650.21 349.373L595.267 314.181V314.181Z" fill="#B2B8C2"/>
<path d="M650.21 349.373L622.58 311.274L660.821 334.181L650.21 349.373V349.373Z" fill="#9DA2AA"/>
<path d="M686.799 372.705L650.21 349.374L660.821 334.182L686.799 372.705Z" fill="#9399A3"/>
<path d="M650.21 349.373L644.089 375.474L677.554 388.849L650.21 349.373Z" fill="#99A0AC"/>
<path d="M650.21 349.373L686.799 372.704L677.554 388.849L650.21 349.373Z" fill="#969DA8"/>
<path d="M601.607 352.546L650.21 349.373L644.089 375.474L601.607 352.546V352.546Z" fill="#A9B2C0"/>
<path d="M601.608 352.547L563.207 387.306L612.63 411.508L601.608 352.547V352.547Z" fill="#ACB4C8"/>
<path d="M516.253 355.137L601.608 352.547L563.207 387.306L516.253 355.137V355.137Z" fill="#BFC5D2"/>
<path d="M644.089 375.475L667.331 420.547L677.554 388.85L644.089 375.475V375.475Z" fill="#9FA5B1"/>
<path d="M667.331 420.547L677.554 388.85L701.904 446.764L667.331 420.547Z" fill="#9096A4"/>
<path d="M677.554 388.85L714.666 416.029L701.904 446.764L677.554 388.85V388.85Z" fill="#848B98"/>
<path d="M686.799 372.704L693.962 369.11L714.666 416.028L686.799 372.704V372.704Z" fill="#B3B5CD"/>
<path d="M714.666 416.028L722.933 423.779L693.962 369.11L714.666 416.028V416.028Z" fill="#32342C"/>
<path d="M714.666 416.026L686.799 372.704L677.554 388.855L714.666 416.026ZM660.821 334.183L686.799 372.706L693.962 369.106L660.821 334.183Z" fill="#70757D"/>
<path d="M731.203 483.662L722.933 423.779L733.065 457.396L731.068 483.662H731.203V483.662Z" fill="#32342C"/>
<path d="M714.666 416.028L731.203 483.661L722.933 423.779L714.666 416.028V416.028Z" fill="#767B86"/>
<path d="M701.904 446.763L731.203 483.661L714.666 416.028L701.904 446.763V446.763Z" fill="#6E7279"/>
<path d="M731.068 483.661L733.065 457.396L735.081 524.752L731.203 483.661H731.068V483.661Z" fill="#32342C"/>
<path d="M726.292 536.893L735.081 524.753L731.203 483.662L726.292 536.893Z" fill="#676C76"/>
<path d="M727.98 567.82L720.953 571.206L735.081 524.752L727.98 567.82Z" fill="#575B65"/>
<path d="M720.953 571.206L735.081 524.752L726.292 536.892L720.953 571.206V571.206Z" fill="#5D6065"/>
<path d="M726.292 536.893L731.203 483.662L716.151 501.418L726.292 536.893Z" fill="#6B6F7C"/>
<path d="M720.954 571.206L726.292 536.893L697.261 585.682L720.954 571.206V571.206Z" fill="#5F6470"/>
<path d="M701.904 446.764L731.203 483.662L716.151 501.417L701.904 446.764V446.764Z" fill="#757B87"/>
<path d="M726.292 536.892L716.151 501.417L700.845 545.112L726.292 536.892Z" fill="#656974"/>
<path d="M695.817 630.78L720.954 571.206L697.437 614.634L695.817 630.78Z" fill="#5C606C"/>
<path d="M697.437 614.634L720.954 571.206L697.261 585.682L697.437 614.634V614.634Z" fill="#5E6270"/>
<path d="M720.953 571.206L695.817 630.787L727.977 567.82L720.953 571.206ZM673.067 657.92L695.817 630.787L697.437 614.642L673.067 657.92ZM643.729 682.949L673.067 657.92L642.061 672.181L643.729 682.949Z" fill="#5B5E67"/>
<path d="M472.497 700.382L442.855 707.633L443.759 686.946L472.497 700.382Z" fill="#595B6C"/>
<path d="M307.698 418.836L315.869 415.809L295.207 462.721L307.698 418.836V418.836Z" fill="#646879"/>
<path d="M295.207 462.721L310.85 459.811L315.869 415.809L295.207 462.721Z" fill="#696E8B"/>
<path d="M296.141 519.063L295.207 462.722L310.85 459.812L296.141 519.063Z" fill="#696D88"/>
<path d="M644.089 375.474L612.63 411.508L667.331 420.547L644.089 375.474ZM369.571 338.514L409.735 311.043L373.898 328.852L369.571 338.514Z" fill="#959EB2"/>
<path d="M373.885 328.852L428.982 296.607L409.722 311.042L373.885 328.852Z" fill="#9399A7"/>
<path d="M409.722 311.042L460.033 287.062L428.982 296.607L409.722 311.042Z" fill="#9FA6B3"/>
<path d="M601.611 352.547L612.634 411.509L644.092 375.475L601.611 352.547ZM440.368 308.249L487.235 289.506L460.037 287.062L440.368 308.249Z" fill="#9FA7B5"/>
<path d="M498.088 280.194L460.033 287.062L487.231 289.506L498.088 280.194Z" fill="#AAACAF"/>
<path d="M534.081 289.04L487.231 289.506L498.088 280.194" fill="#B9C1CE"/>
<path d="M622.58 311.275L595.267 314.181L650.208 349.374L622.58 311.275ZM534.081 289.041L595.085 297.073L558.431 284.035L534.081 289.041Z" fill="#A5A9B1"/>
<path d="M622.58 311.275L595.092 297.073L625.64 309.064L622.58 311.275Z" fill="#7D828B"/>
<path d="M304.78 574.709L322.816 589.551L296.143 519.074L304.78 574.709ZM553.71 714.876L569.565 677.554L511.782 693.077L553.71 714.876ZM569.565 677.554L617.876 690.957L620.807 653.605L569.565 677.554Z" fill="#5F607C"/>
<path d="M642.061 672.181L620.801 653.596L672.169 619.46L642.061 672.181Z" fill="#555A79"/>
<path d="M672.171 619.46L642.061 672.181L673.067 657.921L697.437 614.635L672.171 619.46V619.46Z" fill="#54596B"/>
<path d="M625.64 309.063L622.58 311.274L660.821 334.181L625.64 309.063ZM595.267 314.179L622.58 311.272L595.092 297.063L595.267 314.179Z" fill="#818791"/>
<path d="M498.088 280.194L534.085 289.04L558.443 284.035L498.088 280.194ZM595.089 297.073L534.085 289.04L595.278 314.18L595.089 297.073Z" fill="#ADB0B5"/>
<path d="M534.081 289.04L549.049 314.467L595.267 314.18L534.081 289.04V289.04Z" fill="#C0C5CD"/>
<path d="M534.081 289.04L549.05 314.467L499.193 310.452L534.081 289.04Z" fill="#B8BEC8"/>
<path d="M487.231 289.506L499.193 310.452L534.081 289.04L487.231 289.506V289.506Z" fill="#D7D7D7"/>
<path d="M440.364 308.248L487.231 289.506L499.193 310.452L440.364 308.248Z" fill="#BCC1C8"/>
<path d="M409.722 311.042L440.364 308.249L460.033 287.062L409.722 311.042ZM440.364 308.249L472.166 337.266L499.193 310.45L440.364 308.249Z" fill="#AFB5C0"/>
<path d="M440.364 308.249L388.594 356.791L409.722 311.042L440.364 308.249Z" fill="#9199AC"/>
<path d="M388.594 356.791L421.629 362.285L440.364 308.249L388.594 356.791V356.791Z" fill="#A1ABC2"/>
<path d="M421.629 362.285L440.364 308.249L472.168 337.266L421.629 362.285V362.285Z" fill="#9CA5BA"/>
<path d="M339.45 367.267L341.462 386.794L369.565 338.514L339.45 367.267V367.267Z" fill="#828899"/>
<path d="M315.869 415.809L339.45 367.268L341.462 386.795L315.869 415.809V415.809Z" fill="#767B8E"/>
<path d="M341.462 386.794L369.565 338.514L388.594 356.79L341.462 386.794V386.794Z" fill="#81889D"/>
<path d="M339.761 428.652L341.462 386.794L315.869 415.809L339.761 428.652Z" fill="#676E8E"/>
<path d="M339.761 428.652L341.462 386.794L374.673 413.755L339.761 428.652Z" fill="#7881A3"/>
<path d="M374.673 413.755L388.594 356.79L341.462 386.794L374.673 413.755V413.755Z" fill="#9CA3B8"/>
<path d="M374.673 413.755L388.594 356.79L421.629 362.284L374.673 413.755V413.755Z" fill="#9DA6C5"/>
<path d="M310.85 459.811L315.869 415.809L339.761 428.652L310.85 459.811Z" fill="#727687"/>
<path d="M553.71 714.872L598.127 707.976L617.868 690.946L553.71 714.872ZM292.873 529.307L296.143 519.063L295.207 462.722L292.873 529.307ZM310.85 459.812L296.143 519.063L322.816 589.54L309.799 507.885L310.85 459.812Z" fill="#4D5061"/>
<path d="M322.814 589.549L344.819 592.634L329.411 556.664L322.814 589.549Z" fill="#575A72"/>
<path d="M642.061 672.181L617.868 690.946L598.127 707.976L643.729 682.949L642.061 672.181ZM512.638 721.386L547.109 722.346L598.127 707.976L553.71 714.872L512.638 721.386ZM343.347 630.448L366.473 634.896L344.819 592.648L343.347 630.448Z" fill="#5D606D"/>
<path d="M443.759 686.946L404.603 656.808L388.329 672.455L442.85 707.633L443.759 686.946ZM304.78 574.709L331.044 626.395L322.816 589.551L304.78 574.709ZM292.873 529.31L304.78 574.709L296.143 519.066L292.873 529.31ZM511.78 693.07L443.767 686.95L472.505 700.388L442.85 707.633L407.168 696.48L446.616 713.637L512.633 721.385L553.704 714.872L511.78 693.07ZM344.819 592.637L322.816 589.551L343.347 630.444L344.819 592.637ZM309.799 507.889L322.816 589.543L329.411 556.658L309.799 507.889ZM366.473 634.889L343.347 630.44L331.044 626.392L349.569 651.356L375.183 674.839L407.174 696.48L388.329 672.455L366.473 634.889Z" fill="#575A70"/>
<path d="M310.85 459.812L341.901 507.842L339.761 428.652L310.85 459.812V459.812Z" fill="#646787"/>
<path d="M309.799 507.887L329.411 556.664L341.901 507.842L309.799 507.887V507.887Z" fill="#6B6D83"/>
<path d="M329.411 556.664L341.901 507.842L357.425 546.418L329.411 556.664V556.664Z" fill="#626388"/>
<path d="M344.819 592.633L404.353 629.523L357.425 546.418L344.819 592.633Z" fill="#5F5E79"/>
<path d="M331.044 626.392L343.347 630.44L322.816 589.547L331.044 626.392ZM462.549 647.61L443.759 686.939L511.773 693.058L462.549 647.61ZM344.819 592.625L366.473 634.874L388.329 672.44L404.603 656.793L404.353 629.512L344.819 592.625Z" fill="#585A74"/>
<path d="M620.799 653.593L617.868 690.946L642.062 672.181L620.799 653.593ZM516.723 648.234L511.78 693.066L569.564 677.542L567.506 627.147L516.723 648.234Z" fill="#5D5E7B"/>
<path d="M309.799 507.889L341.9 507.842L310.85 459.812L309.799 507.889ZM567.51 627.144L569.567 677.539L620.801 653.59L567.51 627.144Z" fill="#575879"/>
<path d="M567.508 627.144L600.482 597.286L620.801 653.595L567.508 627.144Z" fill="#5E6280"/>
<path d="M620.801 653.595L645.725 578.109L600.482 597.286L620.801 653.595Z" fill="#63668B"/>
<path d="M672.169 619.459L620.801 653.595L645.725 578.109L672.169 619.459V619.459Z" fill="#595C6C"/>
<path d="M697.26 585.682L645.725 578.107L672.171 619.459L697.437 614.634L697.26 585.682Z" fill="#5B5F70"/>
<path d="M700.845 545.113L645.725 578.108L697.26 585.682L726.292 536.893L700.845 545.113Z" fill="#606472"/>
<path d="M315.869 415.809L339.45 367.268L307.698 418.837L315.869 415.809ZM680.285 475.891L700.845 545.113L716.151 501.417L680.285 475.891Z" fill="#7C808D"/>
<path d="M716.151 501.417L701.904 446.764L680.286 475.888L716.151 501.417V501.417Z" fill="#6F7586"/>
<path d="M645.725 578.109L700.845 545.112L647.423 521.332L645.725 578.109V578.109Z" fill="#717894"/>
<path d="M645.725 578.11L595.772 527.636L600.482 597.286L645.725 578.11V578.11Z" fill="#606491"/>
<path d="M567.508 627.144L529.157 593.188L600.482 597.286L567.508 627.144Z" fill="#727292"/>
<path d="M344.819 592.633L357.425 546.42L329.411 556.662L344.819 592.633ZM529.157 593.188L516.723 648.234L567.51 627.144L529.157 593.188Z" fill="#666588"/>
<path d="M449.765 604.447L412.846 585.682L404.353 629.523L462.549 647.618L516.723 648.233L449.765 604.447V604.447Z" fill="#666288"/>
<path d="M516.721 648.234L529.157 593.188L449.765 604.448L516.721 648.234Z" fill="#6E6A8B"/>
<path d="M341.901 507.842L357.827 457.006L339.761 428.652L341.901 507.842Z" fill="#74799E"/>
<path d="M374.673 413.756L444.568 393.382L407.649 468.801L374.673 413.756Z" fill="#9197BF"/>
<path d="M645.726 578.109L595.772 527.635L647.423 521.332L645.726 578.109V578.109Z" fill="#72779D"/>
<path d="M700.845 545.113L680.286 475.889L647.423 521.333L700.845 545.113V545.113Z" fill="#757C94"/>
<path d="M600.482 597.286L543.356 542.053L595.772 527.636L600.482 597.286V597.286Z" fill="#787A9F"/>
<path d="M529.157 593.188L600.482 597.286L543.356 542.053L529.157 593.188Z" fill="#7C7B94"/>
<path d="M529.157 593.188L490.088 561.377L543.356 542.053L529.157 593.188Z" fill="#8F8DB9"/>
<path d="M369.565 338.514L373.885 328.852L339.45 367.267L369.565 338.514ZM667.331 420.547L680.286 475.89L701.904 446.763L667.331 420.547Z" fill="#7D859C"/>
<path d="M374.673 413.755L407.649 468.8L357.827 457.005L374.673 413.755Z" fill="#9093B4"/>
<path d="M357.827 457.006L407.649 468.801L373.957 521.869L357.827 457.006Z" fill="#8887A6"/>
<path d="M444.568 393.382L472.168 337.266L421.629 362.285L444.568 393.382V393.382Z" fill="#ABB5CE"/>
<path d="M341.901 507.842L373.957 521.869L357.425 546.418L341.901 507.842V507.842Z" fill="#6C6D91"/>
<path d="M373.957 521.868L357.425 546.419L404.353 629.523L412.846 585.682L373.957 521.868V521.868Z" fill="#6F6C91"/>
<path d="M412.846 585.683L418.045 508.477L373.957 521.869L412.846 585.683Z" fill="#868497"/>
<path d="M412.846 585.683L490.088 561.378L418.044 508.477L412.846 585.683V585.683Z" fill="#9896AD"/>
<path d="M490.088 561.377L482.561 501.685L418.045 508.476L490.088 561.377V561.377Z" fill="#8480A7"/>
<path d="M482.561 501.684L537.042 481.311L543.356 542.053L482.561 501.684V501.684Z" fill="#A8A9C8"/>
<path d="M449.765 604.447L529.157 593.188L490.088 561.377L449.765 604.447V604.447Z" fill="#767291"/>
<path d="M449.765 604.447L412.846 585.682L490.088 561.377L449.765 604.447V604.447Z" fill="#8A85A6"/>
<path d="M444.568 393.382L491.88 398.387L472.168 337.266L444.568 393.382V393.382Z" fill="#D7D7D7"/>
<path d="M516.253 355.137L472.168 337.266L491.88 398.387L516.253 355.137Z" fill="#D1D5DD"/>
<path d="M516.253 355.137L563.207 387.306L491.88 398.387L516.253 355.137V355.137Z" fill="#BFC7D8"/>
<path d="M491.88 398.387L561.845 435.487L537.042 481.31L491.88 398.387V398.387Z" fill="#A6AEDD"/>
<path d="M561.845 435.487L563.207 387.306L491.88 398.387L561.845 435.487Z" fill="#B6BFE2"/>
<path d="M561.845 435.487L563.207 387.306L612.63 411.508L561.845 435.487V435.487Z" fill="#A4AED7"/>
<path d="M491.88 398.387L537.042 481.31L457.83 441.635L491.88 398.387Z" fill="#B3B5CD"/>
<path d="M482.561 501.684L537.042 481.31L457.83 441.635L482.561 501.684Z" fill="#9493B5"/>
<path d="M537.042 481.31L606.905 468.551L561.845 435.487L537.042 481.31Z" fill="#9FA6CC"/>
<path d="M612.63 411.509L606.905 468.551L561.845 435.488L612.63 411.509Z" fill="#9EAACF"/>
<path d="M612.63 411.509L645.606 456.292L606.905 468.551L612.63 411.509Z" fill="#9EA6BD"/>
<path d="M667.331 420.548L612.63 411.509L645.606 456.292L667.331 420.548V420.548Z" fill="#929BB2"/>
<path d="M388.594 356.79L409.722 311.041L369.558 338.512L388.594 356.79ZM667.331 420.547L645.606 456.3L680.286 475.899L667.331 420.547Z" fill="#9096A4"/>
<path d="M647.423 521.332L680.286 475.888L645.606 456.291L647.423 521.332Z" fill="#828CAD"/>
<path d="M647.423 521.332L645.606 456.291L606.905 468.551L647.423 521.332Z" fill="#848DB1"/>
<path d="M374.675 413.756L444.568 393.382L421.631 362.285L374.675 413.756ZM537.036 481.311L595.767 527.636L606.899 468.551L537.036 481.311Z" fill="#9CA4C9"/>
<path d="M543.356 542.053L595.772 527.636L537.042 481.311L543.356 542.053Z" fill="#8C8FB8"/>
<path d="M444.568 393.382L457.83 441.635L491.88 398.387L444.568 393.382V393.382Z" fill="#9FA5CC"/>
<path d="M444.568 393.382L407.649 468.801L457.83 441.636L444.568 393.382Z" fill="#A4A4C3"/>
<path d="M457.83 441.635L418.045 508.476L482.561 501.684L457.83 441.635Z" fill="#7975AC"/>
<path d="M482.561 501.684L490.088 561.377L543.356 542.053L482.561 501.684ZM418.044 508.476L457.83 441.637L407.649 468.804L418.044 508.476Z" fill="#AAAAC4"/>
<path d="M373.957 521.868L407.649 468.801L418.045 508.476L373.957 521.868V521.868Z" fill="#7C7897"/>
<path d="M407.174 696.48L442.855 707.633L388.329 672.455L407.174 696.48ZM404.603 656.809L443.759 686.947L462.549 647.618L404.353 629.523L404.603 656.809ZM511.78 693.066L516.723 648.234L462.549 647.618L511.78 693.066ZM569.563 677.542L553.708 714.865L617.866 690.939L569.563 677.542Z" fill="#5F5F7E"/>
<path d="M341.901 507.842L357.827 457.006L373.957 521.869L341.901 507.842Z" fill="#77799F"/>
<path d="M357.827 457.005L374.675 413.755L339.761 428.652L357.827 457.005ZM606.905 468.55L595.772 527.635L647.423 521.332L606.905 468.55Z" fill="#8389AF"/>
<path d="M736.074 524.815V524.711L734.058 457.366V457.29C734.058 457.265 734.058 457.242 734.047 457.22C734.035 457.197 734.035 457.159 734.028 457.131V457.11L723.901 423.505V423.484L723.881 423.429C723.881 423.404 723.862 423.38 723.85 423.357L723.837 423.327L694.864 368.658L694.847 368.631L694.811 368.575L694.779 368.527L694.758 368.499L694.728 368.465L694.707 368.438L661.547 333.497L661.532 333.484L661.509 333.461C661.49 333.442 661.467 333.427 661.446 333.41L661.403 333.372L626.231 308.264H626.214L626.182 308.241C626.158 308.227 626.133 308.215 626.108 308.203C626.083 308.189 626.058 308.176 626.032 308.166H626.017L595.49 296.185H595.443L558.797 283.15H558.763L558.693 283.131L558.628 283.118H558.526L498.176 279.278H498.071C498.039 279.276 498.006 279.276 497.973 279.278H497.935L459.88 286.145H459.798L459.73 286.164L428.713 295.7L428.644 295.726C428.618 295.737 428.589 295.749 428.565 295.762L428.525 295.781H428.512L373.415 328.028H373.404L373.358 328.058L373.315 328.087L373.279 328.119L373.245 328.145L373.207 328.187L373.176 328.214L373.163 328.229L338.741 366.627L338.728 366.646L338.703 366.674L338.681 366.707L338.65 366.75L338.635 366.769L338.624 366.788L306.849 418.316L306.834 418.346L306.803 418.399L306.777 418.461C306.777 418.486 306.758 418.509 306.75 418.533L306.739 418.564L294.248 462.451V462.595C294.243 462.619 294.24 462.644 294.239 462.668V462.687L291.905 529.273V529.437C291.908 529.465 291.913 529.492 291.92 529.519V529.587L303.819 574.957V574.976L303.831 575.01C303.842 575.043 303.854 575.074 303.869 575.105C303.869 575.12 303.88 575.137 303.888 575.152L330.146 626.824L330.163 626.848C330.179 626.878 330.197 626.906 330.216 626.934L330.229 626.958L348.743 651.907L348.765 651.936C348.782 651.957 348.803 651.974 348.82 651.993C348.833 652.009 348.847 652.024 348.862 652.038L374.476 675.53C374.497 675.549 374.518 675.563 374.54 675.58L374.592 675.621L406.581 697.261L406.603 697.272L406.679 697.317L406.721 697.336H406.734L446.182 714.493L446.222 714.507C446.25 714.518 446.279 714.528 446.309 714.535L446.355 714.548L446.425 714.562H446.464L512.481 722.312H512.57L547.041 723.271H547.077C547.141 723.27 547.204 723.264 547.267 723.252L547.308 723.238H547.337L598.355 708.868L598.385 708.857L598.429 708.846L598.468 708.827L598.497 708.814L598.557 708.787L598.578 708.776L644.153 683.768H644.166L644.185 683.756C644.211 683.74 644.236 683.723 644.259 683.703L644.32 683.662L673.658 658.635L673.689 658.603L673.727 658.569L673.765 658.527H673.776L696.522 631.392L696.531 631.378C696.56 631.34 696.587 631.301 696.611 631.259L696.639 631.217V631.206L728.869 568.268C728.869 568.254 728.88 568.237 728.888 568.222L728.92 568.148V568.112C728.929 568.086 728.936 568.059 728.941 568.031C728.941 568.014 728.952 567.997 728.956 567.978L736.055 524.921V524.847L736.074 524.815ZM375.804 674.058L369.173 667.973L384.096 679.664L375.804 674.058ZM472.63 699.347L449.314 688.445L504.501 693.409L472.63 699.347ZM481.132 500.836L419.916 507.277L457.667 443.856L481.132 500.836ZM459.766 443.719L534.556 481.178L483.116 500.415L459.766 443.719ZM481.688 502.776L488.803 559.202L420.701 509.187L481.688 502.776ZM487.911 561.017L413.939 584.295L418.916 510.352L487.911 561.017ZM483.817 503.717L541.155 541.797L490.916 560.023L483.817 503.717ZM484.73 501.934L536.178 482.695L542.14 540.052L484.73 501.934ZM563.776 435.673L611.463 413.161L606.086 466.721L563.776 435.673ZM604.453 467.986L538.902 479.96L562.179 436.977L604.453 467.986ZM537.04 479.225L494.339 400.82L560.5 435.897L537.04 479.225ZM534.647 479.001L459.368 441.3L491.729 400.191L534.647 479.001ZM418.41 505.921L408.818 469.303L455.13 444.233L418.41 505.921ZM412.063 582.477L375.476 522.443L416.951 509.844L412.063 582.477ZM486.769 563.459L449.549 603.216L415.472 585.896L486.769 563.459ZM541.879 543.643L528.604 591.449L492.079 561.705L541.879 543.643ZM538.279 483.552L593.611 527.196L544.226 540.778L538.279 483.552ZM539.389 481.89L605.656 469.786L595.098 525.83L539.389 481.89ZM608.049 467.141L613.357 414.185L643.971 455.763L608.049 467.141ZM644.646 457.635L646.339 518.282L608.56 469.07L644.646 457.635ZM562.889 433.892L564.16 388.878L610.326 411.493L562.889 433.892ZM560.894 433.853L494.991 398.906L562.177 388.469L560.894 433.853ZM458.267 439.464L445.917 394.522L489.982 399.183L458.267 439.464ZM456.659 441.135L409.913 466.44L444.305 396.184L456.659 441.135ZM416.836 507.8L376.238 520.131L407.265 471.268L416.836 507.8ZM409.483 582.075L358.795 546.166L373.915 523.712L409.483 582.075ZM413.575 587.166L447.639 604.48L405.738 627.623L413.575 587.166ZM490.181 562.726L526.762 592.518L452.423 603.059L490.181 562.726ZM543.87 543.925L597.864 596.131L530.449 592.256L543.87 543.925ZM545.302 542.54L594.859 528.909L599.311 594.761L545.302 542.54ZM607.473 470.917L645.57 520.554L597.006 526.482L607.473 470.917ZM646.652 458.015L678.827 476.203L648.336 518.362L646.652 458.015ZM646.991 455.92L666.916 423.145L678.798 473.901L646.991 455.92ZM645.527 454.493L614.884 412.88L665.715 421.279L645.527 454.493ZM564.965 387.048L600.962 354.472L611.294 409.731L564.965 387.048ZM493.756 397.089L516.589 356.573L560.574 386.709L493.756 397.089ZM446.091 392.542L471.974 339.914L490.461 397.235L446.091 392.542ZM407.56 466.721L376.191 414.356L442.689 394.975L407.56 466.721ZM374.364 519.37L359.191 458.351L406.06 469.447L374.364 519.37ZM357.649 544.304L343.735 509.727L372.464 522.297L357.649 544.304ZM411.745 586.122L403.889 626.665L360.483 549.796L411.745 586.122ZM449.16 605.918L461.064 646.114L406.88 629.268L449.16 605.918ZM527.867 594.376L516.066 646.614L452.523 605.061L527.867 594.376ZM598.051 598.143L567.502 625.803L531.966 594.34L598.051 598.143ZM596.949 530.241L643.984 577.767L601.382 595.824L596.949 530.241ZM597.909 528.378L646.39 522.46L644.797 575.755L597.909 528.378ZM679.907 478.115L699.273 543.324L648.948 520.923L679.907 478.115ZM668.932 423.01L700.517 446.961L680.767 473.57L668.932 423.01ZM614.559 410.819L643.876 377.235L665.538 419.242L614.559 410.819ZM613.232 409.303L602.972 354.415L642.518 375.759L613.232 409.303ZM563.122 386.04L519.332 356.038L598.934 353.623L563.122 386.04ZM492.13 395.913L473.77 338.99L514.83 355.633L492.13 395.913ZM444.388 391.472L423.128 362.65L469.968 339.461L444.388 391.472ZM442.912 392.827L377.791 411.81L421.546 363.848L442.912 392.827ZM405.575 467.282L359.159 456.293L374.851 416.006L405.575 467.282ZM372.492 520.139L343.112 507.283L357.7 460.689L372.492 520.139ZM356.11 545.833L330.837 555.074L342.104 511.032L356.11 545.833ZM401.566 626.625L345.969 592.173L357.742 549.015L401.566 626.625ZM458.176 647.296L405.582 655.632L405.355 630.869L458.176 647.296ZM451.483 606.753L513.326 647.2L463.311 646.631L451.483 606.753ZM529.75 595.037L565.649 626.822L518.119 646.574L529.75 595.037ZM600.037 599.016L619.009 651.593L569.26 626.903L600.037 599.016ZM601.729 597.826L644.079 579.875L620.746 650.542L601.729 597.826ZM648.363 522.839L698.678 545.236L646.767 576.306L648.363 522.839ZM682.055 478.37L714.952 501.785L700.911 541.866L682.055 478.37ZM681.676 475.661L701.449 449.022L714.48 499.007L681.676 475.661ZM668.483 420.174L677.663 391.709L699.53 443.717L668.483 420.174ZM667.103 417.952L646.182 377.38L676.305 389.42L667.103 417.952ZM605.126 353.314L648.931 350.453L643.416 373.98L605.126 353.314ZM518.388 354.072L549.231 315.823L598.66 351.63L518.388 354.072ZM516.566 353.155L500.686 311.564L547.102 315.302L516.566 353.155ZM514.506 353.344L473.939 336.9L498.806 312.227L514.506 353.344ZM423.368 360.305L440.811 309.994L470.419 337.01L423.368 360.305ZM376.573 410.19L389.346 357.914L419.659 362.957L376.573 410.19ZM357.617 454.802L341.236 429.097L372.888 415.593L357.617 454.802ZM356.741 457.14L342.741 501.83L340.859 432.216L356.741 457.14ZM340.621 508.829L329.202 553.456L311.276 508.872L340.621 508.829ZM310.82 506.885L311.767 463.072L340.064 506.836L310.82 506.885ZM355.957 548.008L344.609 589.604L330.741 557.228L355.957 548.008ZM401.494 628.917L367.038 633.798L347.341 595.359L401.494 628.917ZM403.366 630.662L403.589 655.069L369.488 635.461L403.366 630.662ZM460.833 648.889L443.39 685.399L407.043 657.428L460.833 648.889ZM462.865 649.259L508.956 691.804L445.277 686.077L462.865 649.259ZM465.126 648.634L515.611 649.202L511.005 690.982L465.126 648.634ZM566.562 628.612L568.489 675.813L519.01 648.363L566.562 628.612ZM568.567 628.785L618.499 653.567L570.492 676.008L568.567 628.785ZM646.008 580.412L670.796 619.172L622.644 651.169L646.008 580.412ZM647.734 579.411L695.461 586.421L672.232 617.715L647.734 579.411ZM648.622 577.53L699.672 546.971L696.351 584.544L648.622 577.53ZM716.047 504.708L725.061 536.243L702.44 543.55L716.047 504.708ZM704.052 451.081L729.907 483.641L716.625 499.309L704.052 451.081ZM679.859 391.783L713.438 416.374L701.898 444.176L679.859 391.783ZM645.248 374.874L650.661 351.791L674.844 386.703L645.248 374.874ZM602.432 351.501L596.604 316.233L647.108 348.584L602.432 351.501ZM600.215 350.325L552.094 315.442L594.422 315.181L600.215 350.325ZM502.298 309.71L533.723 290.425L547.204 313.328L502.298 309.71ZM472.124 335.896L443.039 309.344L496.863 311.369L472.124 335.896ZM420.947 361.173L390.75 356.139L438.104 311.739L420.947 361.173ZM374.078 411.99L343.163 386.893L387.037 358.962L374.078 411.99ZM372.765 413.488L340.822 427.125L342.379 388.829L372.765 413.488ZM340.808 504.316L312.108 459.921L338.821 431.124L340.808 504.316ZM328.374 556.758L322.926 583.917L312.176 516.471L328.374 556.758ZM329.757 560.006L343.209 591.402L324.002 588.71L329.757 560.006ZM364.655 633.527L344.383 629.626L345.673 596.472L364.655 633.527ZM402.956 657.009L388.558 670.858L369.209 637.608L402.956 657.009ZM404.675 658.12L439.265 684.743L390.299 671.942L404.675 658.12ZM517.549 649.831L566.941 677.22L512.947 691.727L517.549 649.831ZM619.664 655.221L616.961 689.664L572.436 677.304L619.664 655.221ZM669.212 622.616L641.8 670.629L622.436 653.711L669.212 622.616ZM696.281 588.672L696.433 613.814L674.494 618.003L696.281 588.672ZM701.775 545.855L724.081 538.656L698.632 581.423L701.775 545.855ZM717.25 501.654L729.915 486.716L725.783 531.501L717.25 501.654ZM703.041 446.605L714.408 419.221L729.142 479.477L703.041 446.605ZM678.861 388.571L686.848 374.624L710.926 412.054L678.861 388.571ZM677.474 386.984L653.845 352.882L685.463 373.042L677.474 386.984ZM598.19 314.87L622.11 312.317L646.309 345.685L598.19 314.87ZM549.618 313.468L536.439 291.086L590.301 313.216L549.618 313.468ZM499.549 309.066L488.94 290.484L530.5 290.071L499.549 309.066ZM497.439 309.391L445.091 307.431L486.795 290.759L497.439 309.391ZM391.642 352.566L410.387 311.981L437.571 309.501L391.642 352.566ZM388.274 355.103L371.14 338.645L407.303 313.904L388.274 355.103ZM386.989 356.631L344.387 383.754L369.791 340.111L386.989 356.631ZM338.828 427.023L317.447 415.527L340.352 389.56L338.828 427.023ZM338.154 428.917L312.186 456.907L316.695 417.383L338.154 428.917ZM308.812 507.408L297.833 516.392L309.657 468.757L308.812 507.408ZM309.086 509.755L320.294 580.067L297.327 519.389L309.086 509.755ZM343.788 593.493L342.502 626.534L324.557 590.797L343.788 593.493ZM365.839 635.779L384.066 667.111L346.554 632.062L365.839 635.779ZM442.728 687.707L441.935 705.856L394.096 674.99L442.728 687.707ZM444.691 688.481L469.509 700.089L443.903 706.352L444.691 688.481ZM510.81 694.256L511.581 719.713L475.5 700.834L510.81 694.256ZM567.836 679.033L553.2 713.493L514.495 693.364L567.836 679.033ZM570.128 678.736L614.634 691.084L555.525 713.131L570.128 678.736ZM621.625 655.651L640.483 672.133L619.041 688.777L621.625 655.651ZM672.796 620.35L694.548 616.199L646.904 665.713L672.796 620.35ZM698.397 610.743L698.248 586.237L718.301 573.984L698.397 610.743ZM700.159 582.736L724.502 541.83L720.038 570.598L700.159 582.736ZM731.201 494.396L734.043 524.474L727.611 533.359L731.201 494.396ZM716.424 419.049L721.986 424.264L727.55 464.552L716.424 419.049ZM688.229 373.097L693.464 370.471L708.595 404.762L688.229 373.097ZM651.627 349.093L660.814 335.941L683.3 369.285L651.627 349.093ZM650.2 347.655L626.24 314.63L659.395 334.483L650.2 347.655ZM596.254 313.074L596.106 298.716L619.176 310.634L596.254 313.074ZM594.255 312.686L541.526 291.022L594.103 297.945L594.255 312.686ZM489.953 288.483L498.348 281.284L526.184 288.127L489.953 288.483ZM444.106 305.678L460.429 288.095L483 290.124L444.106 305.678ZM439.888 307.29L415.171 309.545L455.755 290.2L439.888 307.29ZM371.913 335.697L374.646 329.581L397.332 318.307L371.913 335.697ZM342.136 383.646L340.488 367.648L365.174 344.092L342.136 383.646ZM340.422 386.463L319.961 409.659L338.813 370.85L340.422 386.463ZM309.939 458.966L296.867 461.397L314.12 422.222L309.939 458.966ZM309.505 461.071L297.001 511.413L296.207 463.544L309.505 461.071ZM320.554 586.398L305.703 574.177L298.591 528.361L320.554 586.398ZM341.377 628.745L331.891 625.621L325.546 597.214L341.377 628.745ZM381.92 667.833L350.408 650.68L345.349 633.676L381.92 667.833ZM387.668 673.228L401.308 690.622L359.6 657.951L387.668 673.228ZM392.771 676.506L436.156 704.496L407.767 695.622L392.771 676.506ZM472.366 701.438L506.089 719.078L447.476 707.521L472.366 701.438ZM512.826 694.731L550.571 714.361L513.599 720.224L512.826 694.731ZM613.013 693.816L597.69 707.035L563.209 712.388L613.013 693.816ZM641.334 674.003L642.609 682.25L622.804 688.381L641.334 674.003ZM692.727 620.956L672.353 657.142L646.432 669.064L692.727 620.956ZM698.411 614.924L712.051 589.727L697.463 624.289L698.411 614.924ZM727.243 537.273L732.395 530.159L724.114 557.384L727.243 537.273ZM732.198 483.582V483.522L732.124 482.993L732.637 476.248L733.16 493.714L732.198 483.582ZM730.828 473.651L725.675 436.329L732.056 457.508L730.828 473.651ZM715.497 415.44L706.091 394.124L719.254 418.96L715.497 415.44ZM687.136 371.426L668.352 343.576L692.316 368.834L687.136 371.426ZM624.387 311.201L625.643 310.293L640.084 320.603L624.387 311.201ZM622.493 310.113L612.728 305.068L623.578 309.327L622.493 310.113ZM540.069 288.824L558.367 285.064L585.9 294.858L540.069 288.824ZM534.1 288.019L509.185 281.896L550.961 284.548L534.1 288.019ZM486.901 288.476L467.467 286.729L494.657 281.822L486.901 288.476ZM418.319 305.837L429.438 297.501L447.362 291.992L418.319 305.837ZM409.193 310.195L399.548 314.988L414.377 306.311L409.193 310.195ZM368.734 337.931L357.293 348.854L370.374 334.267L368.734 337.931ZM315.147 415.015L310.06 416.91L329.822 384.813L315.147 415.015ZM308.516 419.592L314.01 417.56L300.129 449.077L308.516 419.592ZM294.847 501.374L295.139 518.917L294.129 522.106L294.847 501.374ZM295.794 523.4L300.8 555.643L293.9 529.335L295.794 523.4ZM321.905 590.098L328.333 618.876L307.828 578.498L321.905 590.098ZM342.529 631.223L346.99 646.226L333.725 628.324L342.529 631.223ZM442.194 708.472L444.056 711.441L424.565 702.969L442.194 708.472ZM447.201 712.705L444.913 709.056L487.335 717.415L447.201 712.705ZM551.118 716.289L546.67 721.346L523.382 720.698L551.118 716.289ZM554.208 715.801L581.969 711.49L550.082 720.471L554.208 715.801ZM618.351 691.835L634.631 686.799L605.923 702.556L618.351 691.835ZM644.43 681.036L643.151 672.774L666.94 661.833L644.43 681.036ZM695.961 619.274L694.847 630.376L679.202 649.041L695.961 619.274ZM721.726 571.937L725.747 570.001L707.347 606.02L721.726 571.937ZM727.08 567.15L722.568 569.323L731.639 539.497L727.08 567.15Z" fill="url(#paint0_radial_1115_1899)"/>
<path d="M736.074 524.815V524.711L734.058 457.366V457.29C734.058 457.265 734.058 457.242 734.047 457.22C734.035 457.197 734.035 457.159 734.028 457.131V457.11L723.901 423.505V423.484L723.881 423.429C723.881 423.404 723.862 423.38 723.85 423.357L723.837 423.327L694.864 368.658L694.847 368.631L694.811 368.575L694.779 368.527L694.758 368.499L694.728 368.465L694.707 368.438L661.547 333.497L661.532 333.484L661.509 333.461C661.49 333.442 661.467 333.427 661.446 333.41L661.403 333.372L626.231 308.264H626.214L626.182 308.241C626.158 308.227 626.133 308.215 626.108 308.203C626.083 308.189 626.058 308.176 626.032 308.166H626.017L595.49 296.185H595.443L558.797 283.15H558.763L558.693 283.131L558.628 283.118H558.526L498.176 279.278H498.071C498.039 279.276 498.006 279.276 497.973 279.278H497.935L459.88 286.145H459.798L459.73 286.164L428.713 295.7L428.644 295.726C428.618 295.737 428.589 295.749 428.565 295.762L428.525 295.781H428.512L373.415 328.028H373.404L373.358 328.058L373.315 328.087L373.279 328.119L373.245 328.145L373.207 328.187L373.176 328.214L373.163 328.229L338.741 366.627L338.728 366.646L338.703 366.674L338.681 366.707L338.65 366.75L338.635 366.769L338.624 366.788L306.849 418.316L306.834 418.346L306.803 418.399L306.777 418.461C306.777 418.486 306.758 418.509 306.75 418.533L306.739 418.564L294.248 462.451V462.595C294.243 462.619 294.24 462.644 294.239 462.668V462.687L291.905 529.273V529.437C291.908 529.465 291.913 529.492 291.92 529.519V529.587L303.819 574.957V574.976L303.831 575.01C303.842 575.043 303.854 575.074 303.869 575.105C303.869 575.12 303.88 575.137 303.888 575.152L330.146 626.824L330.163 626.848C330.179 626.878 330.197 626.906 330.216 626.934L330.229 626.958L348.743 651.907L348.765 651.936C348.782 651.957 348.803 651.974 348.82 651.993C348.833 652.009 348.847 652.024 348.862 652.038L374.476 675.53C374.497 675.549 374.518 675.563 374.54 675.58L374.592 675.621L406.581 697.261L406.603 697.272L406.679 697.317L406.721 697.336H406.734L446.182 714.493L446.222 714.507C446.25 714.518 446.279 714.528 446.309 714.535L446.355 714.548L446.425 714.562H446.464L512.481 722.312H512.57L547.041 723.271H547.077C547.141 723.27 547.204 723.264 547.267 723.252L547.308 723.238H547.337L598.355 708.868L598.385 708.857L598.429 708.846L598.468 708.827L598.497 708.814L598.557 708.787L598.578 708.776L644.153 683.768H644.166L644.185 683.756C644.211 683.74 644.236 683.723 644.259 683.703L644.32 683.662L673.658 658.635L673.689 658.603L673.727 658.569L673.765 658.527H673.776L696.522 631.392L696.531 631.378C696.56 631.34 696.587 631.301 696.611 631.259L696.639 631.217V631.206L728.869 568.268C728.869 568.254 728.88 568.237 728.888 568.222L728.92 568.148V568.112C728.929 568.086 728.936 568.059 728.941 568.031C728.941 568.014 728.952 567.997 728.956 567.978L736.055 524.921V524.847L736.074 524.815ZM375.804 674.058L369.173 667.973L384.096 679.664L375.804 674.058ZM472.63 699.347L449.314 688.445L504.501 693.409L472.63 699.347ZM481.132 500.836L419.916 507.277L457.667 443.856L481.132 500.836ZM459.766 443.719L534.556 481.178L483.116 500.415L459.766 443.719ZM481.688 502.776L488.803 559.202L420.701 509.187L481.688 502.776ZM487.911 561.017L413.939 584.295L418.916 510.352L487.911 561.017ZM483.817 503.717L541.155 541.797L490.916 560.023L483.817 503.717ZM484.73 501.934L536.178 482.695L542.14 540.052L484.73 501.934ZM563.776 435.673L611.463 413.161L606.086 466.721L563.776 435.673ZM604.453 467.986L538.902 479.96L562.179 436.977L604.453 467.986ZM537.04 479.225L494.339 400.82L560.5 435.897L537.04 479.225ZM534.647 479.001L459.368 441.3L491.729 400.191L534.647 479.001ZM418.41 505.921L408.818 469.303L455.13 444.233L418.41 505.921ZM412.063 582.477L375.476 522.443L416.951 509.844L412.063 582.477ZM486.769 563.459L449.549 603.216L415.472 585.896L486.769 563.459ZM541.879 543.643L528.604 591.449L492.079 561.705L541.879 543.643ZM538.279 483.552L593.611 527.196L544.226 540.778L538.279 483.552ZM539.389 481.89L605.656 469.786L595.098 525.83L539.389 481.89ZM608.049 467.141L613.357 414.185L643.971 455.763L608.049 467.141ZM644.646 457.635L646.339 518.282L608.56 469.07L644.646 457.635ZM562.889 433.892L564.16 388.878L610.326 411.493L562.889 433.892ZM560.894 433.853L494.991 398.906L562.177 388.469L560.894 433.853ZM458.267 439.464L445.917 394.522L489.982 399.183L458.267 439.464ZM456.659 441.135L409.913 466.44L444.305 396.184L456.659 441.135ZM416.836 507.8L376.238 520.131L407.265 471.268L416.836 507.8ZM409.483 582.075L358.795 546.166L373.915 523.712L409.483 582.075ZM413.575 587.166L447.639 604.48L405.738 627.623L413.575 587.166ZM490.181 562.726L526.762 592.518L452.423 603.059L490.181 562.726ZM543.87 543.925L597.864 596.131L530.449 592.256L543.87 543.925ZM545.302 542.54L594.859 528.909L599.311 594.761L545.302 542.54ZM607.473 470.917L645.57 520.554L597.006 526.482L607.473 470.917ZM646.652 458.015L678.827 476.203L648.336 518.362L646.652 458.015ZM646.991 455.92L666.916 423.145L678.798 473.901L646.991 455.92ZM645.527 454.493L614.884 412.88L665.715 421.279L645.527 454.493ZM564.965 387.048L600.962 354.472L611.294 409.731L564.965 387.048ZM493.756 397.089L516.589 356.573L560.574 386.709L493.756 397.089ZM446.091 392.542L471.974 339.914L490.461 397.235L446.091 392.542ZM407.56 466.721L376.191 414.356L442.689 394.975L407.56 466.721ZM374.364 519.37L359.191 458.351L406.06 469.447L374.364 519.37ZM357.649 544.304L343.735 509.727L372.464 522.297L357.649 544.304ZM411.745 586.122L403.889 626.665L360.483 549.796L411.745 586.122ZM449.16 605.918L461.064 646.114L406.88 629.268L449.16 605.918ZM527.867 594.376L516.066 646.614L452.523 605.061L527.867 594.376ZM598.051 598.143L567.502 625.803L531.966 594.34L598.051 598.143ZM596.949 530.241L643.984 577.767L601.382 595.824L596.949 530.241ZM597.909 528.378L646.39 522.46L644.797 575.755L597.909 528.378ZM679.907 478.115L699.273 543.324L648.948 520.923L679.907 478.115ZM668.932 423.01L700.517 446.961L680.767 473.57L668.932 423.01ZM614.559 410.819L643.876 377.235L665.538 419.242L614.559 410.819ZM613.232 409.303L602.972 354.415L642.518 375.759L613.232 409.303ZM563.122 386.04L519.332 356.038L598.934 353.623L563.122 386.04ZM492.13 395.913L473.77 338.99L514.83 355.633L492.13 395.913ZM444.388 391.472L423.128 362.65L469.968 339.461L444.388 391.472ZM442.912 392.827L377.791 411.81L421.546 363.848L442.912 392.827ZM405.575 467.282L359.159 456.293L374.851 416.006L405.575 467.282ZM372.492 520.139L343.112 507.283L357.7 460.689L372.492 520.139ZM356.11 545.833L330.837 555.074L342.104 511.032L356.11 545.833ZM401.566 626.625L345.969 592.173L357.742 549.015L401.566 626.625ZM458.176 647.296L405.582 655.632L405.355 630.869L458.176 647.296ZM451.483 606.753L513.326 647.2L463.311 646.631L451.483 606.753ZM529.75 595.037L565.649 626.822L518.119 646.574L529.75 595.037ZM600.037 599.016L619.009 651.593L569.26 626.903L600.037 599.016ZM601.729 597.826L644.079 579.875L620.746 650.542L601.729 597.826ZM648.363 522.839L698.678 545.236L646.767 576.306L648.363 522.839ZM682.055 478.37L714.952 501.785L700.911 541.866L682.055 478.37ZM681.676 475.661L701.449 449.022L714.48 499.007L681.676 475.661ZM668.483 420.174L677.663 391.709L699.53 443.717L668.483 420.174ZM667.103 417.952L646.182 377.38L676.305 389.42L667.103 417.952ZM605.126 353.314L648.931 350.453L643.416 373.98L605.126 353.314ZM518.388 354.072L549.231 315.823L598.66 351.63L518.388 354.072ZM516.566 353.155L500.686 311.564L547.102 315.302L516.566 353.155ZM514.506 353.344L473.939 336.9L498.806 312.227L514.506 353.344ZM423.368 360.305L440.811 309.994L470.419 337.01L423.368 360.305ZM376.573 410.19L389.346 357.914L419.659 362.957L376.573 410.19ZM357.617 454.802L341.236 429.097L372.888 415.593L357.617 454.802ZM356.741 457.14L342.741 501.83L340.859 432.216L356.741 457.14ZM340.621 508.829L329.202 553.456L311.276 508.872L340.621 508.829ZM310.82 506.885L311.767 463.072L340.064 506.836L310.82 506.885ZM355.957 548.008L344.609 589.604L330.741 557.228L355.957 548.008ZM401.494 628.917L367.038 633.798L347.341 595.359L401.494 628.917ZM403.366 630.662L403.589 655.069L369.488 635.461L403.366 630.662ZM460.833 648.889L443.39 685.399L407.043 657.428L460.833 648.889ZM462.865 649.259L508.956 691.804L445.277 686.077L462.865 649.259ZM465.126 648.634L515.611 649.202L511.005 690.982L465.126 648.634ZM566.562 628.612L568.489 675.813L519.01 648.363L566.562 628.612ZM568.567 628.785L618.499 653.567L570.492 676.008L568.567 628.785ZM646.008 580.412L670.796 619.172L622.644 651.169L646.008 580.412ZM647.734 579.411L695.461 586.421L672.232 617.715L647.734 579.411ZM648.622 577.53L699.672 546.971L696.351 584.544L648.622 577.53ZM716.047 504.708L725.061 536.243L702.44 543.55L716.047 504.708ZM704.052 451.081L729.907 483.641L716.625 499.309L704.052 451.081ZM679.859 391.783L713.438 416.374L701.898 444.176L679.859 391.783ZM645.248 374.874L650.661 351.791L674.844 386.703L645.248 374.874ZM602.432 351.501L596.604 316.233L647.108 348.584L602.432 351.501ZM600.215 350.325L552.094 315.442L594.422 315.181L600.215 350.325ZM502.298 309.71L533.723 290.425L547.204 313.328L502.298 309.71ZM472.124 335.896L443.039 309.344L496.863 311.369L472.124 335.896ZM420.947 361.173L390.75 356.139L438.104 311.739L420.947 361.173ZM374.078 411.99L343.163 386.893L387.037 358.962L374.078 411.99ZM372.765 413.488L340.822 427.125L342.379 388.829L372.765 413.488ZM340.808 504.316L312.108 459.921L338.821 431.124L340.808 504.316ZM328.374 556.758L322.926 583.917L312.176 516.471L328.374 556.758ZM329.757 560.006L343.209 591.402L324.002 588.71L329.757 560.006ZM364.655 633.527L344.383 629.626L345.673 596.472L364.655 633.527ZM402.956 657.009L388.558 670.858L369.209 637.608L402.956 657.009ZM404.675 658.12L439.265 684.743L390.299 671.942L404.675 658.12ZM517.549 649.831L566.941 677.22L512.947 691.727L517.549 649.831ZM619.664 655.221L616.961 689.664L572.436 677.304L619.664 655.221ZM669.212 622.616L641.8 670.629L622.436 653.711L669.212 622.616ZM696.281 588.672L696.433 613.814L674.494 618.003L696.281 588.672ZM701.775 545.855L724.081 538.656L698.632 581.423L701.775 545.855ZM717.25 501.654L729.915 486.716L725.783 531.501L717.25 501.654ZM703.041 446.605L714.408 419.221L729.142 479.477L703.041 446.605ZM678.861 388.571L686.848 374.624L710.926 412.054L678.861 388.571ZM677.474 386.984L653.845 352.882L685.463 373.042L677.474 386.984ZM598.19 314.87L622.11 312.317L646.309 345.685L598.19 314.87ZM549.618 313.468L536.439 291.086L590.301 313.216L549.618 313.468ZM499.549 309.066L488.94 290.484L530.5 290.071L499.549 309.066ZM497.439 309.391L445.091 307.431L486.795 290.759L497.439 309.391ZM391.642 352.566L410.387 311.981L437.571 309.501L391.642 352.566ZM388.274 355.103L371.14 338.645L407.303 313.904L388.274 355.103ZM386.989 356.631L344.387 383.754L369.791 340.111L386.989 356.631ZM338.828 427.023L317.447 415.527L340.352 389.56L338.828 427.023ZM338.154 428.917L312.186 456.907L316.695 417.383L338.154 428.917ZM308.812 507.408L297.833 516.392L309.657 468.757L308.812 507.408ZM309.086 509.755L320.294 580.067L297.327 519.389L309.086 509.755ZM343.788 593.493L342.502 626.534L324.557 590.797L343.788 593.493ZM365.839 635.779L384.066 667.111L346.554 632.062L365.839 635.779ZM442.728 687.707L441.935 705.856L394.096 674.99L442.728 687.707ZM444.691 688.481L469.509 700.089L443.903 706.352L444.691 688.481ZM510.81 694.256L511.581 719.713L475.5 700.834L510.81 694.256ZM567.836 679.033L553.2 713.493L514.495 693.364L567.836 679.033ZM570.128 678.736L614.634 691.084L555.525 713.131L570.128 678.736ZM621.625 655.651L640.483 672.133L619.041 688.777L621.625 655.651ZM672.796 620.35L694.548 616.199L646.904 665.713L672.796 620.35ZM698.397 610.743L698.248 586.237L718.301 573.984L698.397 610.743ZM700.159 582.736L724.502 541.83L720.038 570.598L700.159 582.736ZM731.201 494.396L734.043 524.474L727.611 533.359L731.201 494.396ZM716.424 419.049L721.986 424.264L727.55 464.552L716.424 419.049ZM688.229 373.097L693.464 370.471L708.595 404.762L688.229 373.097ZM651.627 349.093L660.814 335.941L683.3 369.285L651.627 349.093ZM650.2 347.655L626.24 314.63L659.395 334.483L650.2 347.655ZM596.254 313.074L596.106 298.716L619.176 310.634L596.254 313.074ZM594.255 312.686L541.526 291.022L594.103 297.945L594.255 312.686ZM489.953 288.483L498.348 281.284L526.184 288.127L489.953 288.483ZM444.106 305.678L460.429 288.095L483 290.124L444.106 305.678ZM439.888 307.29L415.171 309.545L455.755 290.2L439.888 307.29ZM371.913 335.697L374.646 329.581L397.332 318.307L371.913 335.697ZM342.136 383.646L340.488 367.648L365.174 344.092L342.136 383.646ZM340.422 386.463L319.961 409.659L338.813 370.85L340.422 386.463ZM309.939 458.966L296.867 461.397L314.12 422.222L309.939 458.966ZM309.505 461.071L297.001 511.413L296.207 463.544L309.505 461.071ZM320.554 586.398L305.703 574.177L298.591 528.361L320.554 586.398ZM341.377 628.745L331.891 625.621L325.546 597.214L341.377 628.745ZM381.92 667.833L350.408 650.68L345.349 633.676L381.92 667.833ZM387.668 673.228L401.308 690.622L359.6 657.951L387.668 673.228ZM392.771 676.506L436.156 704.496L407.767 695.622L392.771 676.506ZM472.366 701.438L506.089 719.078L447.476 707.521L472.366 701.438ZM512.826 694.731L550.571 714.361L513.599 720.224L512.826 694.731ZM613.013 693.816L597.69 707.035L563.209 712.388L613.013 693.816ZM641.334 674.003L642.609 682.25L622.804 688.381L641.334 674.003ZM692.727 620.956L672.353 657.142L646.432 669.064L692.727 620.956ZM698.411 614.924L712.051 589.727L697.463 624.289L698.411 614.924ZM727.243 537.273L732.395 530.159L724.114 557.384L727.243 537.273ZM732.198 483.582V483.522L732.124 482.993L732.637 476.248L733.16 493.714L732.198 483.582ZM730.828 473.651L725.675 436.329L732.056 457.508L730.828 473.651ZM715.497 415.44L706.091 394.124L719.254 418.96L715.497 415.44ZM687.136 371.426L668.352 343.576L692.316 368.834L687.136 371.426ZM624.387 311.201L625.643 310.293L640.084 320.603L624.387 311.201ZM622.493 310.113L612.728 305.068L623.578 309.327L622.493 310.113ZM540.069 288.824L558.367 285.064L585.9 294.858L540.069 288.824ZM534.1 288.019L509.185 281.896L550.961 284.548L534.1 288.019ZM486.901 288.476L467.467 286.729L494.657 281.822L486.901 288.476ZM418.319 305.837L429.438 297.501L447.362 291.992L418.319 305.837ZM409.193 310.195L399.548 314.988L414.377 306.311L409.193 310.195ZM368.734 337.931L357.293 348.854L370.374 334.267L368.734 337.931ZM315.147 415.015L310.06 416.91L329.822 384.813L315.147 415.015ZM308.516 419.592L314.01 417.56L300.129 449.077L308.516 419.592ZM294.847 501.374L295.139 518.917L294.129 522.106L294.847 501.374ZM295.794 523.4L300.8 555.643L293.9 529.335L295.794 523.4ZM321.905 590.098L328.333 618.876L307.828 578.498L321.905 590.098ZM342.529 631.223L346.99 646.226L333.725 628.324L342.529 631.223ZM442.194 708.472L444.056 711.441L424.565 702.969L442.194 708.472ZM447.201 712.705L444.913 709.056L487.335 717.415L447.201 712.705ZM551.118 716.289L546.67 721.346L523.382 720.698L551.118 716.289ZM554.208 715.801L581.969 711.49L550.082 720.471L554.208 715.801ZM618.351 691.835L634.631 686.799L605.923 702.556L618.351 691.835ZM644.43 681.036L643.151 672.774L666.94 661.833L644.43 681.036ZM695.961 619.274L694.847 630.376L679.202 649.041L695.961 619.274ZM721.726 571.937L725.747 570.001L707.347 606.02L721.726 571.937ZM727.08 567.15L722.568 569.323L731.639 539.497L727.08 567.15Z" fill="url(#paint1_radial_1115_1899)"/>
<path d="M934.441 342.175C914.63 294.576 874.505 243.189 842.997 226.949C868.642 277.154 883.482 327.534 889.154 365.125C889.154 365.017 889.175 365.218 889.222 365.553C889.245 365.716 889.273 365.883 889.298 366.046C932.304 482.499 908.876 600.92 875.113 673.284C822.877 785.251 696.412 899.999 498.465 894.4C284.592 888.353 96.1902 729.855 61.0182 522.257C54.6109 489.522 61.0182 472.899 64.2389 446.319C60.3097 466.81 58.8149 472.729 56.8502 509.136C56.8502 509.913 56.8029 510.682 56.8029 511.46C56.8048 762.876 260.886 966.688 512.635 966.688C620.093 966.733 724.111 928.806 806.322 859.606C888.532 790.405 943.647 694.381 961.934 588.49C962.707 582.663 963.325 576.805 964.007 570.928C973.068 492.854 963.001 410.795 934.441 342.175V342.175Z" fill="url(#paint2_radial_1115_1899)"/>
<path d="M934.441 342.175C914.63 294.576 874.505 243.189 842.997 226.949C868.642 277.154 883.482 327.534 889.154 365.125C889.154 365.017 889.175 365.218 889.222 365.553C889.245 365.716 889.273 365.883 889.298 366.046C932.304 482.499 908.876 600.92 875.113 673.284C822.877 785.251 696.412 899.999 498.465 894.4C284.592 888.353 96.1902 729.855 61.0182 522.257C54.6109 489.522 61.0182 472.899 64.2389 446.319C60.3097 466.81 58.8149 472.729 56.8502 509.136C56.8502 509.913 56.8029 510.682 56.8029 511.46C56.8048 762.876 260.886 966.688 512.635 966.688C620.093 966.733 724.111 928.806 806.322 859.606C888.532 790.405 943.647 694.381 961.934 588.49C962.707 582.663 963.325 576.805 964.007 570.928C973.068 492.854 963.001 410.795 934.441 342.175V342.175Z" fill="url(#paint3_radial_1115_1899)"/>
<path d="M61.0201 522.257C96.1902 729.854 284.592 888.353 498.467 894.4C696.414 899.998 822.879 785.241 875.115 673.284C908.878 600.912 932.307 482.504 889.3 366.046L889.284 365.996L889.224 365.553C889.176 365.218 889.146 365.017 889.156 365.125C889.156 365.201 889.184 365.382 889.245 365.883C905.411 471.332 851.708 573.487 767.756 642.56C767.606 642.918 767.504 643.153 767.504 643.153C603.921 776.191 447.385 723.42 415.69 701.819C413.464 700.75 411.253 699.649 409.059 698.517C313.688 652.993 274.287 566.208 282.735 491.782C202.206 491.782 174.747 423.942 174.747 423.942C174.747 423.942 247.048 372.451 342.339 417.234C430.592 458.711 513.476 423.946 513.485 423.942C513.315 420.244 433.981 388.725 403.051 358.287C386.525 342.023 378.678 334.183 371.729 328.301C367.958 325.12 364.017 322.147 359.922 319.396C356.795 317.279 353.646 315.195 350.474 313.145C317.229 291.562 251.11 292.752 248.927 292.807H248.715C230.645 269.947 231.92 194.535 232.951 178.79C232.733 177.812 219.469 185.667 217.732 186.849C201.784 198.22 186.873 210.979 173.174 224.979C157.591 240.76 143.352 257.814 130.606 275.964C130.606 275.987 130.593 276.012 130.585 276.034C130.585 276.012 130.599 275.987 130.606 275.962C101.299 317.44 80.5106 364.318 69.4432 413.884C69.2234 414.883 53.0347 485.587 61.0201 522.257V522.257Z" fill="url(#paint4_radial_1115_1899)"/>
<path d="M673.44 342.616C690.069 358.919 704.314 377.487 715.757 397.769C718.267 399.653 720.609 401.53 722.6 403.362C825.937 498.467 771.795 632.979 767.754 642.56C851.706 573.487 905.409 471.332 889.243 365.882C837.698 237.564 750.3 185.821 678.921 73.1603C675.312 67.4634 671.705 61.7514 668.185 55.7306C666.392 52.657 664.718 49.5154 663.166 46.3129C660.207 40.5945 657.924 34.5505 656.363 28.3035C656.374 28.0075 656.274 27.7181 656.083 27.492C655.891 27.266 655.622 27.1196 655.329 27.0815C655.049 27.0015 654.752 27.0015 654.472 27.0815C654.408 27.1042 654.313 27.1781 654.245 27.2046C654.145 27.2444 654.018 27.3354 653.912 27.3941C636.281 35.7831 531.745 201.107 673.44 342.616V342.616Z" fill="url(#paint5_linear_1115_1899)"/>
<path d="M498.088 280.195L558.439 284.035L595.092 297.073L625.64 309.063L660.821 334.181L693.962 369.111L705.475 390.835C707.021 391.782 710.212 393.84 712.924 395.681C713.919 396.379 714.819 397.074 715.766 397.765C704.324 377.483 690.078 358.915 673.45 342.612C531.745 201.107 636.281 35.7829 653.916 27.3788C653.967 27.3105 654.073 27.1571 654.105 27.1211C539.6 94.1041 500.754 218.012 497.185 280.007L497.168 280.354L498.088 280.195Z" fill="url(#paint6_linear_1115_1899)"/>
<path d="M350.472 313.155C353.647 315.201 356.797 317.285 359.92 319.407C349.53 283.103 349.089 244.673 358.642 208.14C311.816 229.436 275.394 263.1 248.918 292.825C251.108 292.763 317.227 291.573 350.472 313.155Z" fill="url(#paint7_radial_1115_1899)"/>
<path d="M307.997 552.638C307.997 552.638 329.045 474.318 458.669 474.318C472.688 474.318 512.739 435.271 513.478 423.942C513.478 423.942 430.592 458.707 342.345 417.235C247.05 372.449 174.773 423.942 174.773 423.942C174.773 423.942 202.244 491.785 282.762 491.785C274.331 566.202 313.718 652.991 409.089 698.516C411.23 699.539 413.238 700.638 415.417 701.623C359.718 672.883 313.756 618.586 307.997 552.638Z" fill="url(#paint8_radial_1115_1899)"/>
<path d="M722.6 403.362C720.609 401.53 718.267 399.652 715.757 397.769C714.829 397.074 713.919 396.379 712.915 395.685C688.576 378.608 644.994 361.741 603.006 369.035C766.96 450.903 722.945 732.828 495.754 722.176C475.524 721.352 455.531 717.501 436.442 710.752C431.928 709.057 427.463 707.234 423.054 705.284C420.481 704.111 417.912 702.929 415.371 701.616C415.462 701.681 415.587 701.751 415.68 701.806C447.374 723.403 603.909 776.177 767.495 643.139C767.495 643.139 767.597 642.905 767.747 642.547C771.795 632.983 825.937 498.467 722.6 403.362V403.362Z" fill="url(#paint9_radial_1115_1899)"/>
<path d="M934.403 342.155C914.592 294.557 874.465 243.17 842.957 226.93C868.602 277.135 883.444 327.514 889.116 365.106C889.116 365.181 889.144 365.363 889.205 365.863C837.67 237.545 750.26 185.801 678.884 73.1412C675.284 67.4424 671.667 61.7323 668.145 55.7115C666.353 52.6379 664.679 49.4963 663.129 46.2938C660.171 40.5787 657.889 34.5387 656.329 28.2958C656.34 27.9997 656.24 27.7103 656.048 27.4845C655.856 27.2587 655.587 27.1129 655.293 27.0757C655.014 26.9956 654.718 26.9956 654.438 27.0757C654.374 27.0984 654.279 27.1723 654.211 27.1988C654.111 27.2386 653.984 27.3295 653.878 27.3883C653.927 27.3201 654.035 27.1666 654.067 27.1306C539.562 94.1137 500.737 218.387 497.168 280.382L498.092 280.215L558.442 284.056L592.408 296.137L625.643 309.084L660.825 334.202L693.926 369.112C693.926 369.112 705.32 390.496 705.483 390.856C679.065 375.145 640.675 362.485 602.989 369.033C766.943 450.901 722.928 732.826 495.737 722.174C475.5 721.348 455.502 717.493 436.408 710.736C431.893 709.044 427.429 707.221 423.02 705.271C420.447 704.098 417.878 702.914 415.337 701.603C415.428 701.667 415.553 701.737 415.646 701.802C413.42 700.732 411.21 699.632 409.015 698.499C411.146 699.517 413.151 700.627 415.339 701.603C359.67 672.868 313.705 618.562 307.963 552.615C307.963 552.615 329.003 474.306 458.623 474.306C472.643 474.306 512.697 435.252 513.442 423.925C513.271 420.227 433.936 388.708 403.008 358.27C386.482 342.006 378.634 334.166 371.685 328.283C367.915 325.103 363.973 322.13 359.879 319.379C349.489 283.075 349.047 244.645 358.6 208.111C311.775 229.408 275.352 263.072 248.874 292.797H248.664C230.594 269.938 231.869 194.526 232.898 178.78C232.682 177.803 219.418 185.657 217.679 186.84C201.735 198.208 186.829 210.963 173.133 224.958C157.551 240.739 143.313 257.792 130.566 275.941C130.561 275.965 130.554 275.989 130.546 276.011C130.554 275.988 130.561 275.964 130.566 275.939C101.26 317.417 80.4716 364.296 69.4034 413.861C69.1855 414.848 69.0018 415.871 68.7877 416.866C67.9313 420.875 64.0741 441.215 63.536 445.58C63.5758 445.244 63.4944 445.913 63.536 445.58C60.0175 466.599 57.7728 487.811 56.8142 509.101C56.8142 509.878 56.765 510.647 56.765 511.426C56.765 762.84 260.848 966.653 512.589 966.653C620.046 966.699 724.064 928.775 806.275 859.578C888.487 790.38 943.605 694.36 961.896 588.471C962.669 582.643 963.287 576.785 963.969 570.908C973.028 492.835 962.963 410.775 934.403 342.155ZM889.184 365.534C889.207 365.697 889.235 365.863 889.26 366.026L889.243 365.977C889.222 365.82 889.201 365.68 889.184 365.534Z" fill="url(#paint10_linear_1115_1899)"/>
<path d="M513.478 423.946C513.478 423.946 511.545 424.755 507.984 425.975C499.079 441.024 467.424 469.739 455.316 469.692C325.696 469.123 304.322 546.585 304.322 546.585C306.687 573.059 315.394 598.574 329.708 620.97C317.605 600.035 310.199 576.718 308.004 552.636C308.004 552.636 329.045 474.328 458.667 474.328C472.687 474.328 512.739 435.274 513.485 423.946H513.478Z" fill="url(#paint11_linear_1115_1899)"/>
<path d="M889.3 366.042L889.283 365.996C889.26 365.841 889.243 365.699 889.22 365.555C889.207 365.411 889.186 365.267 889.158 365.125C889.177 365.378 889.206 365.631 889.243 365.883C886.184 358.28 882.919 350.763 879.452 343.338C878.292 340.848 877.048 338.52 875.852 336.089C873.579 331.419 871.305 326.74 868.924 322.272C867.456 319.514 865.912 316.898 864.409 314.213C862.206 310.28 860.022 306.322 857.75 302.531C856.085 299.76 854.364 297.105 852.673 294.404C850.458 290.876 848.251 287.337 845.979 283.92C844.183 281.212 842.342 278.59 840.512 275.947C838.251 272.683 835.991 269.415 833.691 266.232C831.782 263.604 829.842 261.035 827.909 258.465C825.616 255.397 823.297 252.35 820.951 249.323C818.944 246.755 816.923 244.208 814.888 241.683C812.537 238.751 810.168 235.834 807.782 232.932C805.705 230.42 803.617 227.917 801.517 225.424C800.38 224.071 799.243 222.683 798.106 221.334C798.599 221.919 799.075 222.527 799.563 223.118C760.07 176.53 717.208 133.594 678.931 73.1662C675.316 67.4712 671.709 61.7592 668.193 55.7365C666.398 52.6639 664.724 49.5222 663.174 46.3188C660.596 41.1973 658.497 35.8483 656.903 30.3403C656.824 30.0466 656.68 29.5995 656.629 29.376C656.473 28.7735 656.377 28.315 656.377 28.315C656.386 28.0188 656.285 27.7296 656.093 27.5038C655.901 27.2779 655.632 27.1315 655.338 27.0931C655.059 27.0159 654.763 27.0159 654.484 27.0931C654.42 27.1158 654.323 27.1916 654.253 27.22C654.183 27.2484 654.029 27.3469 653.921 27.3981C652.92 27.9593 651.991 28.6414 651.155 29.429C650.933 29.6224 650.713 29.8189 650.496 30.0182C649.225 31.2183 648.021 32.4877 646.891 33.8206C646.845 33.8717 646.809 33.9001 646.764 33.9513C646.775 33.9399 646.786 33.9399 646.798 33.9285C619.488 66.0295 549.749 205.543 662.144 330.678C556.916 206.88 623.226 73.0904 652.046 38.0416C653.579 42.7623 655.456 47.3644 657.661 51.811C659.214 55.0126 660.888 58.1541 662.68 61.2287C666.196 67.2571 669.805 72.9748 673.418 78.6584C744.794 191.319 832.191 243.064 883.735 371.382C883.701 371.131 883.673 370.878 883.65 370.625C883.681 370.766 883.701 370.91 883.713 371.055C883.735 371.199 883.752 371.343 883.775 371.496L883.794 371.543C926.8 488 903.37 606.418 869.608 678.782C851.485 717.215 827.007 752.314 797.205 782.602C829.48 751.096 855.865 714.076 875.115 673.287C908.878 600.918 932.304 482.501 889.3 366.042V366.042Z" fill="url(#paint12_linear_1115_1899)"/>
<path d="M653.915 27.3787C653.967 27.3105 654.073 27.1571 654.105 27.1211C550.957 87.46 509.211 193.982 499.335 259.838C510.68 198.993 549.68 106.053 637.086 47.3774C644.28 36.0178 650.619 28.9569 653.915 27.3787V27.3787Z" fill="url(#paint13_linear_1115_1899)"/>
<path d="M767.502 643.153C767.502 643.153 767.604 642.918 767.754 642.56C771.795 632.983 825.937 498.468 722.6 403.362C720.609 401.53 718.267 399.653 715.757 397.77C714.828 397.074 713.919 396.379 712.915 395.686C689.394 379.182 647.902 362.88 607.246 368.385L607.147 368.397C605.767 368.586 604.386 368.799 603.006 369.035C765.111 449.981 723.901 726.482 503.363 722.42C503.961 722.449 504.562 722.496 505.159 722.521C728.731 731.27 772.778 457.118 617.45 371.167C651.112 370.837 683.671 383.129 703.778 396.095C704.799 396.752 705.737 397.41 706.69 398.069C709.272 399.852 711.685 401.636 713.747 403.391C820.737 494.381 771.901 630.905 768.239 640.639C768.164 640.84 768.088 641.041 768.012 641.242" fill="url(#paint14_linear_1115_1899)"/>
<path d="M343.557 421.782C418.164 454.103 487.409 433.566 508.381 425.837C489.057 432.505 417.652 452.625 342.345 417.236C256.674 376.977 189.608 414.507 176.914 422.502L176.308 422.881L175.815 423.203L175.437 423.45L175.19 423.601L175.02 423.715L175.247 424.207L175.512 424.795V424.908L175.91 425.761C176.554 427.125 177.539 429.076 178.904 431.445C189.02 449.348 219.503 491.369 282.894 491.369C274.71 563.569 311.54 647.383 400.81 693.894C315.556 644.636 279.56 555.593 289.601 484.567C223.747 482.824 194.287 443.342 185.875 426.613C209.822 413.92 270.618 390.182 343.557 421.782Z" fill="url(#paint15_linear_1115_1899)"/>
<path d="M359.85 319.146C359.133 318.725 358.39 318.293 357.622 317.85C358.415 318.38 359.181 318.897 359.92 319.4C359.896 319.314 359.869 319.231 359.85 319.146V319.146ZM359.382 317.475C349.529 281.726 349.274 244.011 358.641 208.132C314.253 228.32 279.228 259.618 253.146 288.144C277.984 263.95 310.159 237.99 349.347 220.202C346.922 238.808 344.832 276.898 359.382 317.475Z" fill="url(#paint16_linear_1115_1899)"/>
<path d="M72.0103 569.972C71.8833 569.538 71.7715 569.103 71.6484 568.667C67.2269 553.409 63.6784 537.912 61.0201 522.251C57.5417 506.28 58.6519 483.856 61.0201 463.545C59.2601 474.088 58.1574 484.803 56.8521 509.129C56.8521 509.906 56.8047 510.675 56.8047 511.454C56.8047 710.416 184.625 879.539 362.711 941.458C208.337 882.339 93.9717 740.859 72.0103 569.972Z" fill="url(#paint17_linear_1115_1899)"/>
<path d="M68.3614 524.093C60.3779 487.422 76.5666 416.719 76.7845 415.726C87.8516 366.16 108.64 319.281 137.948 277.804L137.927 277.876C137.927 277.853 137.94 277.829 137.948 277.806C150.695 259.656 164.934 242.602 180.518 226.82C194.213 212.825 209.12 200.07 225.064 188.702C225.696 188.289 226.338 187.888 226.987 187.501C226.829 222.133 228.794 280.568 244.839 299.727H245.049C247.247 299.614 313.588 296.687 347.528 317.388C350.766 319.351 353.981 321.349 357.175 323.383C361.356 326.023 365.39 328.889 369.258 331.969C376.389 337.667 384.472 345.299 401.488 361.124C426.117 384.03 479.838 406.822 503.035 417.679C480.435 406.295 427.108 381.971 403.053 358.299C386.527 342.034 378.68 334.195 371.731 328.312C367.96 325.131 364.019 322.159 359.924 319.408C356.797 317.291 353.647 315.206 350.476 313.156C317.231 291.573 251.112 292.761 248.929 292.818H248.717C232.2 271.925 231.846 207.159 232.693 184.144C232.727 183.257 232.761 182.439 232.795 181.681L232.835 180.868C232.846 180.644 232.858 180.419 232.869 180.194C232.898 179.698 232.924 179.218 232.953 178.803C232.939 178.745 232.873 178.722 232.773 178.724C232.739 178.724 232.682 178.741 232.638 178.746C232.541 178.761 232.446 178.782 232.352 178.811C232.278 178.832 232.187 178.868 232.102 178.898C231.851 178.985 231.604 179.084 231.363 179.195L230.92 179.396C230.605 179.543 230.292 179.694 229.982 179.851L229.414 180.137L228.949 180.38L228.269 180.736L227.89 180.942C223.872 183.104 218.772 186.16 217.74 186.863C201.789 198.229 186.876 210.984 173.174 224.979C157.591 240.76 143.352 257.814 130.606 275.964C130.606 275.987 130.593 276.012 130.585 276.034C130.585 276.012 130.599 275.987 130.606 275.962C101.299 317.44 80.5106 364.318 69.4432 413.884C69.2234 414.871 53.0347 485.575 61.0201 522.252C90.9537 698.918 231.861 840.002 404.997 881.856C235.232 837.839 97.8687 698.255 68.3614 524.093V524.093Z" fill="url(#paint18_linear_1115_1899)"/>
<path d="M934.441 342.175C916.962 300.179 883.667 255.248 854.433 234.096L853.628 233.527C852.722 232.886 851.82 232.265 850.922 231.667C850.581 231.439 850.24 231.215 849.899 230.992C849.047 230.443 848.2 229.916 847.359 229.412C847.033 229.223 846.705 229.011 846.379 228.821C845.266 228.171 844.138 227.549 842.995 226.953C844.227 229.363 845.411 231.773 846.595 234.183C847.325 235.679 848.05 237.177 848.77 238.678C870.875 284.933 883.927 330.465 889.156 365.129C889.156 365.205 889.184 365.387 889.245 365.887C905.411 471.336 851.708 573.491 767.756 642.564C767.606 642.922 767.504 643.157 767.504 643.157C663.153 728.032 561.678 737.274 493.64 727.242C561.438 739.905 668.378 734.566 778.519 644.993L778.771 644.4C862.721 575.327 916.426 473.17 900.26 367.722C900.226 367.47 900.196 367.218 900.171 366.965C895.527 336.194 884.713 296.858 866.884 256.059C886.843 277.201 903.636 301.122 916.74 327.077C949.036 392.931 963.609 473.032 958.865 550.283C958.509 556.1 958.215 561.893 957.766 567.664C933.008 780.798 755.114 951.956 530.013 964.568C499.969 966.261 469.831 965.037 440.023 960.912C464.036 964.755 488.316 966.686 512.635 966.688C738.084 966.688 925.286 803.215 961.934 588.49C962.707 582.663 963.325 576.805 964.007 570.928C973.068 492.854 963.001 410.795 934.441 342.175V342.175ZM889.298 366.046L889.283 365.997L889.222 365.553C889.245 365.716 889.273 365.883 889.298 366.046V366.046Z" fill="url(#paint19_linear_1115_1899)"/>
<defs>
<radialGradient id="paint0_radial_1115_1899" cx="0" cy="0" r="1" gradientUnits="userSpaceOnUse" gradientTransform="translate(536.198 390.275) scale(266.501 266.397)">
<stop stop-color="#F3F3F3" stop-opacity="0.41"/>
<stop offset="0.504808" stop-opacity="0.4"/>
</radialGradient>
<radialGradient id="paint1_radial_1115_1899" cx="0" cy="0" r="1" gradientUnits="userSpaceOnUse" gradientTransform="translate(510.605 513.261) scale(226.526 226.437)">
<stop stop-opacity="0"/>
<stop offset="1" stop-opacity="0.35"/>
</radialGradient>
<radialGradient id="paint2_radial_1115_1899" cx="0" cy="0" r="1" gradientUnits="userSpaceOnUse" gradientTransform="translate(687.788 130.783) scale(947 946.866)">
<stop stop-color="white"/>
<stop offset="0.26" stop-color="#DADADA" stop-opacity="0.8"/>
<stop offset="0.53" stop-color="#A9A9A9"/>
<stop offset="0.86" stop-color="#626262"/>
</radialGradient>
<radialGradient id="paint3_radial_1115_1899" cx="0" cy="0" r="1" gradientUnits="userSpaceOnUse" gradientTransform="translate(404.509 522.845) scale(947 946.866)">
<stop offset="0.3" stop-color="#32342C" stop-opacity="0.75"/>
<stop offset="0.37" stop-color="#32342C" stop-opacity="0.42"/>
<stop offset="0.48" stop-color="#5C5D57" stop-opacity="0.49"/>
<stop offset="0.53" stop-color="#5C5D57" stop-opacity="0.08"/>
</radialGradient>
<radialGradient id="paint4_radial_1115_1899" cx="0" cy="0" r="1" gradientUnits="userSpaceOnUse" gradientTransform="translate(698.308 -179.239) scale(1503.58 1503.37)">
<stop stop-color="white"/>
<stop offset="0.47" stop-color="#D3D3D3"/>
<stop offset="0.84" stop-color="#8C8C8C"/>
<stop offset="1" stop-color="#222222"/>
</radialGradient>
<linearGradient id="paint5_linear_1115_1899" x1="722.832" y1="-34.5324" x2="951.406" y2="672.791" gradientUnits="userSpaceOnUse">
<stop stop-color="white"/>
<stop offset="0.29" stop-color="white"/>
<stop offset="0.61" stop-color="#C5C5C5"/>
<stop offset="0.89" stop-color="#595959"/>
</linearGradient>
<linearGradient id="paint6_linear_1115_1899" x1="580.235" y1="27.1211" x2="726.626" y2="455.359" gradientUnits="userSpaceOnUse">
<stop stop-color="white"/>
<stop offset="0.29" stop-color="#DFDFDF"/>
<stop offset="0.74" stop-color="#898989"/>
<stop offset="1" stop-color="#474747"/>
</linearGradient>
<radialGradient id="paint7_radial_1115_1899" cx="0" cy="0" r="1" gradientUnits="userSpaceOnUse" gradientTransform="translate(479.803 92.2494) scale(333.007 332.955)">
<stop stop-color="#989898"/>
<stop offset="0.82" stop-color="#747474"/>
</radialGradient>
<radialGradient id="paint8_radial_1115_1899" cx="0" cy="0" r="1" gradientUnits="userSpaceOnUse" gradientTransform="translate(628.563 262.72) scale(947.451 947.425)">
<stop offset="0.29" stop-color="#939393"/>
<stop offset="1" stop-color="#4C4C4C"/>
</radialGradient>
<radialGradient id="paint9_radial_1115_1899" cx="0" cy="0" r="1" gradientUnits="userSpaceOnUse" gradientTransform="translate(462.642 211.117) scale(835.488 835.342)">
<stop offset="0.18" stop-color="white"/>
<stop offset="0.43" stop-color="#B7B7B7"/>
<stop offset="0.69" stop-color="#606060"/>
</radialGradient>
<linearGradient id="paint10_linear_1115_1899" x1="839.736" y1="167.961" x2="219.013" y2="796.727" gradientUnits="userSpaceOnUse">
<stop offset="0.24" stop-color="#FAFAFA" stop-opacity="0.49"/>
<stop offset="0.7" stop-color="white" stop-opacity="0.04"/>
</linearGradient>
<linearGradient id="paint11_linear_1115_1899" x1="431.911" y1="404.244" x2="355.282" y2="719.729" gradientUnits="userSpaceOnUse">
<stop stop-color="white" stop-opacity="0.9"/>
<stop offset="1" stop-color="#B3B3B3" stop-opacity="0.54"/>
</linearGradient>
<linearGradient id="paint12_linear_1115_1899" x1="759.572" y1="11.9238" x2="704.864" y2="1074.94" gradientUnits="userSpaceOnUse">
<stop stop-color="#FDFDFD"/>
<stop offset="1" stop-color="#686868"/>
</linearGradient>
<linearGradient id="paint13_linear_1115_1899" x1="579.815" y1="17.8124" x2="562.345" y2="359.408" gradientUnits="userSpaceOnUse">
<stop stop-color="#F0F0F0"/>
<stop offset="1" stop-color="#8F8F8F"/>
</linearGradient>
<linearGradient id="paint14_linear_1115_1899" x1="652.902" y1="360.186" x2="626.065" y2="871.486" gradientUnits="userSpaceOnUse">
<stop stop-color="#FEFEFE"/>
<stop offset="1" stop-color="#32342C"/>
</linearGradient>
<linearGradient id="paint15_linear_1115_1899" x1="338.367" y1="393.03" x2="359.265" y2="762.063" gradientUnits="userSpaceOnUse">
<stop stop-color="white" stop-opacity="0.8"/>
<stop offset="1" stop-color="#3A3C31" stop-opacity="0.2"/>
</linearGradient>
<linearGradient id="paint16_linear_1115_1899" x1="378.072" y1="182.54" x2="272.728" y2="346.675" gradientUnits="userSpaceOnUse">
<stop stop-color="white" stop-opacity="0.8"/>
<stop offset="1" stop-color="#5C5D57" stop-opacity="0.25"/>
</linearGradient>
<linearGradient id="paint17_linear_1115_1899" x1="215.876" y1="458.766" x2="178.615" y2="1117.04" gradientUnits="userSpaceOnUse">
<stop stop-color="white"/>
<stop offset="1" stop-color="#C4C4C4" stop-opacity="0"/>
</linearGradient>
<linearGradient id="paint18_linear_1115_1899" x1="280.922" y1="94.3477" x2="280.922" y2="874.825" gradientUnits="userSpaceOnUse">
<stop stop-color="#F5F5F5"/>
<stop offset="1" stop-color="#656565" stop-opacity="0"/>
</linearGradient>
<linearGradient id="paint19_linear_1115_1899" x1="719.445" y1="204.761" x2="657.272" y2="1275.6" gradientUnits="userSpaceOnUse">
<stop stop-color="white" stop-opacity="0.8"/>
<stop offset="1" stop-color="#8F8F8F" stop-opacity="0"/>
</linearGradient>
</defs>
</svg>
