<svg width="1024" height="1024" viewBox="0 0 1024 1024" fill="none" xmlns="http://www.w3.org/2000/svg">
<path d="M754.623 105C728.593 105 702.576 114.935 682.706 134.804H682.54L605.592 211.724L812.247 418.36L889.194 341.44C928.935 301.703 928.935 237.314 889.194 197.576L826.563 134.804C806.693 114.935 780.653 105 754.623 105ZM569.663 247.648L199.136 618.331C182.604 634.862 170.514 655.359 163.838 677.771L107.578 868.981C103.604 882.491 107.262 896.957 117.116 906.812C126.971 916.678 141.43 920.333 154.782 916.516L346.009 860.241C368.423 853.565 388.922 841.476 405.455 824.946L776.317 454.284L569.663 247.648Z" fill="white"/>
</svg>
