<svg width="1024" height="1024" viewBox="0 0 1024 1024" fill="none" xmlns="http://www.w3.org/2000/svg">
<g filter="url(#filter0_f_1115_2103)">
<path d="M733.769 901.218C728.182 942.052 687.993 974.074 647.804 962.898C590.852 947.424 524.874 922.924 465.558 918.411L374.435 911.534C359.797 910.504 346.039 904.16 335.751 893.696L178.864 732.941C170.532 724.378 164.97 713.506 162.9 701.739C160.83 689.973 162.349 677.855 167.259 666.963C167.259 666.963 263.97 455.059 267.838 444.098C271.277 433.138 284.601 336.857 292.338 285.277C294.507 271.582 301.34 259.055 311.68 249.817L496.935 83.904C503.039 78.4289 510.197 74.2588 517.97 71.6499C525.744 69.0409 533.968 68.0481 542.139 68.7324C550.31 69.4166 558.255 71.7635 565.486 75.629C572.717 79.4945 579.082 84.797 584.19 91.2111L740.217 288.071C748.947 299.314 753.641 313.167 753.541 327.4C753.541 364.58 756.765 441.304 777.612 490.734C798.297 535.19 823.964 577.152 854.121 615.814C857.772 620.555 859.927 626.277 860.31 632.249C860.693 638.221 859.286 644.172 856.27 649.34C842.73 672.336 815.651 716.608 777.612 773.13C753.53 811.993 738.474 855.764 733.555 901.218H733.769Z" fill="black" fill-opacity="0.3"/>
</g>
<path d="M735.274 894.34C729.686 935.389 689.498 967.411 649.309 956.45C592.572 940.762 526.808 916.262 467.278 911.748L376.369 904.871C361.697 903.803 347.929 897.378 337.685 886.818L180.799 725.634C172.386 716.985 166.778 706 164.707 694.114C162.637 682.228 164.2 669.994 169.193 659.011C169.193 659.011 266.119 446.247 269.773 435.071C273.426 424.111 286.536 327.615 294.273 275.606C296.395 261.833 303.231 249.224 313.615 239.93L498.87 73.3728C504.987 67.9098 512.157 63.7549 519.938 61.1634C527.72 58.5719 535.949 57.5985 544.12 58.3029C552.292 59.0074 560.233 61.3748 567.456 65.2598C574.679 69.1448 581.032 74.4654 586.124 80.8948L741.936 278.615C750.637 289.873 755.327 303.715 755.261 317.944C755.261 355.339 758.485 432.278 779.116 481.922C799.786 526.587 825.453 568.764 855.625 607.647C859.356 612.386 861.576 618.137 861.998 624.154C862.419 630.17 861.023 636.175 857.989 641.388C844.235 664.598 817.371 708.871 779.116 765.822C755.122 804.866 740.144 848.773 735.274 894.34Z" fill="white"/>
<path d="M354.448 898.853C427.304 751.208 425.369 645.256 394.207 570.037C365.838 500.405 312.755 456.563 271.062 429.269C270.202 433.352 268.913 437.22 267.193 440.874L169.193 659.011C164.227 670.015 162.699 682.262 164.808 694.149C166.917 706.036 172.565 717.009 181.013 725.634L337.685 886.818C342.628 891.761 348.43 895.845 354.448 898.853Z" fill="url(#paint0_radial_1115_2103)"/>
<path d="M552.598 599.265C572.155 601.199 591.283 605.497 610.195 612.374C669.941 634.725 724.314 685.015 769.231 781.941C772.454 776.353 775.678 770.98 779.116 765.822C806.566 725.09 832.867 683.595 857.99 641.388C861.053 636.195 862.486 630.203 862.102 624.187C861.719 618.17 859.538 612.408 855.84 607.646C825.593 568.775 799.854 526.597 779.116 481.922C758.485 432.492 755.476 355.338 755.261 317.944C755.261 303.759 750.748 289.79 741.937 278.615L586.125 80.8946L583.546 77.6709C594.936 115.281 594.291 145.368 587.199 172.662C580.752 198.022 568.717 221.018 556.037 245.303C551.739 253.47 547.44 261.851 543.357 270.448C523.146 309.049 511.56 351.579 509.401 395.097C507.252 447.106 517.782 512.225 552.383 599.265H552.598Z" fill="url(#paint1_radial_1115_2103)"/>
<path d="M552.383 599.265C517.782 512.226 507.251 447.107 509.4 395.098C511.549 343.519 526.593 304.835 543.357 270.448L556.251 245.304C568.716 221.018 580.536 198.023 587.199 172.663C595.111 141.304 593.843 108.331 583.545 77.6715C572.855 65.9258 557.955 58.8826 542.093 58.0775C526.231 57.2723 510.694 62.7704 498.87 73.3733L313.615 239.931C303.231 249.224 296.394 261.834 294.272 275.606L271.707 425.186C271.707 426.69 271.277 427.98 271.062 429.484C312.755 456.563 365.623 500.405 394.207 569.822C399.795 583.577 404.523 597.976 407.961 613.665C454.925 600.641 503.762 595.699 552.383 599.05V599.265Z" fill="url(#paint2_radial_1115_2103)"/>
<path d="M649.524 956.452C689.498 967.412 729.686 935.39 735.274 894.127C739.85 854.987 751.424 816.988 769.445 781.942C724.313 685.017 669.94 634.727 610.41 612.376C547.01 588.736 478.023 596.687 407.962 613.666C423.65 684.802 414.409 777.859 354.663 898.855C361.325 902.294 368.847 904.228 376.369 904.873L470.716 911.965C521.865 915.618 598.159 942.053 649.524 956.452Z" fill="url(#paint3_radial_1115_2103)"/>
<path fill-rule="evenodd" clip-rule="evenodd" d="M509.83 391.874C507.466 443.453 513.914 502.339 548.515 589.164L537.769 588.089C506.607 497.611 499.729 451.19 502.093 398.966C504.243 346.742 521.221 306.553 537.984 272.167C542.282 263.571 552.168 247.452 556.466 239.285C568.931 215 577.313 202.32 584.405 180.184C594.721 149.237 592.572 134.623 591.282 120.009C599.234 172.662 568.931 218.439 546.151 265.075C525.06 304.249 512.603 347.484 509.615 391.874H509.83Z" fill="url(#paint4_radial_1115_2103)"/>
<path fill-rule="evenodd" clip-rule="evenodd" d="M404.523 573.691C408.821 583.147 412.475 590.884 415.054 602.704L405.813 604.853C402.159 591.099 399.365 581.213 393.992 569.393C362.615 495.678 312.325 457.638 271.492 429.699C320.922 456.348 371.856 498.256 404.523 573.691Z" fill="url(#paint5_radial_1115_2103)"/>
<path fill-rule="evenodd" clip-rule="evenodd" d="M415.484 612.16C432.677 692.753 413.335 795.266 356.383 894.986C404.093 796.126 427.304 701.349 407.962 613.45L415.484 611.945V612.16Z" fill="url(#paint6_radial_1115_2103)"/>
<path fill-rule="evenodd" clip-rule="evenodd" d="M612.344 604.638C705.831 639.669 741.936 716.393 768.8 780.652C735.489 713.599 689.283 639.454 608.905 611.945C547.87 590.884 496.291 593.463 407.962 613.45L406.027 604.853C499.729 583.362 548.73 580.783 612.344 604.853V604.638Z" fill="url(#paint7_radial_1115_2103)"/>
<defs>
<filter id="filter0_f_1115_2103" x="149" y="55.5225" width="724.372" height="922.625" filterUnits="userSpaceOnUse" color-interpolation-filters="sRGB">
<feFlood flood-opacity="0" result="BackgroundImageFix"/>
<feBlend mode="normal" in="SourceGraphic" in2="BackgroundImageFix" result="shape"/>
<feGaussianBlur stdDeviation="6.5" result="effect1_foregroundBlur_1115_2103"/>
</filter>
<radialGradient id="paint0_radial_1115_2103" cx="0" cy="0" r="1" gradientTransform="matrix(-103.158 -397.589 264.343 -68.7722 346.496 884.454)" gradientUnits="userSpaceOnUse">
<stop stop-color="#636363" stop-opacity="0.4"/>
<stop offset="1" stop-opacity="0.1"/>
</radialGradient>
<radialGradient id="paint1_radial_1115_2103" cx="0" cy="0" r="1" gradientTransform="matrix(88.1143 -666.23 492.151 64.4739 695.945 715.962)" gradientUnits="userSpaceOnUse">
<stop stop-color="white" stop-opacity="0.6"/>
<stop offset="1" stop-color="#777777" stop-opacity="0.1"/>
</radialGradient>
<radialGradient id="paint2_radial_1115_2103" cx="0" cy="0" r="1" gradientTransform="matrix(122.5 -560.923 382.545 83.8161 371.211 597.761)" gradientUnits="userSpaceOnUse">
<stop stop-color="white" stop-opacity="0.8"/>
<stop offset="1" stop-color="white" stop-opacity="0.4"/>
</radialGradient>
<radialGradient id="paint3_radial_1115_2103" cx="0" cy="0" r="1" gradientTransform="matrix(-169.781 -285.834 328.817 -193.422 652.532 958.601)" gradientUnits="userSpaceOnUse">
<stop stop-color="#919191" stop-opacity="0.3"/>
<stop offset="1" stop-opacity="0.3"/>
</radialGradient>
<radialGradient id="paint4_radial_1115_2103" cx="0" cy="0" r="1" gradientTransform="matrix(-62.3248 292.282 -197.72 -42.9826 608.046 283.128)" gradientUnits="userSpaceOnUse">
<stop stop-color="white" stop-opacity="0"/>
<stop offset="1" stop-color="white" stop-opacity="0.2"/>
</radialGradient>
<radialGradient id="paint5_radial_1115_2103" cx="0" cy="0" r="1" gradientTransform="matrix(154.737 156.886 -333.115 328.817 257.952 444.958)" gradientUnits="userSpaceOnUse">
<stop stop-color="white" stop-opacity="0.2"/>
<stop offset="1" stop-color="white" stop-opacity="0.4"/>
</radialGradient>
<radialGradient id="paint6_radial_1115_2103" cx="0" cy="0" r="1" gradientTransform="matrix(42.9826 253.597 -539.432 92.4126 424.08 549.191)" gradientUnits="userSpaceOnUse">
<stop stop-color="white" stop-opacity="0.1"/>
<stop offset="1" stop-color="white" stop-opacity="0.3"/>
</radialGradient>
<radialGradient id="paint7_radial_1115_2103" cx="0" cy="0" r="1" gradientTransform="matrix(-348.159 -182.676 575.967 -1096.06 766.436 759.805)" gradientUnits="userSpaceOnUse">
<stop stop-color="white" stop-opacity="0.2"/>
<stop offset="0.5" stop-color="white" stop-opacity="0.2"/>
<stop offset="1" stop-color="white" stop-opacity="0.3"/>
</radialGradient>
</defs>
</svg>
